<?xml version="1.0" standalone="no"?>
<!DOCTYPE svg PUBLIC "-//W3C//DTD SVG 1.1//EN" "http://www.w3.org/Graphics/SVG/1.1/DTD/svg11.dtd" >
<svg xmlns="http://www.w3.org/2000/svg">
<metadata>
Created by FontPrep 20130207 at Fri Dec 11 18:19:34 2015
 By brian p harrington
Copyright (c) 2009 by Hannes von Doehren. All rights reserved.
</metadata>
<defs>
<font id="92e058ad2c8b7fdb0d548f9134d3b780" horiz-adv-x='1024' >
  <font-face 
    font-family="BrandonGrotesque-MediumItalic"
    font-weight="420"
    font-style="italic"
    font-stretch="normal"
    units-per-em="2048"
    panose-1="2 11 6 3 2 2 3 13 2 2"
    ascent="1434"
    descent="-614"
    x-height="819"
    cap-height="1434"
    bbox="-379 -779.021 2008.53 2124.4"
    underline-thickness="102"
    underline-position="-102"
    slope="-8"
    unicode-range="U+0020-FB02"
  />
<missing-glyph horiz-adv-x="1226" 
d="M502 319q0 -41 30 -69t69 -29q40 0 70 29q29 30 29 70t-29 69q-30 29 -70 29q-39 0 -69 -29t-30 -70zM537 643q0 -25 28 -25h74q31 0 31 27v53q0 57 107 124q40 26 74 75t34 109q0 98 -73 162t-193 65q-120 0 -213 -80q-22 -18 -41 -44t-3 -38l46 -45q24 -18 70 33
q45 51 120 51q74 0 108 -31t34 -75t-32 -80q-32 -37 -70 -62q-38 -24 -70 -66t-31 -94v-59zM102 61v1311q0 61 62 62h899q61 0 61 -62v-1311q0 -61 -61 -61h-899q-62 0 -62 61z" />
    <glyph glyph-name="fi" unicode="fi" horiz-adv-x="1052" 
d="M106 649q-14 0 -23 11t-7 28l14 92q2 16 13 28t26 11h96l37 254q27 181 130 281t261 100q82 0 158 -31t115 -61q10 -8 11 -24t-7 -27l-58 -92q-20 -31 -49 -11q-89 60 -167 60t-128 -48t-65 -147l-37 -254h496q14 0 22 -11t6 -28l-104 -741q-2 -15 -14 -27t-27 -12h-125
q-14 0 -23 12q-8 12 -6 27l84 610h-332l-170 -1224q-6 -39 -49 -39h-123q-14 0 -22 12t-6 27l170 1224h-97z" />
    <glyph glyph-name="fl" unicode="fl" horiz-adv-x="1071" 
d="M102 651q-14 -1 -22 11t-6 28l12 90q6 39 41 39h100l37 254q27 180 139 281q113 100 259 100q70 0 130 -28t85 -54l26 -29l27 56q16 35 47 35h49q14 0 24 -12t7 -27l-191 -1356q-8 -39 -41 -39h-127q-14 0 -22 11t-6 28l159 1118q-24 47 -75 79q-52 32 -110 32t-113 -48
q-54 -48 -68 -147l-37 -254h172q35 0 31 -39l-15 -90q-2 -16 -13 -27t-26 -12h-172l-174 -1226q-2 -15 -14 -27t-27 -12h-131q-30 0 -26 39l174 1226h-103z" />
    <glyph glyph-name="f_f" unicode="ff" horiz-adv-x="1193" 
d="M658 1255q-66 0 -123 -57t-76 -172l-31 -207h336l37 254q12 74 24 115q-16 27 -59 47q-42 20 -108 20zM104 649q-14 0 -22 11t-6 28l12 92q6 39 41 39h98l29 207q29 203 144 305q116 103 272 103t252 -88q104 108 246 108t214 -82q18 -23 0 -47l-57 -88q-20 -29 -45 -10
q-54 43 -116 43t-107 -49t-58 -148l-34 -254h192q35 0 29 -39l-12 -92q-8 -39 -41 -39h-193l-176 -1224q-2 -15 -14 -27t-27 -12h-131q-14 0 -23 12q-8 12 -6 27l176 1224h-335l-177 -1224q-2 -15 -14 -27t-27 -12h-131q-14 0 -22 12t-6 27l176 1224h-101z" />
    <glyph glyph-name="f_f_i" unicode="ffi" horiz-adv-x="1591" 
d="M656 1255q-66 0 -124 -57t-73 -172l-29 -207h334l37 254q6 45 24 115q-16 27 -59 47q-44 20 -110 20zM106 649q-14 0 -23 11t-7 28l12 92q6 39 41 39h98l31 207q24 192 134 300t294 108q139 0 238 -88q104 109 268 108q82 0 158 -31t114 -61q10 -8 12 -24t-8 -27l-57 -92
q-20 -31 -49 -11q-90 60 -168 60q-163 1 -193 -197l-34 -252h493q14 0 22 -11t7 -28l-105 -741q-2 -15 -14 -27t-27 -12h-124q-33 0 -29 39l84 610h-332l-180 -1224q-2 -15 -14 -27t-27 -12h-131q-14 0 -23 12q-8 12 -6 27l180 1224h-335l-181 -1224q-2 -15 -14 -27t-27 -12
h-131q-14 0 -22 12t-6 27l180 1224h-99z" />
    <glyph glyph-name="f_f_l" unicode="ffl" horiz-adv-x="1611" 
d="M656 1255q-66 0 -124 -57t-75 -172l-31 -207h336l37 254q10 59 26 115q-16 27 -60 47q-43 20 -109 20zM102 649q-14 0 -22 11t-6 28l12 92q6 39 41 39h98l29 207q29 201 149 304q121 104 273 104t246 -88q104 109 280 108q70 0 130 -28t85 -54l27 -29l26 56q16 35 48 35
h49q14 0 23 -12t7 -27l-190 -1356q-8 -39 -41 -39h-127q-31 0 -29 39l160 1118q-24 48 -76 79q-52 32 -112 32t-114 -48t-69 -147l-36 -254h172q35 0 30 -39l-14 -90q-2 -16 -13 -27t-26 -12h-172l-172 -1226q-2 -15 -14 -27t-27 -12h-131q-14 0 -23 12q-8 12 -6 27
l172 1224h-336l-172 -1224q-2 -15 -14 -27t-27 -12h-131q-14 0 -22 12t-6 27l172 1224h-101z" />
    <glyph glyph-name="f_f_h" unicode="ffh" horiz-adv-x="2123" 
d="M656 1255q-66 0 -124 -57t-75 -172l-31 -207h336l37 254q10 59 26 115q-16 27 -60 47q-43 20 -109 20zM102 649q-14 0 -22 11t-6 28l12 92q6 39 41 39h98l27 185q32 214 144 322t272 108t254 -88q104 109 280 108q68 0 127 -28t84 -54l27 -29l26 56q16 35 47 35h50
q14 0 23 -10t7 -25l-92 -647q113 88 223 88q152 0 220 -108t43 -281l-58 -412q-2 -15 -14 -27t-27 -12h-123q-33 0 -28 39l57 412q14 98 -17 152q-32 54 -100 54t-126 -45t-81 -84l-69 -489q-6 -39 -43 -39h-125q-14 0 -23 11q-8 11 -6 28l160 1114l-13 22q-46 64 -122 88
q-18 5 -39 5q-70 0 -123 -50t-70 -159l-34 -240h172q35 0 30 -39l-14 -90q-2 -16 -13 -27t-26 -12h-172l-168 -1226q-2 -15 -14 -27t-27 -12h-131q-14 0 -22 12t-7 27l168 1224h-336l-167 -1224q-2 -15 -14 -27t-27 -12h-132q-14 0 -22 12t-6 27l168 1224h-101z" />
    <glyph glyph-name="f_k" unicode="fk" horiz-adv-x="1513" 
d="M102 651q-14 -1 -22 11t-6 28l12 90q6 39 41 39h100l37 254q27 182 135 282q109 99 263 99q70 0 130 -28t85 -54l26 -29l27 56q16 35 47 35h49q14 0 24 -12t7 -27l-123 -887l297 287q29 25 49 24h162q24 0 26 -20t-12 -35l-340 -322l295 -389q12 -13 3 -33t-32 -20h-157
q-18 0 -31 16l-276 381l-52 -358q-2 -15 -13 -27t-26 -12h-129q-14 0 -22 11t-6 28l159 1118q-24 47 -75 79q-52 32 -110 32t-113 -48q-54 -48 -68 -147l-37 -254h172q35 0 31 -39l-15 -90q-2 -16 -13 -27t-26 -12h-172l-174 -1226q-2 -15 -14 -27t-27 -12h-131
q-30 0 -26 39l174 1226h-103z" />
    <glyph glyph-name="f_j" unicode="fj" horiz-adv-x="1073" 
d="M106 649q-14 0 -23 11t-7 28l14 92q2 16 13 28t26 11h96l37 254q25 178 132 280q108 101 259 101q82 0 158 -31t115 -61q10 -8 11 -24t-7 -27l-58 -92q-20 -31 -49 -11q-89 60 -167 60t-128 -48t-65 -147l-37 -254h516q14 0 22 -11t7 -28l-144 -1034q-51 -381 -348 -381
q-55 0 -96 21q-25 10 -14 39l43 116q10 25 32 18t48 -8q110 0 137 195l127 903h-353l-170 -1224q-6 -39 -49 -39h-123q-14 0 -22 12t-6 27l170 1224h-97z" />
    <glyph glyph-name="f_f_j" unicode="ffj" horiz-adv-x="1611" 
d="M430 819h334l37 254q6 39 24 113q-16 26 -59 48q-44 22 -110 22t-124 -58q-58 -57 -73 -172zM106 649q-14 0 -23 11t-7 28l12 92q6 39 41 39h98l31 207q25 190 135 299q111 109 282 109t249 -88q104 109 268 108q82 0 158 -31t114 -61q10 -8 12 -24t-8 -27l-57 -92
q-20 -31 -49 -11q-90 60 -168 60q-163 1 -193 -197l-34 -252h514q14 0 22 -11t6 -28l-143 -1034q-27 -195 -110 -288t-238 -93q-55 0 -96 21q-25 10 -15 39l43 116q10 25 32 18t48 -8q110 0 137 195l127 903h-352l-180 -1224q-2 -15 -14 -27t-27 -12h-131q-14 0 -23 12
q-8 12 -6 27l180 1224h-335l-181 -1224q-2 -15 -14 -27t-27 -12h-131q-14 0 -22 12t-6 27l180 1224h-99z" />
    <glyph glyph-name="f_b" unicode="fb" horiz-adv-x="1556" 
d="M1270 436q0 104 -45 164q-45 62 -120 62t-138 -35l-21 -13l-45 -331q13 -56 56 -92t90 -35q91 0 157 88t66 192zM102 651q-14 -1 -22 11t-6 28l12 90q6 39 41 39h100l37 254q27 184 135 283q109 98 263 98q70 0 130 -28t85 -54l26 -29l27 56q16 35 47 35h49q14 0 24 -12
t7 -27l-82 -600q90 45 174 45q135 0 224 -109t89 -260q0 -201 -121 -346t-294 -145q-66 0 -121 28t-78 58l-23 28l-24 -59q-14 -35 -39 -35h-62q-14 0 -22 12t-6 27l157 1118q-24 47 -75 79q-52 32 -110 32t-113 -48q-54 -48 -68 -147l-37 -254h172q35 0 31 -39l-15 -90
q-2 -16 -13 -27t-26 -12h-172l-174 -1226q-2 -15 -14 -27t-27 -12h-131q-30 0 -26 39l174 1226h-103z" />
    <glyph glyph-name="f_f_k" unicode="ffk" horiz-adv-x="2054" 
d="M656 1255q-66 0 -124 -57t-75 -172l-31 -207h336l37 254q10 59 26 115q-16 27 -60 47q-43 20 -109 20zM102 649q-14 0 -22 11t-6 28l12 92q6 39 41 39h98l29 207q29 203 145 305q117 103 273 103t250 -88q104 109 280 108q70 0 130 -28t85 -54l27 -29l26 56q16 35 48 35
h49q14 0 23 -12t7 -27l-122 -887l297 287q29 25 49 24h161q23 0 26 -20t-11 -35l-340 -322l295 -389q12 -13 3 -33t-32 -20h-158q-18 0 -30 16l-277 381l-51 -358q-2 -15 -13 -27t-26 -12h-129q-31 0 -29 39l160 1118q-24 48 -76 79q-52 32 -112 32t-114 -48t-69 -147
l-36 -254h172q35 0 30 -39l-14 -90q-2 -16 -13 -27t-26 -12h-172l-172 -1226q-2 -15 -14 -27t-27 -12h-131q-14 0 -23 12q-8 12 -6 27l172 1224h-336l-172 -1224q-2 -15 -14 -27t-27 -12h-131q-14 0 -22 12t-6 27l172 1224h-101z" />
    <glyph glyph-name="f_h" unicode="fh" horiz-adv-x="1589" 
d="M100 649q-14 0 -22 11t-6 28l12 90q6 39 41 39h100l37 256q27 182 135 282q109 99 262 99q71 0 131 -28t87 -54l24 -29l27 56q16 35 47 35h49q14 0 24 -12t7 -27l-90 -643q113 88 223 88q158 0 222 -106t40 -283l-57 -412q-3 -15 -15 -27t-26 -12h-123q-33 0 -29 39
l57 412q14 98 -17 152q-32 54 -100 54t-125 -45q-58 -45 -81 -84l-70 -489q-6 -39 -43 -39h-125q-14 0 -22 11t-6 28l159 1118q-24 47 -75 79q-52 32 -110 32t-113 -48q-54 -48 -68 -147l-37 -256h172q35 0 31 -39l-15 -90q-2 -16 -13 -28t-26 -11h-172l-174 -1224
q-2 -15 -14 -27t-27 -12h-131q-30 0 -26 39l174 1224h-103z" />
    <glyph glyph-name="f_f_b" unicode="ffb" horiz-adv-x="2095" 
d="M1440 289q14 -61 56 -98q42 -36 89 -35q92 0 158 88q65 88 65 192t-45 164q-45 62 -116 62t-144 -35l-18 -13zM656 1255q-66 0 -124 -57t-75 -172l-31 -207h336l37 254q10 59 26 115q-16 27 -60 47q-43 20 -109 20zM102 649q-14 0 -22 11t-6 28l12 92q6 39 41 39h98
l29 207q29 203 144 305q116 103 272 103t252 -88q104 109 280 108q70 0 130 -28t85 -54l27 -29l26 56q16 35 48 35h49q14 0 23 -12t7 -27l-84 -600q90 45 175 45q137 0 225 -106t88 -263q0 -203 -120 -347t-296 -144q-66 0 -121 28t-78 58l-22 28l-25 -59q-14 -35 -39 -35
h-61q-14 0 -22 12t-7 27l160 1118q-24 48 -76 79q-52 32 -112 32t-114 -48t-69 -147l-36 -256h172q35 0 30 -39l-14 -90q-2 -16 -13 -28t-26 -11h-172l-172 -1224q-2 -15 -14 -27t-27 -12h-131q-14 0 -23 12q-8 12 -6 27l172 1224h-336l-172 -1224q-2 -15 -14 -27t-27 -12
h-131q-14 0 -22 12t-6 27l172 1224h-101z" />
    <glyph glyph-name=".notdef" horiz-adv-x="1226" 
d="M502 319q0 -41 30 -69t69 -29q40 0 70 29q29 30 29 70t-29 69q-30 29 -70 29q-39 0 -69 -29t-30 -70zM537 643q0 -25 28 -25h74q31 0 31 27v53q0 57 107 124q40 26 74 75t34 109q0 98 -73 162t-193 65q-120 0 -213 -80q-22 -18 -41 -44t-3 -38l46 -45q24 -18 70 33
q45 51 120 51q74 0 108 -31t34 -75t-32 -80q-32 -37 -70 -62q-38 -24 -70 -66t-31 -94v-59zM102 61v1311q0 61 62 62h899q61 0 61 -62v-1311q0 -61 -61 -61h-899q-62 0 -62 61z" />
    <glyph glyph-name=".null" horiz-adv-x="0" 
 />
    <glyph glyph-name="nonmarkingreturn" horiz-adv-x="681" 
 />
    <glyph glyph-name="space" unicode=" " horiz-adv-x="460" 
 />
    <glyph glyph-name="exclam" unicode="!" horiz-adv-x="602" 
d="M379 132q0 -60 -49 -106q-50 -46 -106 -46t-91 36t-35 96q0 58 49 105t105 47t92 -36q35 -36 35 -96zM276 557q-12 0 -21 10t-9 23l20 571l33 234q2 14 13 26t26 13h172q14 0 24 -12t7 -27l-33 -230l-143 -575q-8 -33 -39 -33h-50z" />
    <glyph glyph-name="quotedbl" unicode="&#x22;" horiz-adv-x="638" 
d="M182 1026q-14 0 -22 11t-6 28l47 330q2 14 13 26t26 13h125q18 0 25 -14t-1 -38l-113 -325q-12 -31 -36 -31h-58zM487 1026q-14 0 -22 12t-6 27l45 330q8 39 41 39h123q18 0 26 -14t0 -38l-112 -325q-12 -31 -39 -31h-56z" />
    <glyph glyph-name="numbersign" unicode="#" horiz-adv-x="1021" 
d="M342 487h289l88 347h-287zM94 391q-14 0 -24 12t-6 37q7 47 42 47h144l92 347h-133q-33 0 -28 46q3 26 15 38t27 12h144l125 471q8 33 36 33h25q15 0 23 -14t4 -31l-119 -459h287l120 471q2 12 16 22t25 11h19q16 0 24 -14t4 -31l-118 -459h120q33 0 28 -48t-40 -48h-133
l-92 -347h123q31 0 25 -48t-40 -48h-137l-94 -358q-8 -33 -41 -33h-20q-16 0 -25 13q-8 13 -4 32l94 346h-291l-94 -358q-8 -33 -39 -33h-18q-18 0 -26 13q-7 14 -3 32l92 346h-129z" />
    <glyph glyph-name="dollar" unicode="$" horiz-adv-x="1001" 
d="M682 377q0 119 -131 209l-59 -420q82 2 136 63t54 148zM367 1061q0 -123 131 -205l57 410q-88 -12 -138 -72t-50 -133zM633 1556h20q13 0 23 -11t8 -27l-8 -68q166 -14 291 -117q12 -8 14 -28t-12 -41l-70 -80q-31 -35 -59 -10q-61 53 -191 90l-65 -449
q317 -172 317 -414q0 -182 -118 -300t-318 -119l-31 -213q-6 -37 -43 -37q-20 0 -35 8q-14 8 -12 29l31 213q-193 16 -326 159q-27 29 0 66l64 82q14 18 33 20q20 2 30 -9q41 -43 107 -80q67 -38 118 -50l68 457q-154 74 -240 172q-87 98 -71 258q16 159 131 273t295 122
l10 66q2 16 13 27t26 11z" />
    <glyph glyph-name="percent" unicode="%" horiz-adv-x="1249" 
d="M764 242q0 -53 24 -85t65 -32q42 0 79 44t37 97t-24 85q-23 32 -65 32t-79 -44t-37 -97zM844 -20q-106 0 -168 70t-62 184t84 206t190 92t168 -69t62 -185t-84 -207t-190 -91zM384 1047q42 0 79 44t37 97t-24 85t-66 32t-78 -44q-37 -43 -37 -97t23 -86q24 -31 66 -31z
M1083 1434q19 0 27 -18t-4 -38l-827 -1358q-10 -20 -33 -20h-80q-20 0 -28 17q-7 18 5 38l824 1358q14 20 32 21h84zM376 901q-106 0 -168 70q-62 71 -62 185t83 206t189 92t168 -70t63 -186q0 -116 -84 -206q-83 -91 -189 -91z" />
    <glyph glyph-name="ampersand" unicode="&#x26;" horiz-adv-x="1273" 
d="M489 154q176 0 287 149l-246 352q-2 -1 -40 -29q-38 -27 -77 -67q-96 -97 -96 -220q1 -81 49 -133t123 -52zM821 1146q0 58 -39 104q-38 46 -106 46t-117 -50t-59 -126q-16 -109 59 -213l33 -45l29 21q29 20 41 30t42 34t46 43t44 59q28 39 27 97zM119 311q0 181 137 318
q43 43 71 63q27 20 67 47t44 31v4l-35 51q-109 156 -91 292q18 137 122 237t273 100q129 0 213 -85t84 -204q0 -148 -135 -277q-62 -60 -124 -105q-61 -46 -63 -46l205 -284q86 127 121 305q10 59 61 49l92 -19q33 -6 21 -63q-27 -109 -80 -221t-103 -182l152 -197
q37 -49 -10 -80l-68 -45q-45 -33 -74 8l-116 164q-164 -193 -428 -192q-152 0 -244 96t-92 235z" />
    <glyph glyph-name="quotesingle" unicode="'" horiz-adv-x="333" 
d="M182 1026q-14 0 -22 11t-6 28l47 330q2 14 13 26t26 13h125q18 0 25 -14t-1 -38l-113 -325q-12 -31 -36 -31h-58z" />
    <glyph glyph-name="parenleft" unicode="(" horiz-adv-x="663" 
d="M106 397q0 663 264 914q140 135 320 143q35 4 31 -27l-8 -96q-2 -33 -27 -37q-381 -88 -381 -872q0 -367 199 -428q23 -8 16 -37l-18 -90q-6 -31 -39 -27q-137 6 -247 154t-110 403z" />
    <glyph glyph-name="parenright" unicode=")" horiz-adv-x="665" 
d="M383 860q0 381 -201 436q-23 4 -16 37l20 94q6 29 37 27q143 -10 249 -150t108 -438q0 -227 -35 -407q-64 -330 -214 -475q-150 -144 -335 -144q-31 0 -29 33l6 90q4 29 27 35q383 94 383 862z" />
    <glyph glyph-name="asterisk" unicode="*" horiz-adv-x="659" 
d="M338 803q-37 0 -29 39l27 174l-146 -101q-29 -19 -45 11l-24 41q-20 35 8 51l174 100l-135 101q-10 8 -11 25t9 28l35 39q25 29 47 10l119 -100l20 174q4 39 39 39h49q15 0 23 -12t6 -27l-29 -174l148 104q10 8 24 4t21 -16l20 -39q18 -31 -12 -51l-168 -105l135 -102
q12 -8 13 -26t-9 -27l-35 -39q-29 -33 -49 -13l-117 103l-20 -172q-2 -14 -14 -26t-27 -13h-47z" />
    <glyph glyph-name="plus" unicode="+" horiz-adv-x="1132" 
d="M215 627q-14 0 -22 12t-7 27l11 86q4 39 41 39h274l43 317q2 14 14 26t27 11h102q14 0 24 -11t7 -26l-45 -317h274q14 1 22 -11t7 -28l-12 -86q-2 -16 -13 -28t-26 -11h-274l-46 -314q-2 -14 -13 -25t-25 -12h-105q-33 0 -29 37l43 314h-272z" />
    <glyph glyph-name="comma" unicode="," horiz-adv-x="491" 
d="M137 -20q-38 0 -72 36t-34 93q0 59 50 107q49 48 111 48t104 -43t42 -135q0 -156 -82 -274t-174 -185q-27 -25 -45 0l-23 31q-18 23 11 47q162 135 182 283q-32 -8 -70 -8z" />
    <glyph glyph-name="hyphen" unicode="-" horiz-adv-x="751" 
d="M152 422q-35 0 -31 37l12 88q6 39 41 39h404q37 0 30 -39l-12 -88q-4 -37 -41 -37h-403z" />
    <glyph glyph-name="period" unicode="." horiz-adv-x="462" 
d="M311 132q0 -60 -48 -106t-106 -46t-91 36t-33 94q0 60 48 107t104 47t91 -36t35 -96z" />
    <glyph glyph-name="slash" unicode="/" horiz-adv-x="659" 
d="M27 0q-18 0 -27 14q-8 14 0 37l553 1356q12 27 37 27h106q18 0 26 -14t1 -38l-551 -1355q-12 -27 -37 -27h-108z" />
    <glyph glyph-name="zero" unicode="0" horiz-adv-x="1210" 
d="M549 168q154 0 246 194t92 504q0 168 -49 264t-140 97q-158 0 -250 -194t-92 -505q0 -168 50 -264t143 -96zM522 -20q-178 0 -276 152t-99 390q0 408 153 650t425 243q176 1 274 -149t99 -392q0 -408 -154 -651t-422 -243z" />
    <glyph glyph-name="one" unicode="1" horiz-adv-x="675" 
d="M563 1393q15 1 23 -11t6 -28l-186 -1315q-2 -15 -14 -27t-25 -12h-131q-14 0 -24 11q-9 12 -7 28l147 1038l-166 -76q-33 -14 -36 15l-7 82q-4 29 13 41l299 254h108z" />
    <glyph glyph-name="two" unicode="2" horiz-adv-x="989" 
d="M35 0q-33 0 -29 39l6 53l563 619q164 178 164 323q0 78 -45 134q-44 56 -122 56t-145 -45q-67 -46 -110 -96q-25 -31 -55 0l-65 74q-27 29 -2 57q109 131 261 179q62 20 126 20q166 0 262 -100q96 -101 96 -239t-50 -238t-161 -224l-389 -436h438q14 0 22 -11t7 -28
l-12 -98q-3 -15 -15 -27t-26 -12h-719z" />
    <glyph glyph-name="three" unicode="3" horiz-adv-x="1009" 
d="M416 158q90 0 163 68t73 166t-64 160q-63 62 -180 62h-103q-35 0 -29 43l13 88q6 43 41 43h104q131 0 206 74t75 170t-47 144t-133 49q-86 0 -207 -115q-29 -29 -52 -2l-65 78q-23 28 -1 56q60 76 169 123q108 48 196 48q150 0 250 -91q101 -90 101 -228t-75 -236
t-165 -141v-6q66 -33 122 -115t56 -186q0 -182 -128 -306t-335 -124q-139 0 -236 60t-134 122q-16 27 10 49l84 68q27 25 53 -9t87 -74q61 -38 151 -38z" />
    <glyph glyph-name="four" unicode="4" horiz-adv-x="1116" 
d="M244 475h409l82 567h-4zM35 305q-14 0 -24 11q-9 11 -5 28l17 123l806 936q12 12 29 12h82q14 0 22 -11t7 -28l-127 -905h149q13 0 23 -10t6 -27l-12 -86q-2 -16 -14 -27t-25 -12h-150l-35 -270q-8 -39 -41 -39h-129q-14 0 -22 12t-6 27l37 266h-588z" />
    <glyph glyph-name="five" unicode="5" horiz-adv-x="1015" 
d="M438 162q123 0 201 98t78 210t-54 176q-54 62 -155 63h-275q-31 -1 -45 21t-10 50l82 574q2 16 13 27t26 12h575q14 1 24 -11t7 -28l-14 -101q-2 -16 -14 -27t-27 -12h-426l-45 -325h174q168 -1 268 -107q101 -106 101 -304t-138 -348t-349 -150q-210 0 -335 130
q-25 25 -41 52t11 49l84 68q28 25 52 -9t88 -70q64 -38 144 -38z" />
    <glyph glyph-name="six" unicode="6" horiz-adv-x="1040" 
d="M486 156q120 0 197 94t77 214t-54 190t-150 69q-96 0 -166 -50q-71 -50 -95 -95q-35 -150 18 -286t173 -136zM94 434q0 188 59 349q58 161 142 267q85 106 193 192q172 135 358 196q35 12 45 -25l24 -90q10 -39 -38 -57q-68 -29 -152 -75t-197 -145t-157 -206
q97 53 237 53t241 -101t101 -282q0 -225 -134 -378t-337 -152q-173 0 -279 132q-106 134 -106 322z" />
    <glyph glyph-name="seven" unicode="7" horiz-adv-x="913" 
d="M184 1212q-14 0 -22 12t-6 27l14 103q2 14 14 26t27 13h758q14 1 23 -11t7 -28l-4 -33l-737 -1284q-20 -37 -53 -37h-123q-14 0 -25 9q-10 10 -8 22l4 32l670 1149h-539z" />
    <glyph glyph-name="eight" unicode="8" horiz-adv-x="1093" 
d="M297 344q0 -90 54 -143t144 -53t167 68q76 69 75 179q0 75 -50 139t-136 80q-113 -18 -183 -99t-71 -171zM630 1239q-81 0 -150 -67t-68 -160q0 -168 166 -201q104 23 165 91t61 154q0 85 -46 134q-47 49 -128 49zM82 322q0 98 57 189t113 135t106 71v6q-57 37 -103 110
t-46 166q0 182 128 298t320 116q152 0 253 -91q102 -90 102 -226t-74 -232t-164 -143l-2 -8q66 -35 122 -117t56 -184q0 -184 -131 -308t-356 -124q-164 0 -273 98q-108 99 -108 244z" />
    <glyph glyph-name="nine" unicode="9" horiz-adv-x="1038" 
d="M317 941q1 -119 55 -189t149 -70t166 50t95 95q35 150 -18 286t-173 136t-197 -94t-77 -214zM469 512q-140 0 -241 101t-101 282q0 225 134 378t337 152q174 0 280 -133t105 -321q0 -188 -58 -349q-59 -162 -143 -268t-192 -191q-172 -135 -359 -196q-35 -12 -45 25
l-24 90q-10 39 39 57q67 29 151 75t197 145t158 206q-98 -53 -238 -53z" />
    <glyph glyph-name="colon" unicode=":" horiz-adv-x="495" 
d="M171 -20q-52 0 -83 34t-31 87q0 55 44 99q45 44 97 44t82 -33t30 -88t-44 -99q-43 -44 -95 -44zM255 575q-52 0 -83 34t-31 88q0 55 44 99q45 44 97 44t82 -33t30 -88t-44 -99q-43 -44 -95 -45z" />
    <glyph glyph-name="semicolon" unicode=";" horiz-adv-x="503" 
d="M158 -20q-41 0 -71 32t-30 84q0 51 43 94q42 43 96 43q54 1 90 -37t36 -120q0 -215 -220 -420q-27 -25 -45 -2l-22 31q-18 23 10 47l31 27q110 96 129 227q-6 -6 -47 -6zM137 697q0 55 44 99q45 44 97 44t82 -33t29 -88q0 -55 -43 -99t-95 -45q-52 0 -83 34t-31 88z" />
    <glyph glyph-name="less" unicode="&#x3c;" horiz-adv-x="819" 
d="M43 430q-18 11 -14 39t24 41l701 436q16 10 30 1t13 -29l-17 -121q-4 -25 -22 -37l-467 -295v-2l385 -283q18 -14 14 -39l-16 -104q-2 -25 -20 -33t-31 4z" />
    <glyph glyph-name="equal" unicode="=" horiz-adv-x="962" 
d="M145 272q-14 0 -24 12t-6 27l14 90q8 39 39 39h586q14 0 24 -11t6 -28l-14 -90q-8 -39 -39 -39h-586zM207 702q-15 0 -25 12t-6 27l14 90q8 39 39 39h586q15 0 25 -11t6 -28l-15 -90q-8 -39 -38 -39h-586z" />
    <glyph glyph-name="greater" unicode="&#x3e;" horiz-adv-x="819" 
d="M-2 35l12 127q2 23 23 35l461 284v4l-379 291q-14 12 -13 31l17 111q2 24 18 32t33 -4l578 -436q18 -14 14 -33l-4 -18q-2 -16 -21 -29l-698 -420q-18 -10 -31 -3q-12 8 -10 28z" />
    <glyph glyph-name="question" unicode="?" horiz-adv-x="880" 
d="M201 110q0 60 48 107t105 47t91 -36t34 -96t-48 -106q-47 -46 -105 -46t-92 35q-33 35 -33 95zM340 557q-33 0 -29 39l11 86q12 90 65 150t135 117t114 97t32 97t-38 93t-91 36q-123 0 -244 -139q-20 -27 -49 0l-70 65q-29 27 -2 57q166 199 389 199q129 0 216 -86
t87 -213t-75 -209q-54 -60 -160 -132q-105 -71 -115 -140l-10 -76q-6 -41 -43 -41h-123z" />
    <glyph glyph-name="at" unicode="@" horiz-adv-x="1855" 
d="M829 156q74 0 129 72t76 171l21 170q-22 36 -64 65q-43 28 -86 28q-90 0 -145 -92t-55 -226q4 -188 124 -188zM57 350q0 294 122 550q122 258 351 406q230 148 536 148t503 -207t196 -518q0 -267 -111 -493q-56 -115 -156 -186t-232 -70q-164 0 -195 159h-10
q-41 -67 -116 -113t-157 -46q-124 0 -200 101t-76 255q0 219 120 361t283 143q127 0 203 -113l29 59q14 33 45 33h47q13 0 23 -11t8 -28l-58 -405q-18 -133 6 -183t80 -51q117 0 201 164t84 412q0 249 -137 411t-397 162q-357 0 -585 -264t-228 -686q0 -217 97 -388
t263 -255q29 -16 12 -51l-51 -92q-16 -31 -43 -19q-207 93 -332 307t-125 508z" />
    <glyph glyph-name="A" unicode="A" horiz-adv-x="1234" 
d="M399 487h430l-133 564h-8zM-35 0q-20 0 -27 16t3 37l761 1379q10 23 35 22h19q20 0 28 -22l371 -1379q4 -21 -7 -37t-32 -16h-123q-37 0 -43 31l-73 284h-564l-157 -284q-18 -31 -52 -31h-139z" />
    <glyph glyph-name="B" unicode="B" horiz-adv-x="1181" 
d="M596 188q92 0 160 72t68 164t-54 147q-53 55 -129 56h-229l-64 -439h248zM623 811q102 0 179 79t77 167t-42 136t-112 48h-227l-60 -430h185zM350 1434h418q146 0 240 -94t94 -230q0 -135 -74 -233t-170 -152q76 -37 133 -109t58 -178q0 -188 -130 -313t-331 -125h-438
q-14 0 -24 11q-9 12 -7 28l190 1356q8 39 41 39z" />
    <glyph glyph-name="C" unicode="C" horiz-adv-x="1310" 
d="M117 635q0 344 227 582t549 237q248 0 420 -190q25 -27 -6 -58l-84 -76q-31 -31 -64 3q-49 51 -124 85t-154 33q-209 0 -371 -187t-162 -429q0 -188 99 -313t259 -125t326 133q33 29 58 -2l81 -95q7 -10 5 -27t-13 -28q-213 -198 -468 -198t-417 186t-161 469z" />
    <glyph glyph-name="D" unicode="D" horiz-adv-x="1406" 
d="M578 195q218 0 372 175t154 431q0 190 -104 314t-275 124h-229l-148 -1044h230zM776 1434q238 0 396 -184t159 -441q0 -337 -219 -573t-537 -236h-430q-14 0 -22 12t-4 27l190 1356q1 14 13 26t26 13h428z" />
    <glyph glyph-name="E" unicode="E" horiz-adv-x="1118" 
d="M1092 1434q33 0 28 -39l-16 -115q-2 -16 -13 -28t-26 -11h-567l-60 -418h477q15 0 23 -11t6 -28l-16 -114q-6 -39 -39 -39h-477l-62 -441h568q14 0 22 -11t6 -27l-16 -113q-2 -15 -14 -27t-27 -12h-742q-14 0 -23 12t-5 27l190 1356q1 14 13 26t26 13h744z" />
    <glyph glyph-name="F" unicode="F" horiz-adv-x="1075" 
d="M1092 1434q33 0 28 -39l-16 -115q-2 -16 -13 -28t-26 -11h-567l-66 -473h475q15 0 23 -11t6 -28l-14 -113q-2 -14 -14 -26t-27 -12h-478l-75 -539q-2 -15 -14 -27t-25 -12h-142q-14 0 -23 12t-5 27l190 1356q1 14 13 26t26 13h744z" />
    <glyph glyph-name="G" unicode="G" horiz-adv-x="1363" 
d="M117 616q0 358 225 598t551 240q248 0 420 -190q25 -27 -6 -58l-82 -78q-31 -31 -64 2q-49 50 -125 86t-155 35q-209 0 -370 -182t-161 -424q0 -190 102 -322q102 -133 254 -133q154 0 279 68l33 229h-168q-14 1 -24 11t-5 26l17 119q4 39 41 39h342q29 0 28 -35
l-67 -500q-4 -20 -24 -33t-62 -36t-165 -61q-124 -38 -243 -37q-248 0 -410 184t-161 452z" />
    <glyph glyph-name="H" unicode="H" horiz-adv-x="1456" 
d="M350 1434h144q14 0 23 -12t7 -27l-82 -572h643l80 572q8 39 41 39h144q14 0 22 -12t6 -27l-190 -1356q-2 -15 -13 -27t-26 -12h-143q-14 0 -24 11q-9 11 -7 28l84 592h-643l-84 -592q-2 -15 -14 -27t-25 -12h-143q-14 0 -24 11q-9 12 -7 28l190 1356q8 39 41 39z" />
    <glyph glyph-name="I" unicode="I" horiz-adv-x="598" 
d="M492 1434q14 0 22 -12t6 -27l-190 -1356q-2 -15 -14 -27t-25 -12h-144q-14 0 -22 12t-6 27l190 1356q1 14 13 26t26 13h144z" />
    <glyph glyph-name="J" unicode="J" horiz-adv-x="804" 
d="M196 168q82 0 141 66q60 66 77 192l135 969q2 16 14 27t27 12h143q13 0 23 -12t6 -27l-135 -967q-61 -449 -428 -448q-104 0 -179 50q-140 96 -86 150l66 64q31 31 57 -4q57 -72 139 -72z" />
    <glyph glyph-name="K" unicode="K" horiz-adv-x="1218" 
d="M489 1434q17 0 29 -14t10 -36l-79 -567l559 590q23 27 55 27h164q25 0 31 -25t-15 -47l-604 -623l451 -671q14 -20 3 -44t-40 -24h-148q-33 0 -51 27l-424 659l-90 -637q-4 -21 -18 -35t-33 -14h-129q-18 0 -30 14q-11 15 -9 35l188 1335q8 49 51 50h129z" />
    <glyph glyph-name="L" unicode="L" horiz-adv-x="937" 
d="M494 1434q14 0 23 -12t7 -27l-170 -1205h486q14 0 23 -11t7 -27l-16 -113q-2 -15 -14 -27t-27 -12h-663q-14 0 -24 11q-9 12 -7 28l190 1356q3 16 15 27t26 12h144z" />
    <glyph glyph-name="M" unicode="M" horiz-adv-x="1636" 
d="M717 -20q-25 0 -29 22l-199 913h-8l-245 -882q-8 -33 -39 -33h-140q-42 0 -28 47l417 1376q8 31 37 31h29q25 0 29 -22l245 -1026h7l542 1026q12 23 35 22h29q10 0 19 -9t9 -22l29 -1376q0 -47 -39 -47h-139q-33 0 -33 41l12 874h-6l-467 -913q-10 -23 -34 -22h-33z" />
    <glyph glyph-name="N" unicode="N" horiz-adv-x="1468" 
d="M1360 1434q14 0 23 -12t8 -27l-195 -1379q-2 -14 -14 -25t-27 -11h-57l-641 1038h-2l-127 -979q-2 -15 -14 -27t-27 -12h-137q-14 0 -24 11q-9 12 -7 28l194 1378q3 13 15 25t26 12h52l641 -1022h4l129 963q2 16 13 27t26 12h141z" />
    <glyph glyph-name="O" unicode="O" horiz-adv-x="1529" 
d="M330 641q0 -190 107 -324q108 -133 274 -133q209 0 369 180t161 422q0 193 -107 328q-108 135 -274 135q-206 0 -368 -182t-162 -426zM115 614q0 354 224 597t548 243q245 0 407 -188t162 -453q0 -352 -225 -593t-547 -240q-246 0 -408 187q-161 187 -161 447z" />
    <glyph glyph-name="P" unicode="P" horiz-adv-x="1128" 
d="M662 721q100 0 176 88q76 87 76 193t-51 166q-50 60 -130 61h-235l-72 -508h236zM776 1434q152 0 253 -118t101 -278q0 -210 -142 -364t-339 -154h-250l-67 -481q-2 -15 -16 -27t-29 -12h-137q-14 0 -24 11q-9 12 -7 28l190 1356q3 16 15 27t26 12h426z" />
    <glyph glyph-name="Q" unicode="Q" horiz-adv-x="1529" 
d="M330 641q0 -190 107 -324q108 -133 274 -133q209 0 369 180t161 422q0 193 -107 328q-108 135 -274 135q-206 0 -368 -182t-162 -426zM115 614q0 352 228 596t546 244q243 0 405 -189t162 -449t-130 -470q-130 -211 -339 -303l172 -391q8 -20 -3 -38t-34 -20h-151
q-31 0 -43 31l-142 363q-43 -8 -104 -8q-244 0 -406 188q-161 188 -161 446z" />
    <glyph glyph-name="R" unicode="R" horiz-adv-x="1265" 
d="M743 739q94 0 170 85q76 86 76 186t-51 162t-125 63h-313l-70 -496h313zM860 1434q146 0 246 -114t100 -274t-94 -291q-94 -132 -246 -175l183 -523q8 -21 -1 -39t-32 -18h-154q-29 0 -39 29l-151 530h-271l-73 -520q-2 -15 -14 -27t-25 -12h-142q-14 0 -23 12t-5 27
l190 1356q1 14 13 26t26 13h512z" />
    <glyph glyph-name="S" unicode="S" horiz-adv-x="1030" 
d="M455 166q95 0 163 63t68 147t-53 139q-53 56 -177 131t-200 169q-76 95 -76 241t122 272t326 126t347 -119q33 -29 2 -69l-55 -74q-35 -45 -79 -6q-23 22 -89 50t-148 28t-149 -67q-66 -67 -66 -139t47 -126q48 -53 176 -126t216 -168t88 -239q0 -186 -130 -303
t-344 -116q-98 0 -188 36t-126 66t-65 61q-28 31 -2 64l64 78q33 39 70 6q133 -125 258 -125z" />
    <glyph glyph-name="T" unicode="T" horiz-adv-x="915" 
d="M150 1241q-33 0 -29 39l16 115q1 14 13 26t26 13h799q33 0 29 -39l-17 -115q-2 -16 -13 -28t-26 -11h-293l-168 -1202q-2 -15 -14 -27t-27 -12h-143q-13 0 -23 12t-8 27l170 1202h-292z" />
    <glyph glyph-name="U" unicode="U" horiz-adv-x="1368" 
d="M334 1434h147q13 0 23 -12t6 -27l-119 -846q-23 -156 43 -259q66 -104 196 -104t224 102t117 257l121 850q2 14 13 26t25 13h148q14 0 22 -12t7 -27l-121 -860q-33 -240 -193 -398q-160 -157 -379 -157t-347 162t-95 393l121 860q8 39 41 39z" />
    <glyph glyph-name="V" unicode="V" horiz-adv-x="1236" 
d="M309 1434q25 0 29 -23l240 -975h12l526 975q14 23 35 23h162q20 0 26 -16t-4 -38l-762 -1378q-12 -23 -34 -22h-19q-18 -1 -26 22l-373 1382q-10 48 33 50h155z" />
    <glyph glyph-name="W" unicode="W" horiz-adv-x="1683" 
d="M365 1434q27 0 30 -29l80 -899h8l432 926q10 23 35 22h33q25 0 29 -22l164 -926h8l334 899q12 29 36 29h148q20 0 28 -14t-1 -36l-543 -1376q-10 -29 -37 -28h-29q-25 0 -30 26l-183 959h-8l-465 -963q-10 -23 -35 -22h-28q-27 -1 -31 28l-154 1376q-2 20 10 34t29 16
h140z" />
    <glyph glyph-name="X" unicode="X" horiz-adv-x="1169" 
d="M25 0q-25 0 -32 16t7 37l483 686l-280 645q-8 20 2 34t33 16h161q23 0 31 -25l193 -485h2l340 491q14 18 32 19h177q22 0 28 -16t-8 -36l-461 -651l291 -678q8 -21 -3 -37t-34 -16h-149q-23 0 -29 18l-219 529h-4l-361 -529q-10 -18 -35 -18h-165z" />
    <glyph glyph-name="Y" unicode="Y" horiz-adv-x="1073" 
d="M291 1434q25 0 35 -23l239 -520h4l394 520q18 23 41 23h161q23 0 28 -16t-9 -38l-529 -688l-92 -653q-2 -15 -14 -27t-27 -12h-141q-14 0 -24 11q-9 12 -7 28l92 651l-331 690q-8 20 3 36t31 18h146z" />
    <glyph glyph-name="Z" unicode="Z" horiz-adv-x="1017" 
d="M18 0q-14 0 -22 11t-6 28l4 37l747 1155v6h-495q-14 0 -23 11q-8 11 -6 28l16 119q3 14 15 26t26 13h762q14 0 22 -12t7 -27l-4 -27l-742 -1167v-6h506q33 0 29 -39l-16 -117q-2 -15 -14 -27t-27 -12h-779z" />
    <glyph glyph-name="bracketleft" unicode="[" horiz-adv-x="653" 
d="M432 -449q14 0 24 -11t7 -25l-12 -90q-3 -15 -15 -27t-26 -12h-396q-14 0 -23 11t-7 28l278 1970q2 14 13 26t26 13h397q14 0 22 -12t7 -27l-12 -90q-3 -15 -15 -27t-26 -12h-244l-242 -1715h244z" />
    <glyph glyph-name="backslash" unicode="\" horiz-adv-x="655" 
d="M309 1434q27 0 31 -27l170 -1356q2 -19 -10 -35t-31 -16h-113q-24 0 -28 27l-168 1355q-2 20 9 36t30 16h110z" />
    <glyph glyph-name="bracketright" unicode="]" horiz-adv-x="655" 
d="M-63 -449h241l242 1715h-242q-14 0 -22 11t-6 28l12 90q2 14 13 26t26 13h397q14 0 22 -12t7 -27l-277 -1970q-8 -39 -41 -39h-395q-14 0 -24 12q-9 12 -7 27l15 90q8 36 39 36z" />
    <glyph glyph-name="asciicircum" unicode="^" horiz-adv-x="966" 
d="M129 801q-23 0 -30 16t10 35l464 590q16 20 35 20h10q20 0 29 -20l289 -590q10 -20 -1 -36t-34 -15h-102q-20 0 -29 20l-182 383h-8l-293 -383q-16 -20 -35 -20h-123z" />
    <glyph glyph-name="underscore" unicode="_" horiz-adv-x="759" 
d="M-4 -20h604q14 0 22 -12t7 -27l-8 -58q-4 -37 -41 -37h-603q-35 0 -30 37l8 58q6 39 41 39z" />
    <glyph glyph-name="grave" unicode="`" horiz-adv-x="557" 
d="M469 1118l-287 144q-35 16 -12 53l53 84q18 27 49 6l269 -186q23 -12 6 -39l-31 -54q-14 -24 -47 -8z" />
    <glyph glyph-name="a" unicode="a" 
d="M453 662q-97 0 -153 -88t-56 -196q0 -110 41 -166t99 -56t115 37t83 90l34 286q-6 9 -18 25t-55 42t-90 26zM696 0h-67q-25 0 -27 29l-6 61q-111 -110 -245 -110t-218 108t-84 285q0 176 122 321t290 146q55 0 118 -28t99 -73l27 52q14 29 38 28h62q15 1 23 -11t6 -28
l-97 -741q-2 -15 -14 -27t-27 -12z" />
    <glyph glyph-name="b" unicode="b" horiz-adv-x="942" 
d="M432 156q92 0 158 89t66 193t-46 163q-45 61 -122 61t-136 -37l-20 -13l-45 -317q2 -35 40 -87t105 -52zM416 1434q14 0 22 -12t6 -27l-84 -600q90 45 175 45q133 0 223 -108t90 -261q0 -201 -121 -346t-295 -145q-66 0 -121 28t-78 58l-22 28l-25 -59q-14 -35 -39 -35
h-61q-14 0 -23 12q-8 13 -6 27l191 1356q2 14 13 26t26 13h129z" />
    <glyph glyph-name="c" unicode="c" horiz-adv-x="825" 
d="M49 350q0 203 136 346t319 144q82 0 148 -40t102 -106q18 -33 -15 -57l-73 -51q-29 -18 -48 8q-53 68 -138 68q-86 0 -160 -90t-74 -196t42 -163t113 -57q39 0 76 20t51 36t41 50q23 25 47 4l74 -57q31 -25 4 -57q-127 -172 -311 -172q-139 0 -237 106q-97 106 -97 264z
" />
    <glyph glyph-name="d" unicode="d" horiz-adv-x="942" 
d="M397 156q45 0 99 36t86 91l43 331q-51 48 -147 48t-165 -88t-69 -192q0 -106 40 -166t113 -60zM351 -20q-134 0 -218 106t-84 258q0 209 128 352t308 144q84 0 162 -47l84 602q6 39 49 39h117q13 0 23 -12t8 -27l-191 -1356q-8 -39 -41 -39h-61q-20 0 -27 29l-12 61
q-111 -110 -245 -110z" />
    <glyph glyph-name="e" unicode="e" horiz-adv-x="843" 
d="M596 596q0 38 -33 62t-78 24q-83 0 -141 -51t-76 -131q328 -29 328 96zM49 346q0 201 128 347t329 147q118 0 196 -62t78 -158t-54 -153t-136 -79q-198 -53 -352 -26q-8 -88 34 -149t125 -61q82 0 166 57q35 23 49 2l56 -76q23 -29 -11 -53q-127 -102 -280 -102t-241 105
q-87 105 -87 261z" />
    <glyph glyph-name="f" unicode="f" horiz-adv-x="655" 
d="M106 649q-14 0 -23 11t-7 28l14 92q2 16 13 28t26 11h96l37 254q27 185 128 283q102 98 242 98t212 -82q18 -23 0 -47l-56 -86q-18 -29 -45 -10q-55 41 -116 41q-135 0 -164 -197l-37 -254h195q14 0 22 -11t6 -28l-12 -92q-8 -39 -41 -39h-193l-170 -1224q-2 -15 -14 -27
t-26 -12h-132q-14 0 -22 12t-6 27l170 1224h-97z" />
    <glyph glyph-name="g" unicode="g" horiz-adv-x="942" 
d="M463 662q-96 0 -162 -88q-65 -88 -65 -191t46 -165t124 -62q79 0 139 43l18 14l49 342q-6 27 -46 67t-103 40zM352 -20q-131 0 -218 112t-87 264q0 193 123 338t295 146q55 0 118 -28t99 -73l27 52q14 29 39 28h61q31 0 29 -39l-117 -858q-61 -455 -399 -454
q-136 0 -222 74q-58 53 -79 89q-21 37 10 64l65 59q27 22 48 0q20 -22 28 -32q59 -74 145 -74t133 59q46 59 70 215l15 101q-20 -11 -73 -27t-110 -16z" />
    <glyph glyph-name="h" unicode="h" horiz-adv-x="976" 
d="M416 1434q14 0 22 -12t6 -27l-90 -643q113 88 224 88q154 0 220 -108t42 -281l-58 -412q-2 -15 -14 -27t-27 -12h-123q-33 0 -28 39l57 412q14 100 -17 154q-32 54 -100 54t-124 -45t-82 -86l-70 -489q-6 -39 -43 -39h-125q-14 0 -23 11q-8 12 -6 28l191 1356q2 14 13 26
t26 13h129z" />
    <glyph glyph-name="i" unicode="i" horiz-adv-x="458" 
d="M201 819h127q14 0 22 -11t6 -28l-104 -741q-2 -15 -14 -27t-27 -12h-125q-14 0 -23 11q-8 12 -6 28l103 741q2 14 14 26t27 13zM313 1153q-49 0 -75 31q-26 32 -27 80q0 48 39 88t88 41q49 0 78 -31q28 -31 28 -81t-41 -89t-90 -39z" />
    <glyph glyph-name="j" unicode="j" horiz-adv-x="460" 
d="M203 819h127q14 0 23 -11t7 -28l-145 -1034q-25 -186 -124 -284t-241 -97q-142 0 -219 82q-20 20 0 47l52 76q23 33 51 10q45 -37 114 -37q137 0 168 203l146 1034q2 16 14 28t27 11zM317 1153q-49 0 -77 30q-28 29 -27 79q0 50 39 90t88 41q49 0 78 -31q28 -31 28 -81
t-40 -89t-89 -39z" />
    <glyph glyph-name="k" unicode="k" horiz-adv-x="901" 
d="M416 1434q14 0 22 -12t6 -27l-122 -887l296 287q29 25 54 24h162q24 0 26 -20t-12 -35l-346 -324l297 -387q12 -13 3 -33t-32 -20h-158q-18 0 -30 16l-277 381l-51 -358q-2 -15 -13 -27t-26 -12h-129q-14 0 -23 11q-8 12 -6 28l191 1356q2 14 13 26t26 13h129z" />
    <glyph glyph-name="l" unicode="l" horiz-adv-x="456" 
d="M414 1434q14 0 22 -12t6 -27l-190 -1356q-2 -15 -13 -27t-26 -12h-127q-14 0 -23 11q-8 12 -6 28l191 1356q2 14 14 26t27 13h125z" />
    <glyph glyph-name="m" unicode="m" horiz-adv-x="1458" 
d="M201 819h59q25 0 29 -24l12 -70q115 115 263 115t218 -129q152 129 283 129q162 0 220 -108t36 -281l-57 -412q-4 -39 -41 -39h-121q-35 0 -31 39l57 418q29 205 -114 205q-109 0 -195 -103q0 -43 -8 -98l-57 -422q-8 -39 -41 -39h-115q-14 0 -24 11q-9 11 -5 28l58 418
q29 205 -117 205q-66 0 -116 -41t-72 -78l-72 -504q-8 -39 -41 -39h-123q-14 0 -23 12q-8 13 -6 27l103 741q4 39 41 39z" />
    <glyph glyph-name="n" unicode="n" horiz-adv-x="978" 
d="M201 819h61q23 0 27 -24l14 -70q127 115 282 115t216 -108t39 -281l-58 -412q-2 -15 -14 -27t-27 -12h-125q-33 0 -28 39l57 418q14 98 -15 151q-30 54 -100 54t-128 -42t-80 -77l-72 -504q-6 -39 -51 -39h-113q-14 0 -23 12q-8 13 -6 27l103 741q4 39 41 39z" />
    <glyph glyph-name="o" unicode="o" horiz-adv-x="903" 
d="M233 385q0 -105 45 -167t126 -62t151 87t70 191t-44 166t-126 62t-152 -86t-70 -191zM49 354q0 199 128 342t312 144q135 0 227 -110t93 -261q0 -201 -128 -345t-312 -144q-133 0 -227 110q-93 110 -93 264z" />
    <glyph glyph-name="p" unicode="p" 
d="M422 156q96 0 166 87t70 193t-42 165q-41 61 -99 61t-114 -31t-81 -72l-46 -342q50 -61 146 -61zM125 -614h-123q-14 0 -24 11q-9 11 -7 28l191 1355q4 39 41 39h63q23 0 29 -26l12 -54q27 29 95 65t149 36q133 0 216 -106t83 -263q0 -205 -125 -348t-303 -143
q-103 0 -166 49l-86 -604q-6 -39 -45 -39z" />
    <glyph glyph-name="q" unicode="q" horiz-adv-x="940" 
d="M401 156q43 0 84 14t60 29l20 14l49 346q-12 42 -58 72q-46 31 -91 31q-96 0 -162 -88q-65 -88 -65 -191t46 -165t117 -62zM49 346q0 201 122 347t296 147q55 0 118 -28t99 -73l27 52q14 29 39 28h61q15 0 23 -11t6 -28l-191 -1355q-2 -15 -14 -27t-27 -12h-125
q-39 0 -32 39l86 604q-74 -49 -191 -49t-207 106t-90 260z" />
    <glyph glyph-name="r" unicode="r" horiz-adv-x="647" 
d="M199 819h61q23 0 29 -28l14 -70q20 20 34 36t72 49q59 34 130 34t103 -22t11 -52l-57 -100q-18 -27 -53 -18t-62 9q-74 0 -157 -98l-74 -520q-4 -39 -62 -39h-102q-14 0 -23 11q-8 12 -6 28l103 741q4 39 39 39z" />
    <glyph glyph-name="s" unicode="s" horiz-adv-x="694" 
d="M380 670q-106 0 -106 -70q0 -30 23 -52t85 -58t98 -63q36 -26 68 -74t32 -107q0 -115 -83 -191t-229 -76t-239 84q-23 18 -4 43l47 78q20 27 45 11q78 -49 139 -49t91 21t30 57t-25 62q-26 26 -100 70t-121 98q-47 56 -47 145t75 165t214 76t223 -64q33 -25 8 -59
l-39 -70q-20 -33 -49 -16q-78 39 -136 39z" />
    <glyph glyph-name="t" unicode="t" horiz-adv-x="669" 
d="M102 649q-14 0 -24 11t-6 28l14 92q6 39 39 39h92l31 228q2 14 14 26t27 12l125 2q14 0 22 -11t6 -27l-32 -230h176q37 0 30 -39l-14 -92q-8 -39 -39 -39h-178l-55 -403q-12 -82 47 -82q39 0 106 37q31 16 39 -19l23 -92q8 -29 -20 -46q-29 -17 -101 -41t-129 -23
q-197 -1 -162 243l60 426h-91z" />
    <glyph glyph-name="u" unicode="u" horiz-adv-x="950" 
d="M336 -20q-154 0 -210 106t-34 281l58 413q8 39 40 39h125q13 0 23 -11t8 -28l-59 -418q-15 -98 17 -152t96 -54t122 50q57 50 68 79l67 495q4 39 48 39h112q13 0 23 -11t8 -28l-105 -741q-2 -15 -14 -27t-27 -12h-59q-20 0 -29 33l-12 59q-112 -112 -266 -112z" />
    <glyph glyph-name="v" unicode="v" horiz-adv-x="784" 
d="M86 819h111q23 0 30 -22l117 -469h2l260 471q12 20 39 20h119q20 0 26 -14t-6 -35l-440 -770q-16 -20 -35 -20h-8q-25 0 -29 20l-223 770q-6 20 5 34t32 15z" />
    <glyph glyph-name="w" unicode="w" horiz-adv-x="1159" 
d="M121 819h100q25 0 29 -24l61 -433h2l269 457q12 20 32 21h13q25 0 28 -21l125 -459h2l179 435q10 25 45 24h104q41 0 20 -49l-327 -770q-10 -20 -37 -20h-8q-25 0 -29 18l-147 526h-2l-308 -526q-10 -18 -32 -18h-9q-24 0 -28 20l-119 772q-2 20 8 34t29 13z" />
    <glyph glyph-name="x" unicode="x" horiz-adv-x="835" 
d="M10 0q-22 0 -28 17t10 38l291 365l-187 346q-10 20 0 36t35 17h113q35 0 47 -22l119 -246h2l178 246q16 23 51 22h137q23 0 28 -17t-11 -38l-283 -344l188 -367q10 -21 -1 -37t-33 -16h-111q-29 0 -41 25l-125 264h-2l-203 -273q-12 -16 -30 -16h-144z" />
    <glyph glyph-name="y" unicode="y" horiz-adv-x="870" 
d="M82 819h119q20 0 28 -22l150 -549h2l295 549q12 23 45 22h119q24 0 30 -16t-6 -37l-751 -1356q-12 -25 -35 -24h-129q-23 0 -29 14t6 37l330 606l-209 727q-6 20 4 34t31 15z" />
    <glyph glyph-name="z" unicode="z" horiz-adv-x="692" 
d="M23 0q-33 0 -27 59l377 580v6h-244q-31 0 -27 39l13 96q2 16 13 28t26 11h477q23 0 31 -17t-7 -38l-379 -586v-6h232q33 0 29 -39l-13 -94q-2 -15 -14 -27t-27 -12h-460z" />
    <glyph glyph-name="braceleft" unicode="{" horiz-adv-x="739" 
d="M102 -111l41 291q8 61 -27 101q-36 39 -79 49q-27 6 -23 37l13 82q4 25 26 31t50 22t63 52t41 77l41 295q49 337 278 464q113 60 250 64q35 0 33 -35l-8 -84q-2 -33 -29 -37q-125 -24 -214 -120t-112 -252l-34 -244q-27 -186 -189 -272l-2 -9q141 -74 115 -266l-35 -246
q-23 -155 39 -249t182 -119q27 -4 21 -37l-19 -84q-6 -35 -41 -35q-155 4 -280 125q-61 58 -90 162t-11 237z" />
    <glyph glyph-name="bar" unicode="|" horiz-adv-x="374" 
d="M317 1556h21q33 0 27 -38l-293 -2096q-2 -14 -14 -25t-27 -11h-19q-14 0 -23 11t-7 25l294 2096q2 16 14 27t27 11z" />
    <glyph glyph-name="braceright" unicode="}" horiz-adv-x="739" 
d="M248 -111l35 246q29 195 186 268l2 11q-69 46 -97 110t-16 158l35 244q23 156 -41 252t-182 120q-27 6 -18 37l18 84q8 35 41 35q155 -4 282 -123q62 -59 91 -165t8 -240l-43 -295q-8 -57 34 -97t76 -53q23 -10 21 -32l-12 -82q-4 -29 -41 -38t-84 -48t-56 -101l-41 -291
q-68 -485 -528 -524q-14 -2 -24 7t-9 28l6 84q2 33 31 37q125 27 214 121t112 247z" />
    <glyph glyph-name="asciitilde" unicode="~" horiz-adv-x="1040" 
d="M381 737q94 0 175 -77t132 -76q70 0 162 118q27 37 53 7l60 -70q23 -23 -2 -49q-89 -118 -202 -165q-46 -19 -89 -19q-106 0 -195 83q-68 68 -115 68q-78 0 -161 -119q-10 -14 -26 -16t-26 10l-65 70q-20 25 2 49q87 117 206 166q48 20 91 20z" />
    <glyph glyph-name="uni00A0" unicode="&#xa0;" horiz-adv-x="460" 
 />
    <glyph glyph-name="exclamdown" unicode="&#xa1;" horiz-adv-x="464" 
d="M164 262h49q12 0 21 -10t10 -23l-21 -571l-33 -233q-2 -15 -13 -27t-25 -12h-172q-14 0 -24 11q-9 11 -7 28l33 229l143 575q8 33 39 33zM391 708q1 -58 -49 -106q-50 -47 -106 -47t-91 36q-35 35 -35 95t50 107q49 47 105 47t91 -37t35 -95z" />
    <glyph glyph-name="cent" unicode="&#xa2;" horiz-adv-x="780" 
d="M465 662q-94 0 -169 -90q-74 -90 -74 -211q0 -120 63 -173l182 474h-2zM25 350q0 203 136 346t318 144q29 0 53 -6l33 86q14 37 47 26l21 -6q31 -8 16 -47l-35 -88q70 -35 115 -111q18 -33 -14 -57l-74 -51q-29 -18 -48 8t-42 41l-184 -479h10q39 0 76 20t51 36t41 50
q23 25 47 4l74 -57q31 -25 4 -57q-127 -172 -312 -172q-31 0 -57 6l-76 -199q-14 -37 -47 -27l-18 7q-31 12 -19 45l76 200q-86 43 -139 134t-53 204z" />
    <glyph glyph-name="sterling" unicode="&#xa3;" horiz-adv-x="942" 
d="M147 598q-37 0 -28 39l4 25q6 35 39 34h59q-18 154 -18 240q0 244 126 381t318 137q158 0 303 -145q25 -25 -4 -54l-78 -77q-29 -27 -51 -4q-88 96 -185 96t-162 -82t-64 -225q0 -57 13 -155t13 -112h240q16 0 24 -11t6 -26l-4 -26q-6 -35 -41 -35h-221q0 -86 -24 -207
t-64 -213h389q33 0 29 -39l-14 -100q-8 -39 -39 -39h-602q-14 0 -24 11q-9 12 -7 28l6 37q152 244 143 522h-82z" />
    <glyph glyph-name="currency" unicode="&#xa4;" horiz-adv-x="894" 
d="M442 551q43 0 76 37t41 92q4 55 -19 92q-24 37 -67 37t-76 -37t-39 -92t18 -92t66 -37zM174 342l-59 66q-10 8 -7 26t15 29l98 90q-37 121 41 258l-69 92q-9 11 -7 29t15 26l67 56q33 25 49 0l72 -90q121 72 217 2l96 92q25 25 50 -2l57 -66q23 -27 -6 -53l-96 -90
q37 -123 -37 -258l69 -90q20 -29 -8 -53l-67 -58q-29 -29 -48 -2l-73 92q-125 -74 -224 -4l-96 -92q-24 -25 -49 0z" />
    <glyph glyph-name="yen" unicode="&#xa5;" horiz-adv-x="1171" 
d="M221 248q-33 0 -26 49q8 49 38 49h213l21 148h-213q-31 0 -27 38l2 21q8 39 39 39h213l15 98l-332 690q-8 20 3 36t32 18h145q25 0 35 -23l239 -520h5l393 520q18 23 41 23h162q23 0 27 -16t-9 -38l-528 -688l-15 -100h211q13 0 23 -11t8 -28l-4 -23q-2 -14 -13 -25
t-26 -11h-213l-21 -148h211q14 0 24 -11t7 -28l-4 -22q-4 -37 -39 -37h-213l-29 -209q-2 -15 -14 -27t-27 -12h-141q-14 0 -23 11t-8 28l29 209h-211z" />
    <glyph glyph-name="brokenbar" unicode="&#xa6;" horiz-adv-x="681" 
d="M274 139h23q33 0 27 -39l-95 -678q-8 -37 -41 -36h-18q-14 0 -24 11q-9 11 -7 25l97 678q2 16 13 28t25 11zM369 803q-14 0 -24 11q-9 11 -7 26l96 678q2 16 14 27t27 11h21q33 0 26 -38l-94 -678q-8 -37 -41 -37h-18z" />
    <glyph glyph-name="section" unicode="&#xa7;" horiz-adv-x="980" 
d="M279 518q0 -56 29 -97q29 -42 76 -71q46 -30 161 -100q12 6 32 21q19 15 51 67t32 119t-56 117q-55 50 -180 118q-20 14 -41 23q-104 -64 -104 -197zM358 -330q68 0 126 42t78 125t-32 152q-51 69 -176 136q-276 141 -276 364q0 82 38 155t72 106q35 33 68 53
q-33 27 -66 91q-32 64 -32 145q0 79 26 149t74 130q49 60 136 98t198 38q176 0 340 -119q27 -27 4 -65l-57 -76q-27 -35 -64 -10q-135 90 -237 90t-158 -60q-57 -60 -58 -131q0 -125 189 -219q156 -78 242 -164t86 -215q0 -81 -40 -157q-63 -121 -145 -170q31 -26 66 -94
t35 -162q0 -178 -129 -296t-330 -118q-90 0 -177 37t-124 67t-65 58q-28 29 3 67l54 72q29 41 65 10l28 -24q83 -73 189 -100q25 -5 49 -5z" />
    <glyph glyph-name="dieresis" unicode="&#xa8;" horiz-adv-x="763" 
d="M259 1161q-46 0 -74 30q-27 30 -27 78t39 86t85 38t74 -30t27 -78q0 -48 -39 -86t-85 -38zM625 1161q-47 0 -74 29t-27 77t39 87t85 39t74 -30t28 -78t-39 -86t-86 -38z" />
    <glyph glyph-name="copyright" unicode="&#xa9;" horiz-adv-x="1513" 
d="M446 662q0 182 116 309t288 127q123 0 201 -78q25 -29 -7 -59l-55 -58q-23 -25 -55 3t-114 28q-81 0 -144 -74q-64 -74 -64 -165t42 -146t104 -55t127 47q29 20 47 -4l47 -64q23 -29 -10 -57q-93 -86 -221 -86t-215 98t-87 234zM246 637q0 -215 128 -365t322 -149
q242 0 429 201t188 473q0 217 -127 365t-324 149q-244 0 -430 -199t-186 -475zM109 621q0 341 229 587t545 246q235 0 401 -188t166 -453q0 -342 -228 -587t-546 -244q-238 0 -403 187q-164 188 -164 452z" />
    <glyph glyph-name="ordfeminine" unicode="&#xaa;" horiz-adv-x="591" 
d="M311 934q68 0 117 76l12 90q-29 24 -78 24q-50 0 -78 -28t-34 -68q-6 -42 11 -68t50 -26zM274 821q-82 1 -124 57t-29 144q12 88 78 142t166 55q40 0 92 -19q14 70 6 103t-49 33t-164 -31q-21 -4 -25 26l-4 51q-2 25 21 35q74 37 190 37t145 -66q28 -66 9 -202l-45 -320
q-4 -29 -31 -28h-45q-16 0 -23 20l-6 43q-80 -80 -162 -80z" />
    <glyph glyph-name="guillemotleft" unicode="&#xab;" horiz-adv-x="862" 
d="M424 774q23 0 28 -19t-10 -44l-174 -301l74 -285q13 -60 -37 -62h-84q-16 1 -24 17l-148 317q-12 25 6 49l238 304q20 25 41 24h90zM772 774q23 0 28 -19t-9 -44l-175 -301l74 -285q13 -60 -37 -62h-84q-16 1 -24 17l-148 317q-12 25 6 49l238 304q20 25 41 24h90z" />
    <glyph glyph-name="logicalnot" unicode="&#xac;" horiz-adv-x="960" 
d="M98 629q-14 0 -22 11t-6 28l12 86q2 16 13 27t26 12h717q14 -1 23 -13t7 -26l-63 -441q-2 -14 -13 -25t-26 -12h-88q-14 0 -24 12t-7 25l45 316h-594z" />
    <glyph glyph-name="uni00AD" unicode="&#xad;" horiz-adv-x="643" 
d="M176 422q-35 0 -31 37l13 88q6 39 41 39h403q37 0 31 -39l-12 -88q-4 -37 -41 -37h-404z" />
    <glyph glyph-name="registered" unicode="&#xae;" horiz-adv-x="1513" 
d="M842 750q40 0 70 34t30 77q0 42 -19 66t-53 23h-157l-29 -200h158zM903 1094q80 0 138 -60t59 -147q0 -186 -174 -254q28 -85 63 -234q6 -19 -7 -37t-32 -18h-82q-25 0 -28 29l-56 241h-114l-33 -231q-2 -15 -13 -27t-26 -12h-78q-14 0 -23 12t-5 27l94 672q2 16 14 27
t27 12h276zM246 637q0 -215 128 -365t322 -149q242 0 429 201t188 473q0 217 -127 365t-324 149q-244 0 -430 -199t-186 -475zM109 621q0 341 229 587t545 246q235 0 401 -188t166 -453q0 -342 -228 -587t-546 -244q-238 0 -403 187q-164 188 -164 452z" />
    <glyph glyph-name="macron" unicode="&#xaf;" horiz-adv-x="763" 
d="M109 1180q-35 0 -31 37l8 57q6 39 41 39h473q14 0 22 -11t7 -28l-8 -57q-4 -37 -41 -37h-471z" />
    <glyph glyph-name="degree" unicode="&#xb0;" horiz-adv-x="608" 
d="M374 1047q42 0 79 44t37 97t-24 85t-66 32t-78 -44q-37 -43 -37 -97t23 -86q24 -31 66 -31zM366 901q-106 0 -168 70q-62 71 -62 185t83 206t189 92t168 -70t63 -186q0 -116 -84 -206q-83 -91 -189 -91z" />
    <glyph glyph-name="plusminus" unicode="&#xb1;" horiz-adv-x="1089" 
d="M127 106q-15 0 -23 12t-6 27l11 86q2 15 14 27t27 12h718q31 0 27 -39l-12 -86q-3 -16 -13 -27t-24 -12h-719zM487 502q-14 0 -23 11t-7 26l32 225h-270q-14 0 -23 11t-8 28l13 86q2 14 14 26t27 13h270l43 303q2 14 13 25t26 12h104q33 0 29 -37l-43 -303h274
q14 0 22 -12t7 -27l-12 -86q-2 -15 -13 -27t-26 -12h-274l-31 -225q-3 -13 -15 -25t-26 -12h-103z" />
    <glyph glyph-name="twosuperior" unicode="&#xb2;" horiz-adv-x="550" 
d="M166 1032q-18 0 -16 19l4 30l247 267q68 68 68 108q0 86 -74 84q-49 0 -96 -51q-14 -14 -27 2l-36 61q-8 18 10 37q70 70 163 70t145 -47t52 -113q0 -98 -102 -207l-133 -149h168q18 0 14 -21l-10 -71q-4 -18 -19 -19h-358z" />
    <glyph glyph-name="threesuperior" unicode="&#xb3;" horiz-adv-x="532" 
d="M326 1012q-104 0 -172 75q-12 14 2 29l39 49q14 14 28 0q41 -41 91 -41t80 25q28 25 28 59t-24 57q-24 22 -66 21h-53q-25 0 -23 23l6 57q4 25 31 25h55q45 1 74 25t29 58q-1 34 -21 52t-54 18t-85 -41q-14 -12 -27 2l-39 58q-14 18 6 30q90 66 169 66q80 0 134 -44
t54 -112q0 -109 -117 -157v-5q33 -16 61 -51t29 -84q0 -88 -65 -141q-66 -53 -170 -53z" />
    <glyph glyph-name="acute" unicode="&#xb4;" horiz-adv-x="557" 
d="M205 1112q-37 -16 -45 12l-23 64q-8 25 17 39l319 186q9 8 27 6t24 -20l35 -90q14 -35 -18 -49z" />
    <glyph glyph-name="mu" unicode="&#xb5;" horiz-adv-x="980" 
d="M125 -614h-121q-14 0 -22 12t-7 27l185 1355q8 39 41 39h125q14 0 23 -11t7 -28l-59 -418q-15 -98 17 -152t96 -54t122 50q57 50 68 79l68 495q4 39 47 39h112q13 0 23 -11t8 -28l-104 -741q-2 -15 -14 -27t-27 -12h-60q-20 0 -28 33l-13 59q-113 -113 -260 -112
q-59 0 -108 16l-78 -571q-2 -15 -14 -27t-27 -12z" />
    <glyph glyph-name="paragraph" unicode="&#xb6;" horiz-adv-x="1302" 
d="M432 575q-141 0 -235 108q-95 108 -95 284t129 321t295 146h834q14 0 22 -12t7 -27l-11 -68q-2 -15 -13 -27t-26 -12h-159l-262 -1863q-8 -39 -41 -39h-84q-14 0 -23 12q-8 12 -6 27l262 1861h-262l-262 -1861q-2 -15 -14 -27t-27 -12h-82q-14 0 -23 11q-8 12 -6 28
l162 1150h-80z" />
    <glyph glyph-name="periodcentered" unicode="&#xb7;" horiz-adv-x="481" 
d="M234 379q-62 0 -98 39q-36 40 -36 102t52 112t112 50q61 0 98 -39t37 -101t-52 -113q-51 -50 -113 -50z" />
    <glyph glyph-name="cedilla" unicode="&#xb8;" horiz-adv-x="456" 
d="M410 -301q0 -96 -62 -164t-158 -67q-40 0 -78 20t-56 50t3 52l33 31q18 17 44 -7t61 -24t59 30t25 71q0 84 -125 100q-33 8 -27 39l25 170h114l-14 -113q156 -35 156 -188z" />
    <glyph glyph-name="onesuperior" unicode="&#xb9;" horiz-adv-x="385" 
d="M244 1032q-20 0 -17 19l58 411l-88 -14q-14 -2 -15 12v56q0 14 15 22l149 100h84q18 0 14 -18l-82 -569q0 -18 -18 -19h-100z" />
    <glyph glyph-name="ordmasculine" unicode="&#xba;" horiz-adv-x="600" 
d="M348 932q57 0 92 70t35 198q0 127 -72 127q-55 0 -89 -74q-34 -73 -34 -197t68 -124zM332 807q-92 0 -144 66q-51 67 -51 184q0 180 76 288t209 107q90 0 142 -68t52 -182q0 -182 -75 -289q-76 -106 -209 -106z" />
    <glyph glyph-name="guillemotright" unicode="&#xbb;" horiz-adv-x="864" 
d="M49 63q-23 -1 -27 19t9 45l174 301l-74 285q-14 61 37 61h84q16 0 24 -16l148 -318q12 -25 -6 -49l-238 -303q-20 -25 -41 -25h-90zM516 774h84q16 0 25 -16l147 -318q12 -25 -6 -49l-238 -303q-20 -25 -41 -25h-90q-23 -1 -27 19t9 45l174 301l-74 285q-14 61 37 61z
" />
    <glyph glyph-name="onequarter" unicode="&#xbc;" horiz-adv-x="1275" 
d="M780 223h138l28 191zM1012 606h65q16 0 17 -18l-52 -365h72q18 0 14 -16l-10 -70q-4 -18 -18 -18h-74l-12 -101q-4 -18 -23 -18h-90q-16 0 -16 18l14 101h-258q-18 0 -14 16l12 82l358 383q6 6 15 6zM225 827q-20 0 -16 19l57 411l-88 -14q-14 -2 -14 12v56q0 14 14 22
l150 101h84q18 0 14 -19l-82 -569q0 -18 -18 -19h-101zM1044 1434q20 0 28 -18t-5 -38l-827 -1358q-10 -20 -33 -20h-80q-20 0 -28 17q-7 18 5 38l824 1358q14 20 33 21h83z" />
    <glyph glyph-name="onehalf" unicode="&#xbd;" horiz-adv-x="1232" 
d="M961 424q0 84 -74 84q-49 0 -96 -51q-14 -14 -27 2l-37 61q-8 18 10 37q70 70 163 70q94 0 146 -47t52 -113q0 -98 -103 -207l-133 -149h168q18 0 14 -21l-10 -72q-4 -18 -18 -18h-359q-18 0 -16 18l4 31l248 266q68 68 68 109zM225 827q-20 0 -16 19l57 411l-88 -14
q-14 -2 -14 12v56q0 14 14 22l150 101h84q18 0 14 -19l-82 -569q0 -18 -18 -19h-101zM1044 1434q20 0 28 -18t-5 -38l-827 -1358q-10 -20 -33 -20h-80q-20 0 -28 17q-7 18 5 38l824 1358q14 20 33 21h83z" />
    <glyph glyph-name="threequarters" unicode="&#xbe;" horiz-adv-x="1378" 
d="M883 223h137l29 191zM1114 606h66q16 0 16 -18l-51 -365h72q18 0 14 -16l-10 -70q-4 -18 -19 -18h-74l-12 -101q-4 -18 -22 -18h-90q-16 0 -17 18l14 101h-258q-18 0 -14 16l12 82l359 383q6 6 14 6zM1147 1434q19 0 27 -18t-5 -38l-827 -1358q-10 -20 -33 -20h-80
q-20 0 -27 18t5 37l823 1358q14 20 33 21h84zM294 807q-104 0 -173 76q-12 14 2 28l39 50q14 14 28 0q42 -41 92 -41t78 24t29 60q1 34 -23 56t-67 21h-53q-25 0 -23 23l6 57q4 25 31 25h55q45 0 74 24t29 59q0 34 -20 52t-55 18q-34 0 -85 -41q-14 -12 -27 2l-38 58
q-12 18 6 31q90 65 169 65t133 -44t54 -112q0 -109 -117 -157v-4q33 -15 62 -51t28 -85q0 -88 -65 -141t-169 -53z" />
    <glyph glyph-name="questiondown" unicode="&#xbf;" horiz-adv-x="516" 
d="M170 262h123q33 0 29 -39l-11 -86q-12 -90 -65 -150q-54 -61 -136 -117t-114 -96t-31 -98q0 -58 38 -93q38 -36 91 -36q123 0 244 140q23 27 49 0l70 -66q29 -27 2 -57q-166 -199 -389 -199q-129 0 -216 86t-87 213t75 209q54 60 160 132q105 71 115 140l10 76
q6 41 43 41zM432 708q0 -60 -48 -106q-48 -47 -106 -47q-57 0 -91 36q-33 35 -33 95t48 107t105 47t91 -36t34 -96z" />
    <glyph glyph-name="Agrave" unicode="&#xc0;" horiz-adv-x="1234" 
d="M901 1591l-287 144q-35 16 -12 53l53 84q18 27 50 6l268 -186q23 -12 6 -39l-31 -54q-14 -24 -47 -8zM399 487h430l-133 564h-8zM-35 0q-20 0 -27 16t3 37l761 1379q10 23 35 22h19q20 0 28 -22l371 -1379q4 -21 -7 -37t-32 -16h-123q-37 0 -43 31l-73 284h-564
l-157 -284q-18 -31 -52 -31h-139z" />
    <glyph glyph-name="Aacute" unicode="&#xc1;" horiz-adv-x="1234" 
d="M645 1583q-37 -16 -45 12l-22 64q-8 25 16 39l319 186q9 8 27 6t25 -20l34 -90q14 -35 -18 -49zM399 487h430l-133 564h-8zM-35 0q-20 0 -27 16t3 37l761 1379q10 23 35 22h19q20 0 28 -22l371 -1379q4 -21 -7 -37t-32 -16h-123q-37 0 -43 31l-73 284h-564l-157 -284
q-18 -31 -52 -31h-139z" />
    <glyph glyph-name="Acircumflex" unicode="&#xc2;" horiz-adv-x="1234" 
d="M582 1581q-22 -14 -29 -8q-8 6 -16 18l-29 41q-18 31 10 49l258 201q25 16 45 0l201 -201q20 -20 4 -43l-37 -45q-23 -25 -47 -4l-158 123zM399 487h430l-133 564h-8zM-35 0q-20 0 -27 16t3 37l761 1379q10 23 35 22h19q20 0 28 -22l371 -1379q4 -21 -7 -37t-32 -16h-123
q-37 0 -43 31l-73 284h-564l-157 -284q-18 -31 -52 -31h-139z" />
    <glyph glyph-name="Atilde" unicode="&#xc3;" horiz-adv-x="1234" 
d="M700 1870q47 0 80 -33t56 -65t45 -33q41 0 86 82q20 39 51 18l39 -29q31 -25 4 -65q-84 -154 -191 -154q-40 0 -74 34t-60 67t-44 32q-39 0 -84 -84q-20 -36 -45 -20l-53 31q-30 24 26 109q22 34 69 72q48 38 95 38zM399 487h430l-133 564h-8zM-35 0q-20 0 -27 16t3 37
l761 1379q10 23 35 22h19q20 0 28 -22l371 -1379q4 -21 -7 -37t-32 -16h-123q-37 0 -43 31l-73 284h-564l-157 -284q-18 -31 -52 -31h-139z" />
    <glyph glyph-name="Adieresis" unicode="&#xc4;" horiz-adv-x="1234" 
d="M578 1833q46 0 74 -30q28 -31 28 -77t-40 -85t-86 -39t-73 30t-27 77q0 48 40 86q39 38 84 38zM1014 1833q46 0 74 -30q28 -31 28 -77t-40 -85t-86 -39t-72 30t-27 77q0 48 39 86t84 38zM399 487h430l-133 564h-8zM-35 0q-20 0 -27 16t3 37l761 1379q10 23 35 22h19
q20 0 28 -22l371 -1379q4 -21 -7 -37t-32 -16h-123q-37 0 -43 31l-73 284h-564l-157 -284q-18 -31 -52 -31h-139z" />
    <glyph glyph-name="Aring" unicode="&#xc5;" horiz-adv-x="1234" 
d="M696 1766q0 -44 24 -74t61 -31q38 0 72 40t34 84t-22 72q-23 27 -61 27t-73 -37t-35 -81zM775 1548q-87 0 -138 58t-51 152q0 96 70 170t155 75q86 0 139 -57q54 -57 54 -153q0 -97 -71 -171t-158 -74zM399 487h430l-133 564h-8zM-35 0q-20 0 -27 16t3 37l761 1379
q10 23 35 22h19q20 0 28 -22l371 -1379q4 -21 -7 -37t-32 -16h-123q-37 0 -43 31l-73 284h-564l-157 -284q-18 -31 -52 -31h-139z" />
    <glyph glyph-name="AE" unicode="&#xc6;" horiz-adv-x="1683" 
d="M459 487h284l82 564zM-63 0q-20 0 -26 16q-5 16 9 37l926 1317q45 63 90 64h721q14 0 22 -12t7 -27l-17 -115q-2 -16 -14 -28t-27 -11h-571l-60 -418h484q14 0 22 -11t6 -28l-16 -114q-2 -16 -14 -28t-27 -11h-481l-62 -441h572q14 0 23 -11t7 -27l-16 -113
q-2 -15 -14 -27t-27 -12h-743q-14 0 -24 11q-9 11 -7 28l39 272h-387l-193 -284q-18 -27 -45 -27h-157z" />
    <glyph glyph-name="Ccedilla" unicode="&#xc7;" horiz-adv-x="1310" 
d="M117 635q0 344 227 582t549 237q248 0 420 -190q25 -27 -6 -58l-84 -76q-31 -31 -64 3q-49 51 -124 85t-154 33q-209 0 -371 -187t-162 -429q0 -188 99 -313t259 -125t326 133q33 29 58 -2l81 -95q7 -10 5 -27t-13 -28q-207 -195 -458 -198l-11 -93q156 -35 156 -188
q0 -96 -62 -164t-157 -67q-39 0 -78 20t-57 50t4 52l32 31q20 17 45 -7t60 -24t59 30t25 71q0 84 -125 100q-33 8 -27 39l23 160q-217 39 -346 216t-129 429z" />
    <glyph glyph-name="Egrave" unicode="&#xc8;" horiz-adv-x="1118" 
d="M887 1591l-287 144q-35 16 -12 53l53 84q18 27 49 6l268 -186q23 -12 7 -39l-31 -54q-14 -24 -47 -8zM1092 1434q33 0 28 -39l-16 -115q-2 -16 -13 -28t-26 -11h-567l-60 -418h477q15 0 23 -11t6 -28l-16 -114q-6 -39 -39 -39h-477l-62 -441h568q14 0 22 -11t6 -27
l-16 -113q-2 -15 -14 -27t-27 -12h-742q-14 0 -23 12t-5 27l190 1356q1 14 13 26t26 13h744z" />
    <glyph glyph-name="Eacute" unicode="&#xc9;" horiz-adv-x="1118" 
d="M631 1583q-37 -16 -45 12l-23 64q-8 25 17 39l319 186q9 8 27 6t24 -20l35 -90q14 -35 -18 -49zM1092 1434q33 0 28 -39l-16 -115q-2 -16 -13 -28t-26 -11h-567l-60 -418h477q15 0 23 -11t6 -28l-16 -114q-6 -39 -39 -39h-477l-62 -441h568q14 0 22 -11t6 -27l-16 -113
q-2 -15 -14 -27t-27 -12h-742q-14 0 -23 12t-5 27l190 1356q1 14 13 26t26 13h744z" />
    <glyph glyph-name="Ecircumflex" unicode="&#xca;" horiz-adv-x="1118" 
d="M571 1581q-21 -14 -29 -8t-16 18l-28 41q-18 31 10 49l258 201q25 16 45 0l201 -201q20 -20 4 -43l-37 -45q-23 -25 -47 -4l-158 123zM1092 1434q33 0 28 -39l-16 -115q-2 -16 -13 -28t-26 -11h-567l-60 -418h477q15 0 23 -11t6 -28l-16 -114q-6 -39 -39 -39h-477
l-62 -441h568q14 0 22 -11t6 -27l-16 -113q-2 -15 -14 -27t-27 -12h-742q-14 0 -23 12t-5 27l190 1356q1 14 13 26t26 13h744z" />
    <glyph glyph-name="Edieresis" unicode="&#xcb;" horiz-adv-x="1118" 
d="M533 1602q-47 0 -73 30t-26 77q0 48 39 86t84 38t74 -30q29 -31 29 -77t-40 -86q-41 -38 -87 -38zM1096 1726q0 -46 -40 -85t-86 -39t-73 30t-27 77q0 48 39 86t84 38t74 -30q29 -31 29 -77zM1092 1434q33 0 28 -39l-16 -115q-2 -16 -13 -28t-26 -11h-567l-60 -418h477
q15 0 23 -11t6 -28l-16 -114q-6 -39 -39 -39h-477l-62 -441h568q14 0 22 -11t6 -27l-16 -113q-2 -15 -14 -27t-27 -12h-742q-14 0 -23 12t-5 27l190 1356q1 14 13 26t26 13h744z" />
    <glyph glyph-name="Igrave" unicode="&#xcc;" horiz-adv-x="598" 
d="M571 1591l-286 144q-35 16 -13 53l54 84q18 27 49 6l268 -186q23 -12 6 -39l-31 -54q-14 -24 -47 -8zM492 1434q14 0 22 -12t6 -27l-190 -1356q-2 -15 -14 -27t-25 -12h-144q-14 0 -22 12t-6 27l190 1356q1 14 13 26t26 13h144z" />
    <glyph glyph-name="Iacute" unicode="&#xcd;" horiz-adv-x="598" 
d="M315 1583q-37 -16 -45 12l-22 64q-8 25 16 39l320 186q8 8 26 6t25 -20l35 -90q14 -35 -19 -49zM492 1434q14 0 22 -12t6 -27l-190 -1356q-2 -15 -14 -27t-25 -12h-144q-14 0 -22 12t-6 27l190 1356q1 14 13 26t26 13h144z" />
    <glyph glyph-name="Icircumflex" unicode="&#xce;" horiz-adv-x="598" 
d="M256 1581q-20 -14 -29 -8q-8 6 -16 18l-29 41q-18 31 11 49l258 201q25 16 45 0l200 -201q20 -20 4 -43l-36 -45q-23 -25 -48 -4l-157 123zM492 1434q14 0 22 -12t6 -27l-190 -1356q-2 -15 -14 -27t-25 -12h-144q-14 0 -22 12t-6 27l190 1356q1 14 13 26t26 13h144z" />
    <glyph glyph-name="Idieresis" unicode="&#xcf;" horiz-adv-x="598" 
d="M224 1602q-46 0 -72 30t-27 77q0 48 39 86t84 38t74 -30q28 -31 28 -77t-40 -85t-86 -39zM660 1602q-46 0 -72 30t-27 77q0 48 39 86t84 38t74 -30q28 -31 28 -77t-40 -85t-86 -39zM492 1434q14 0 22 -12t6 -27l-190 -1356q-2 -15 -14 -27t-25 -12h-144q-14 0 -22 12
t-6 27l190 1356q1 14 13 26t26 13h144z" />
    <glyph glyph-name="Eth" unicode="&#xd0;" horiz-adv-x="1413" 
d="M586 195q218 0 372 175t154 431q0 190 -104 314t-275 124h-229l-68 -481h328q14 0 24 -12t7 -27l-4 -23q-8 -37 -41 -37h-328l-66 -464h230zM160 659q-14 -1 -22 11t-5 28l4 21q8 39 37 39h53l90 637q1 14 13 26t26 13h428q236 0 396 -186t159 -437q0 -335 -220 -573
t-535 -238h-430q-14 0 -23 11q-8 12 -4 28l86 620h-53z" />
    <glyph glyph-name="Ntilde" unicode="&#xd1;" horiz-adv-x="1468" 
d="M796 1870q48 0 81 -33t55 -65t44 -33q21 0 41 17t43 61q23 43 54 22l39 -29q31 -25 4 -65q-84 -154 -190 -154q-57 0 -134 101q-26 33 -45 32q-39 0 -83 -84q-21 -36 -46 -20l-53 31q-20 16 -8 47q32 77 91 124q59 48 107 48zM1360 1434q14 0 23 -12t8 -27l-195 -1379
q-2 -14 -14 -25t-27 -11h-57l-641 1038h-2l-127 -979q-2 -15 -14 -27t-27 -12h-137q-14 0 -24 11q-9 12 -7 28l194 1378q3 13 15 25t26 12h52l641 -1022h4l129 963q2 16 13 27t26 12h141z" />
    <glyph glyph-name="Ograve" unicode="&#xd2;" horiz-adv-x="1529" 
d="M1036 1591l-286 144q-35 16 -13 53l54 84q18 27 49 6l268 -186q23 -12 6 -39l-31 -54q-14 -24 -47 -8zM330 641q0 -190 107 -324q108 -133 274 -133q209 0 369 180t161 422q0 193 -107 328q-108 135 -274 135q-206 0 -368 -182t-162 -426zM115 614q0 354 224 597t548 243
q245 0 407 -188t162 -453q0 -352 -225 -593t-547 -240q-246 0 -408 187q-161 187 -161 447z" />
    <glyph glyph-name="Oacute" unicode="&#xd3;" horiz-adv-x="1529" 
d="M780 1583q-37 -16 -45 12l-22 64q-8 25 16 39l320 186q8 8 26 6t25 -20l35 -90q14 -35 -19 -49zM330 641q0 -190 107 -324q108 -133 274 -133q209 0 369 180t161 422q0 193 -107 328q-108 135 -274 135q-206 0 -368 -182t-162 -426zM115 614q0 354 224 597t548 243
q245 0 407 -188t162 -453q0 -352 -225 -593t-547 -240q-246 0 -408 187q-161 187 -161 447z" />
    <glyph glyph-name="Ocircumflex" unicode="&#xd4;" horiz-adv-x="1529" 
d="M719 1581q-22 -14 -29 -8q-8 6 -16 18l-29 41q-18 31 10 49l258 201q25 16 45 0l201 -201q20 -20 4 -43l-37 -45q-23 -25 -47 -4l-157 123zM330 641q0 -190 107 -324q108 -133 274 -133q209 0 369 180t161 422q0 193 -107 328q-108 135 -274 135q-206 0 -368 -182
t-162 -426zM115 614q0 354 224 597t548 243q245 0 407 -188t162 -453q0 -352 -225 -593t-547 -240q-246 0 -408 187q-161 187 -161 447z" />
    <glyph glyph-name="Otilde" unicode="&#xd5;" horiz-adv-x="1529" 
d="M838 1870q48 0 80 -33q34 -33 56 -65t43 -33q21 0 40 16q18 15 24 27t23 39q20 39 51 18l39 -29q31 -25 4 -65q-84 -154 -190 -154q-39 0 -74 34t-61 67t-44 32q-39 0 -84 -84q-20 -36 -45 -20l-53 31q-20 16 -8 47q32 77 91 124q60 48 108 48zM330 641q0 -190 107 -324
q108 -133 274 -133q209 0 369 180t161 422q0 193 -107 328q-108 135 -274 135q-206 0 -368 -182t-162 -426zM115 614q0 354 224 597t548 243q245 0 407 -188t162 -453q0 -352 -225 -593t-547 -240q-246 0 -408 187q-161 187 -161 447z" />
    <glyph glyph-name="Odieresis" unicode="&#xd6;" horiz-adv-x="1529" 
d="M693 1602q-47 0 -73 30t-26 77q0 48 39 86t84 38t74 -30q29 -31 29 -77t-41 -85q-40 -39 -86 -39zM1129 1602q-47 0 -73 30t-26 77q0 48 39 86t84 38t74 -30q29 -31 29 -77t-41 -85q-40 -39 -86 -39zM330 641q0 -190 107 -324q108 -133 274 -133q209 0 369 180t161 422
q0 193 -107 328q-108 135 -274 135q-206 0 -368 -182t-162 -426zM115 614q0 354 224 597t548 243q245 0 407 -188t162 -453q0 -352 -225 -593t-547 -240q-246 0 -408 187q-161 187 -161 447z" />
    <glyph glyph-name="multiply" unicode="&#xd7;" horiz-adv-x="907" 
d="M182 369l-61 69q-8 10 -5 26t13 28l233 225l-163 219q-20 27 8 55l61 53q29 25 51 0l164 -219l232 230q23 23 47 -2l61 -70q8 -11 6 -27t-12 -26l-235 -232l166 -215q10 -10 7 -28t-16 -27l-63 -51q-31 -27 -49 -2l-166 217l-232 -223q-24 -25 -47 0z" />
    <glyph glyph-name="Oslash" unicode="&#xd8;" horiz-adv-x="1529" 
d="M711 184q209 0 369 180t161 422q0 135 -57 250l-748 -719q111 -133 275 -133zM860 1249q-206 0 -368 -182t-162 -426q0 -137 57 -248l750 717q-109 139 -277 139zM887 1454q244 0 407 -190l148 139q29 25 49 0l12 -14q18 -27 -8 -54l-147 -141q109 -170 108 -381
q0 -352 -225 -593t-547 -240q-244 0 -408 186l-141 -137q-27 -25 -49 2l-12 14q-20 29 6 53l143 138q-109 166 -108 378q0 354 224 597t548 243z" />
    <glyph glyph-name="Ugrave" unicode="&#xd9;" horiz-adv-x="1370" 
d="M961 1591l-287 144q-35 16 -12 53l53 84q18 27 49 6l268 -186q23 -12 6 -39l-30 -54q-14 -24 -47 -8zM336 1434h147q13 0 23 -12t6 -27l-119 -846q-23 -156 43 -259q66 -104 196 -104t224 102t117 257l121 850q2 14 13 26t26 13h147q14 0 22 -12t7 -27l-121 -860
q-33 -240 -193 -398q-160 -157 -379 -157t-347 162t-95 393l121 860q8 39 41 39z" />
    <glyph glyph-name="Uacute" unicode="&#xda;" horiz-adv-x="1370" 
d="M705 1583q-37 -16 -46 12l-22 64q-8 25 16 39l320 186q8 8 26 6t25 -20l35 -90q14 -35 -19 -49zM336 1434h147q13 0 23 -12t6 -27l-119 -846q-23 -156 43 -259q66 -104 196 -104t224 102t117 257l121 850q2 14 13 26t26 13h147q14 0 22 -12t7 -27l-121 -860
q-33 -240 -193 -398q-160 -157 -379 -157t-347 162t-95 393l121 860q8 39 41 39z" />
    <glyph glyph-name="Ucircumflex" unicode="&#xdb;" horiz-adv-x="1370" 
d="M641 1581q-20 -14 -29 -8q-8 6 -16 18l-29 41q-18 31 11 49l258 201q25 16 45 0l200 -201q20 -20 4 -43l-36 -45q-23 -25 -48 -4l-157 123zM336 1434h147q13 0 23 -12t6 -27l-119 -846q-23 -156 43 -259q66 -104 196 -104t224 102t117 257l121 850q2 14 13 26t26 13h147
q14 0 22 -12t7 -27l-121 -860q-33 -240 -193 -398q-160 -157 -379 -157t-347 162t-95 393l121 860q8 39 41 39z" />
    <glyph glyph-name="Udieresis" unicode="&#xdc;" horiz-adv-x="1370" 
d="M617 1602q-47 0 -73 30t-26 77q0 48 39 86t84 38t74 -30q29 -31 29 -77t-41 -85q-40 -39 -86 -39zM1180 1726q0 -46 -40 -85t-86 -39t-73 30t-27 77q0 48 39 86t84 38t74 -30q29 -31 29 -77zM336 1434h147q13 0 23 -12t6 -27l-119 -846q-23 -156 43 -259
q66 -104 196 -104t224 102t117 257l121 850q2 14 13 26t26 13h147q14 0 22 -12t7 -27l-121 -860q-33 -240 -193 -398q-160 -157 -379 -157t-347 162t-95 393l121 860q8 39 41 39z" />
    <glyph glyph-name="Yacute" unicode="&#xdd;" horiz-adv-x="1075" 
d="M541 1583q-37 -16 -45 12l-23 64q-8 25 16 39l320 186q9 8 27 6t24 -20l35 -90q14 -35 -18 -49zM291 1434q25 0 35 -23l239 -520h4l394 520q18 23 41 23h161q23 0 28 -16t-9 -38l-529 -688l-92 -653q-2 -15 -14 -27t-27 -12h-141q-14 0 -24 11q-9 12 -7 28l92 651
l-331 690q-8 20 3 36t31 18h146z" />
    <glyph glyph-name="Thorn" unicode="&#xde;" horiz-adv-x="1128" 
d="M629 461q98 0 176 88q78 89 78 195q-1 106 -53 166t-130 61h-237l-72 -510h238zM350 1434h142q14 0 23 -12t7 -27l-33 -221h250q145 2 249 -115t106 -281q0 -214 -140 -366t-342 -152h-250l-30 -221q-8 -39 -41 -39h-141q-14 0 -24 11q-9 12 -7 28l190 1356q8 39 41 39z
" />
    <glyph glyph-name="germandbls" unicode="&#xdf;" horiz-adv-x="991" 
d="M506 -20q-105 0 -105 34q0 8 2 15l15 94q4 35 42 32t68 -3q66 0 110 51t44 123t-41 136t-82 122t-41 106q0 74 113 233t113 225t-32 99t-83 33q-201 0 -262 -440l-199 -1415q-2 -15 -14 -27t-27 -12h-127q-33 0 -29 39l199 1417q86 612 498 612q114 0 196 -69t82 -195
q0 -86 -34 -166t-74 -128q-108 -129 -109 -183q0 -23 39 -77q115 -159 115 -305q1 -145 -97 -248t-280 -103z" />
    <glyph glyph-name="agrave" unicode="&#xe0;" 
d="M453 662q-97 0 -153 -88t-56 -196q0 -110 41 -166t99 -56t115 37t83 90l34 286q-6 9 -18 25t-55 42t-90 26zM696 0h-67q-25 0 -27 29l-6 61q-111 -110 -245 -110t-218 108t-84 285q0 176 122 321t290 146q55 0 118 -28t99 -73l27 52q14 29 38 28h62q15 1 23 -11t6 -28
l-97 -741q-2 -15 -14 -27t-27 -12zM664 1118l-287 144q-35 16 -12 53l53 84q18 27 49 6l268 -186q23 -12 6 -39l-30 -54q-14 -24 -47 -8z" />
    <glyph glyph-name="aacute" unicode="&#xe1;" 
d="M453 662q-97 0 -153 -88t-56 -196q0 -110 41 -166t99 -56t115 37t83 90l34 286q-6 9 -18 25t-55 42t-90 26zM696 0h-67q-25 0 -27 29l-6 61q-111 -110 -245 -110t-218 108t-84 285q0 176 122 321t290 146q55 0 118 -28t99 -73l27 52q14 29 38 28h62q15 1 23 -11t6 -28
l-97 -741q-2 -15 -14 -27t-27 -12zM395 1112q-37 -16 -45 12l-22 64q-8 25 16 39l320 186q8 8 26 6t25 -20l35 -90q14 -35 -19 -49z" />
    <glyph glyph-name="acircumflex" unicode="&#xe2;" 
d="M453 662q-97 0 -153 -88t-56 -196q0 -110 41 -166t99 -56t115 37t83 90l34 286q-6 9 -18 25t-55 42t-90 26zM696 0h-67q-25 0 -27 29l-6 61q-111 -110 -245 -110t-218 108t-84 285q0 176 122 321t290 146q55 0 118 -28t99 -73l27 52q14 29 38 28h62q15 1 23 -11t6 -28
l-97 -741q-2 -15 -14 -27t-27 -12zM334 1104q-22 -14 -29 -8q-8 6 -16 18l-29 41q-18 31 10 49l258 201q25 16 45 0l201 -201q20 -20 4 -43l-37 -45q-23 -25 -47 -4l-157 123z" />
    <glyph glyph-name="atilde" unicode="&#xe3;" 
d="M453 662q-97 0 -153 -88t-56 -196q0 -110 41 -166t99 -56t115 37t83 90l34 286q-6 9 -18 25t-55 42t-90 26zM696 0h-67q-25 0 -27 29l-6 61q-111 -110 -245 -110t-218 108t-84 285q0 176 122 321t290 146q55 0 118 -28t99 -73l27 52q14 29 38 28h62q15 1 23 -11t6 -28
l-97 -741q-2 -15 -14 -27t-27 -12zM454 1413q48 0 81 -33q33 -34 55 -66t45 -32q41 0 86 82q20 39 51 18l39 -28q31 -25 4 -66q-84 -154 -190 -153q-59 0 -135 99q-26 34 -44 34q-39 0 -84 -84q-20 -37 -45 -21l-53 31q-20 16 -8 47q32 78 92 125q58 47 106 47z" />
    <glyph glyph-name="adieresis" unicode="&#xe4;" 
d="M453 662q-97 0 -153 -88t-56 -196q0 -110 41 -166t99 -56t115 37t83 90l34 286q-6 9 -18 25t-55 42t-90 26zM696 0h-67q-25 0 -27 29l-6 61q-111 -110 -245 -110t-218 108t-84 285q0 176 122 321t290 146q55 0 118 -28t99 -73l27 52q14 29 38 28h62q15 1 23 -11t6 -28
l-97 -741q-2 -15 -14 -27t-27 -12zM347 1161q-46 0 -74 30q-27 30 -27 78t39 86t85 38t74 -30t27 -78q0 -48 -39 -86t-85 -38zM713 1161q-47 0 -74 29t-27 77t38 87t85 39t75 -30t28 -78t-39 -86t-86 -38z" />
    <glyph glyph-name="aring" unicode="&#xe5;" 
d="M453 662q-97 0 -153 -88t-56 -196q0 -110 41 -166t99 -56t115 37t83 90l34 286q-6 9 -18 25t-55 42t-90 26zM696 0h-67q-25 0 -27 29l-6 61q-111 -110 -245 -110t-218 108t-84 285q0 176 122 321t290 146q55 0 118 -28t99 -73l27 52q14 29 38 28h62q15 1 23 -11t6 -28
l-97 -741q-2 -15 -14 -27t-27 -12zM436 1217q0 -45 24 -75t61 -30q38 0 72 40t34 84t-22 72q-23 28 -61 28t-73 -38q-35 -37 -35 -81zM743 1244q-1 -96 -71 -170t-157 -75t-138 57t-51 154t70 170t155 74q86 0 139 -57t53 -153z" />
    <glyph glyph-name="ae" unicode="&#xe6;" horiz-adv-x="1249" 
d="M197 248q0 -118 103 -119q48 0 89 32t60 62l20 154q-47 14 -115 14q-68 1 -112 -41q-45 -42 -45 -102zM1004 596q0 38 -33 62t-78 24q-83 0 -141 -51t-76 -131q328 -29 328 96zM244 -20q-100 0 -164 64t-64 182q0 120 89 206t235 86l147 -12q12 102 -2 138q-13 36 -81 36
t-211 -41q-14 -4 -26 6q-11 10 -11 25l-2 86q0 29 34 41q137 43 267 43t184 -113q117 113 274 113q119 0 197 -62t78 -158t-54 -153t-136 -79q-199 -53 -353 -26q-8 -88 35 -149t125 -61t166 57q35 23 49 2l55 -76q23 -29 -10 -53q-127 -102 -289 -102t-252 131
q-109 -131 -280 -131z" />
    <glyph glyph-name="ccedilla" unicode="&#xe7;" horiz-adv-x="825" 
d="M480 662q-86 0 -160 -90t-74 -196t42 -163t113 -57q39 0 76 20t51 36t41 50q23 25 47 4l74 -57q31 -25 4 -57q-125 -170 -307 -172l-10 -93q156 -35 155 -188q0 -96 -61 -164t-158 -67q-39 0 -77 20t-58 50q-18 30 4 52l33 31q18 17 44 -7q27 -24 61 -24t59 30t24 71
q0 84 -124 100q-33 8 -27 39l24 168q-100 35 -163 131t-64 221q0 203 136 346t319 144q82 0 148 -40t102 -106q18 -33 -15 -57l-73 -51q-29 -18 -48 8q-53 68 -138 68z" />
    <glyph glyph-name="egrave" unicode="&#xe8;" horiz-adv-x="843" 
d="M674 1118l-287 144q-35 16 -12 53l53 84q18 27 49 6l268 -186q23 -12 7 -39l-31 -54q-14 -24 -47 -8zM596 596q0 38 -33 62t-78 24q-83 0 -141 -51t-76 -131q328 -29 328 96zM49 346q0 201 128 347t329 147q118 0 196 -62t78 -158t-54 -153t-136 -79q-198 -53 -352 -26
q-8 -88 34 -149t125 -61q82 0 166 57q35 23 49 2l56 -76q23 -29 -11 -53q-127 -102 -280 -102t-241 105q-87 105 -87 261z" />
    <glyph glyph-name="eacute" unicode="&#xe9;" horiz-adv-x="843" 
d="M420 1112q-37 -16 -45 12l-23 64q-8 25 17 39l319 186q8 8 26 6t25 -20l35 -90q14 -35 -18 -49zM596 596q0 38 -33 62t-78 24q-83 0 -141 -51t-76 -131q328 -29 328 96zM49 346q0 201 128 347t329 147q118 0 196 -62t78 -158t-54 -153t-136 -79q-198 -53 -352 -26
q-8 -88 34 -149t125 -61q82 0 166 57q35 23 49 2l56 -76q23 -29 -11 -53q-127 -102 -280 -102t-241 105q-87 105 -87 261z" />
    <glyph glyph-name="ecircumflex" unicode="&#xea;" horiz-adv-x="843" 
d="M356 1104q-20 -14 -28 -8t-17 18l-28 41q-18 31 10 49l258 201q25 16 45 0l201 -201q20 -20 4 -43l-37 -45q-23 -25 -47 -4l-158 123zM596 596q0 38 -33 62t-78 24q-83 0 -141 -51t-76 -131q328 -29 328 96zM49 346q0 201 128 347t329 147q118 0 196 -62t78 -158
t-54 -153t-136 -79q-198 -53 -352 -26q-8 -88 34 -149t125 -61q82 0 166 57q35 23 49 2l56 -76q23 -29 -11 -53q-127 -102 -280 -102t-241 105q-87 105 -87 261z" />
    <glyph glyph-name="edieresis" unicode="&#xeb;" horiz-adv-x="843" 
d="M372 1161q-46 0 -74 30t-28 78t39 86t85 38t74 -30t28 -78t-39 -86t-85 -38zM737 1161q-47 0 -73 29t-27 77q0 48 38 87t85 39t75 -30q27 -30 27 -78t-39 -86t-86 -38zM596 596q0 38 -33 62t-78 24q-83 0 -141 -51t-76 -131q328 -29 328 96zM49 346q0 201 128 347
t329 147q118 0 196 -62t78 -158t-54 -153t-136 -79q-198 -53 -352 -26q-8 -88 34 -149t125 -61q82 0 166 57q35 23 49 2l56 -76q23 -29 -11 -53q-127 -102 -280 -102t-241 105q-87 105 -87 261z" />
    <glyph glyph-name="igrave" unicode="&#xec;" horiz-adv-x="458" 
d="M434 1118l-287 144q-35 16 -12 53l53 84q18 27 50 6l268 -186q23 -12 6 -39l-31 -54q-14 -24 -47 -8zM201 819h125q14 0 23 -11t7 -28l-104 -741q-2 -15 -14 -27t-27 -12h-125q-14 0 -23 12q-8 13 -6 27l103 741q8 39 41 39z" />
    <glyph glyph-name="iacute" unicode="&#xed;" horiz-adv-x="458" 
d="M201 819h125q14 0 23 -11t7 -28l-104 -741q-2 -15 -14 -27t-27 -12h-125q-14 0 -23 12q-8 13 -6 27l103 741q8 39 41 39zM178 1112q-37 -16 -45 12l-22 64q-8 25 16 39l319 186q8 8 26 6t26 -20l34 -90q14 -35 -18 -49z" />
    <glyph glyph-name="icircumflex" unicode="&#xee;" horiz-adv-x="458" 
d="M115 1104q-22 -14 -29 -8q-8 6 -16 18l-29 41q-18 31 10 49l258 201q25 16 45 0l201 -201q20 -20 4 -43l-37 -45q-23 -25 -47 -4l-158 123zM201 819h125q14 0 23 -11t7 -28l-104 -741q-2 -15 -14 -27t-27 -12h-125q-14 0 -23 12q-8 13 -6 27l103 741q8 39 41 39z" />
    <glyph glyph-name="idieresis" unicode="&#xef;" horiz-adv-x="458" 
d="M201 819h125q14 0 23 -11t7 -28l-104 -741q-2 -15 -14 -27t-27 -12h-125q-14 0 -23 12q-8 13 -6 27l103 741q8 39 41 39zM132 1161q-46 0 -74 30t-28 78t40 86q39 38 85 38q45 0 73 -30t28 -78t-39 -86t-85 -38zM498 1161q-47 0 -74 29t-27 77t39 87t85 39t74 -30t28 -78
t-39 -86t-86 -38z" />
    <glyph glyph-name="eth" unicode="&#xf0;" horiz-adv-x="1017" 
d="M432 164q84 0 152 68q124 123 143 337q-11 45 -67 101t-156 55q-100 0 -182 -94q-82 -93 -82 -209t54 -187t138 -71zM53 387q-1 225 139 365t312 141q68 0 129 -27t90 -49q-16 168 -164 311l-172 -104q-31 -16 -45 12l-8 19q-12 35 20 53l129 82q-66 55 -127 84
q-39 16 -20 55l49 88q16 33 49 21q117 -49 236 -148l137 82q27 12 45 -16l10 -19q18 -31 -20 -51l-105 -63q197 -215 197 -527t-141 -515q-141 -202 -385 -201q-147 0 -251 120t-104 287z" />
    <glyph glyph-name="ntilde" unicode="&#xf1;" horiz-adv-x="976" 
d="M514 1413q47 0 80 -33q34 -34 56 -66t43 -32t40 16t25 28t22 38q20 39 51 18l39 -28q31 -25 4 -66q-84 -154 -190 -153q-61 0 -134 99q-26 34 -44 34q-39 0 -84 -84q-20 -37 -45 -21l-53 31q-20 16 -9 47q33 79 92 125q60 47 107 47zM201 819h61q23 0 27 -24l14 -70
q127 115 282 115t216 -108t39 -281l-58 -412q-2 -15 -14 -27t-27 -12h-125q-33 0 -28 39l57 418q14 98 -15 151q-30 54 -100 54t-128 -42t-80 -77l-72 -504q-6 -39 -51 -39h-113q-14 0 -23 12q-8 13 -6 27l103 741q4 39 41 39z" />
    <glyph glyph-name="ograve" unicode="&#xf2;" horiz-adv-x="903" 
d="M662 1118l-287 144q-35 16 -13 53l54 84q18 27 49 6l268 -186q23 -12 6 -39l-30 -54q-14 -24 -47 -8zM233 385q0 -105 45 -167t126 -62t151 87t70 191t-44 166t-126 62t-152 -86t-70 -191zM49 354q0 199 128 342t312 144q135 0 227 -110t93 -261q0 -201 -128 -345
t-312 -144q-133 0 -227 110q-93 110 -93 264z" />
    <glyph glyph-name="oacute" unicode="&#xf3;" horiz-adv-x="903" 
d="M406 1112q-37 -16 -46 12l-22 64q-8 25 16 39l320 186q8 8 26 6t25 -20l35 -90q14 -35 -19 -49zM233 385q0 -105 45 -167t126 -62t151 87t70 191t-44 166t-126 62t-152 -86t-70 -191zM49 354q0 199 128 342t312 144q135 0 227 -110t93 -261q0 -201 -128 -345t-312 -144
q-133 0 -227 110q-93 110 -93 264z" />
    <glyph glyph-name="ocircumflex" unicode="&#xf4;" horiz-adv-x="903" 
d="M344 1104q-21 -14 -29 -8t-16 18l-29 41q-18 31 11 49l258 201q25 16 45 0l200 -201q20 -20 4 -43l-36 -45q-23 -25 -47 -4l-158 123zM233 385q0 -105 45 -167t126 -62t151 87t70 191t-44 166t-126 62t-152 -86t-70 -191zM49 354q0 199 128 342t312 144q135 0 227 -110
t93 -261q0 -201 -128 -345t-312 -144q-133 0 -227 110q-93 110 -93 264z" />
    <glyph glyph-name="otilde" unicode="&#xf5;" horiz-adv-x="903" 
d="M463 1413q47 0 80 -33q33 -34 55 -66t44 -32q21 0 40 16q18 16 24 28t23 38q20 39 51 18l39 -28q31 -25 4 -66q-84 -154 -190 -153q-61 0 -134 99q-26 34 -44 34q-39 0 -84 -84q-20 -37 -45 -21l-54 31q-20 16 -8 47q33 79 92 125q60 47 107 47zM233 385q0 -105 45 -167
t126 -62t151 87t70 191t-44 166t-126 62t-152 -86t-70 -191zM49 354q0 199 128 342t312 144q135 0 227 -110t93 -261q0 -201 -128 -345t-312 -144q-133 0 -227 110q-93 110 -93 264z" />
    <glyph glyph-name="odieresis" unicode="&#xf6;" horiz-adv-x="903" 
d="M357 1161q-45 0 -73 30t-28 78t39 86t85 38t74 -30t28 -78t-40 -86q-39 -38 -85 -38zM723 1161q-47 0 -74 29t-27 77t40 87q39 39 85 39q45 0 73 -30t28 -78t-39 -86t-86 -38zM233 385q0 -105 45 -167t126 -62t151 87t70 191t-44 166t-126 62t-152 -86t-70 -191zM49 354
q0 199 128 342t312 144q135 0 227 -110t93 -261q0 -201 -128 -345t-312 -144q-133 0 -227 110q-93 110 -93 264z" />
    <glyph glyph-name="divide" unicode="&#xf7;" horiz-adv-x="978" 
d="M330 328q0 53 42 96t92 43t80 -33t30 -85t-44 -96q-43 -44 -92 -44t-79 33q-29 33 -29 86zM139 627q-14 0 -22 11t-6 28l12 86q2 14 13 26t26 13h719q14 1 22 -11t6 -28l-12 -86q-2 -14 -13 -26t-26 -13h-719zM545 965q-49 -1 -79 33t-30 86t43 96t92 43q49 0 79 -33
t30 -85t-43 -96t-92 -44z" />
    <glyph glyph-name="oslash" unicode="&#xf8;" horiz-adv-x="903" 
d="M393 156q92 0 162 87t70 206q0 37 -11 77l-329 -317q43 -53 108 -53zM244 291l329 317q-43 54 -121 54t-149 -86q-70 -86 -70 -205q1 -49 11 -80zM49 354q0 199 128 342t312 144q129 0 222 -103l51 51q10 12 24 12t23 -12l14 -14q25 -25 -6 -53l-57 -55q49 -92 49 -197
q0 -201 -128 -345t-312 -144q-129 0 -219 100l-44 -43q-27 -28 -59 16q-25 25 4 53l47 46q-49 94 -49 202z" />
    <glyph glyph-name="ugrave" unicode="&#xf9;" horiz-adv-x="952" 
d="M682 1118l-287 144q-35 16 -12 53l53 84q18 27 49 6l269 -186q23 -12 6 -39l-31 -54q-14 -24 -47 -8zM338 -20q-154 0 -210 106t-34 281l58 413q8 39 41 39h124q13 0 23 -11t8 -28l-59 -418q-15 -98 17 -152t96 -54t122 50q57 50 68 79l67 495q4 39 48 39h112
q13 0 23 -11t8 -28l-105 -741q-2 -15 -14 -27t-26 -12h-60q-20 0 -29 33l-12 59q-112 -112 -266 -112z" />
    <glyph glyph-name="uacute" unicode="&#xfa;" horiz-adv-x="952" 
d="M428 1112q-37 -16 -45 12l-23 64q-8 25 17 39l319 186q8 8 26 6t26 -20l34 -90q14 -35 -18 -49zM338 -20q-154 0 -210 106t-34 281l58 413q8 39 41 39h124q13 0 23 -11t8 -28l-59 -418q-15 -98 17 -152t96 -54t122 50q57 50 68 79l67 495q4 39 48 39h112q13 0 23 -11
t8 -28l-105 -741q-2 -15 -14 -27t-26 -12h-60q-20 0 -29 33l-12 59q-112 -112 -266 -112z" />
    <glyph glyph-name="ucircumflex" unicode="&#xfb;" horiz-adv-x="952" 
d="M365 1104q-22 -14 -29 -8q-8 6 -17 18l-28 41q-18 31 10 49l258 201q25 16 45 0l201 -201q20 -20 4 -43l-37 -45q-23 -25 -47 -4l-158 123zM338 -20q-154 0 -210 106t-34 281l58 413q8 39 41 39h124q13 0 23 -11t8 -28l-59 -418q-15 -98 17 -152t96 -54t122 50
q57 50 68 79l67 495q4 39 48 39h112q13 0 23 -11t8 -28l-105 -741q-2 -15 -14 -27t-26 -12h-60q-20 0 -29 33l-12 59q-112 -112 -266 -112z" />
    <glyph glyph-name="udieresis" unicode="&#xfc;" horiz-adv-x="952" 
d="M380 1161q-46 0 -74 30t-28 78t39 86t85 38t74 -30t28 -78t-39 -86t-85 -38zM745 1161q-47 0 -73 29t-27 77q0 48 38 87t85 39t75 -30q27 -30 27 -78t-39 -86t-86 -38zM338 -20q-154 0 -210 106t-34 281l58 413q8 39 41 39h124q13 0 23 -11t8 -28l-59 -418
q-15 -98 17 -152t96 -54t122 50q57 50 68 79l67 495q4 39 48 39h112q13 0 23 -11t8 -28l-105 -741q-2 -15 -14 -27t-26 -12h-60q-20 0 -29 33l-12 59q-112 -112 -266 -112z" />
    <glyph glyph-name="yacute" unicode="&#xfd;" horiz-adv-x="870" 
d="M377 1112q-37 -16 -45 12l-23 64q-8 25 17 39l319 186q9 8 27 6t24 -20l35 -90q14 -35 -18 -49zM82 819h119q20 0 28 -22l150 -549h2l295 549q12 23 45 22h119q24 0 30 -16t-6 -37l-751 -1356q-12 -25 -35 -24h-129q-23 0 -29 14t6 37l330 606l-209 727q-6 20 4 34t31 15
z" />
    <glyph glyph-name="thorn" unicode="&#xfe;" 
d="M283 225q59 -69 148 -69t158 87t69 193t-43 165q-42 61 -102 61t-109 -26t-74 -65zM129 -616h-127q-14 0 -24 11q-9 11 -7 27l279 1973q2 14 13 26t26 13h129q14 0 22 -12t6 -27l-86 -625q92 68 191 68q129 0 214 -106t85 -261q0 -211 -122 -351t-312 -140q-80 0 -160 55
l-86 -613q-2 -14 -14 -26t-27 -12z" />
    <glyph glyph-name="ydieresis" unicode="&#xff;" horiz-adv-x="870" 
d="M329 1161q-46 0 -74 30t-28 78t39 86t85 38t74 -30t28 -78t-39 -86t-85 -38zM694 1161q-48 0 -74 29t-26 77t39 87t85 39t74 -30t28 -78t-40 -86q-39 -38 -86 -38zM82 819h119q20 0 28 -22l150 -549h2l295 549q12 23 45 22h119q24 0 30 -16t-6 -37l-751 -1356
q-12 -25 -35 -24h-129q-23 0 -29 14t6 37l330 606l-209 727q-6 20 4 34t31 15z" />
    <glyph glyph-name="Amacron" unicode="&#x100;" horiz-adv-x="1234" 
d="M545 1667q-35 0 -31 37l8 57q6 39 41 39h471q35 0 31 -39l-8 -57q-4 -37 -41 -37h-471zM399 487h430l-133 564h-8zM-35 0q-20 0 -27 16t3 37l761 1379q10 23 35 22h19q20 0 28 -22l371 -1379q4 -21 -7 -37t-32 -16h-123q-37 0 -43 31l-73 284h-564l-157 -284
q-18 -31 -52 -31h-139z" />
    <glyph glyph-name="amacron" unicode="&#x101;" 
d="M453 662q-97 0 -153 -88t-56 -196q0 -110 41 -166t99 -56t115 37t83 90l34 286q-6 9 -18 25t-55 42t-90 26zM696 0h-67q-25 0 -27 29l-6 61q-111 -110 -245 -110t-218 108t-84 285q0 176 122 321t290 146q55 0 118 -28t99 -73l27 52q14 29 38 28h62q15 1 23 -11t6 -28
l-97 -741q-2 -15 -14 -27t-27 -12zM291 1180q-35 0 -31 37l8 57q6 39 41 39h473q14 0 22 -11t7 -28l-8 -57q-4 -37 -41 -37h-471z" />
    <glyph glyph-name="Abreve" unicode="&#x102;" horiz-adv-x="1234" 
d="M780 1573q-98 0 -162 68q-63 69 -63 169q0 43 37 43h55q25 0 29 -30q4 -53 36 -87t79 -34t86 35t59 86q14 31 37 30h67q39 0 25 -43q-31 -104 -109 -170t-176 -67zM399 487h430l-133 564h-8zM-35 0q-20 0 -27 16t3 37l761 1379q10 23 35 22h19q20 0 28 -22l371 -1379
q4 -21 -7 -37t-32 -16h-123q-37 0 -43 31l-73 284h-564l-157 -284q-18 -31 -52 -31h-139z" />
    <glyph glyph-name="abreve" unicode="&#x103;" 
d="M453 662q-97 0 -153 -88t-56 -196q0 -110 41 -166t99 -56t115 37t83 90l34 286q-6 9 -18 25t-55 42t-90 26zM696 0h-67q-25 0 -27 29l-6 61q-111 -110 -245 -110t-218 108t-84 285q0 176 122 321t290 146q55 0 118 -28t99 -73l27 52q14 29 38 28h62q15 1 23 -11t6 -28
l-97 -741q-2 -15 -14 -27t-27 -12zM530 1083q-98 0 -161 69t-64 169q0 43 37 43h55q25 0 29 -31q4 -53 36 -87t79 -34t86 35t56 76t40 41h68q39 0 24 -43q-31 -104 -109 -171t-176 -67z" />
    <glyph glyph-name="Aogonek" unicode="&#x104;" horiz-adv-x="1234" 
d="M399 487h430l-133 564h-8zM-35 0q-20 0 -27 16t3 37l761 1379q10 23 35 22h19q20 0 28 -22l371 -1379q4 -21 -7 -37t-32 -16h-72q-117 -104 -116 -219q0 -47 26 -76t67 -29q42 0 101 27q16 6 24 -3t7 -28l-8 -59q-2 -20 -37 -41t-120 -21q-85 -1 -140 49t-55 128t45 161
t116 129l-77 297h-564l-157 -284q-18 -31 -52 -31h-139z" />
    <glyph glyph-name="aogonek" unicode="&#x105;" 
d="M453 662q-97 0 -153 -88t-56 -196q0 -110 41 -166t99 -56t115 37t83 90l34 286q-6 9 -18 25t-55 42t-90 26zM696 0h-4q-117 -104 -117 -219q0 -47 26 -76t68 -29t101 27q16 6 24 -3t7 -28l-8 -59q-2 -20 -37 -41t-120 -21q-85 -1 -140 49q-56 50 -56 129t38 147t68 96
t56 48l-6 70q-111 -110 -245 -110t-218 108t-84 285q0 176 122 321t290 146q55 0 118 -28t99 -73l27 52q14 29 38 28h62q15 1 23 -11t6 -28l-97 -741q-2 -15 -14 -27t-27 -12z" />
    <glyph glyph-name="Cacute" unicode="&#x106;" horiz-adv-x="1310" 
d="M788 1583q-37 -16 -45 12l-22 64q-8 25 16 39l320 186q8 8 26 6t25 -20l35 -90q14 -35 -19 -49zM117 635q0 344 227 582t549 237q248 0 420 -190q25 -27 -6 -58l-84 -76q-31 -31 -64 3q-49 51 -124 85t-154 33q-209 0 -371 -187t-162 -429q0 -188 99 -313t259 -125
t326 133q33 29 58 -2l81 -95q7 -10 5 -27t-13 -28q-213 -198 -468 -198t-417 186t-161 469z" />
    <glyph glyph-name="cacute" unicode="&#x107;" horiz-adv-x="825" 
d="M420 1112q-37 -16 -45 12l-23 64q-8 25 17 39l319 186q8 8 26 6t25 -20l35 -90q14 -35 -18 -49zM49 350q0 203 136 346t319 144q82 0 148 -40t102 -106q18 -33 -15 -57l-73 -51q-29 -18 -48 8q-53 68 -138 68q-86 0 -160 -90t-74 -196t42 -163t113 -57q39 0 76 20t51 36
t41 50q23 25 47 4l74 -57q31 -25 4 -57q-127 -172 -311 -172q-139 0 -237 106q-97 106 -97 264z" />
    <glyph glyph-name="Ccircumflex" unicode="&#x108;" horiz-adv-x="1310" 
d="M725 1581q-20 -14 -29 -8q-8 6 -16 18l-29 41q-18 31 11 49l258 201q25 16 45 0l200 -201q20 -20 4 -43l-36 -45q-23 -25 -48 -4l-157 123zM117 635q0 344 227 582t549 237q248 0 420 -190q25 -27 -6 -58l-84 -76q-31 -31 -64 3q-49 51 -124 85t-154 33q-209 0 -371 -187
t-162 -429q0 -188 99 -313t259 -125t326 133q33 29 58 -2l81 -95q7 -10 5 -27t-13 -28q-213 -198 -468 -198t-417 186t-161 469z" />
    <glyph glyph-name="ccircumflex" unicode="&#x109;" horiz-adv-x="825" 
d="M358 1104q-20 -14 -28 -8t-17 18l-28 41q-18 31 10 49l258 201q25 16 45 0l201 -201q20 -20 4 -43l-37 -45q-23 -25 -47 -4l-158 123zM49 350q0 203 136 346t319 144q82 0 148 -40t102 -106q18 -33 -15 -57l-73 -51q-29 -18 -48 8q-53 68 -138 68q-86 0 -160 -90
t-74 -196t42 -163t113 -57q39 0 76 20t51 36t41 50q23 25 47 4l74 -57q31 -25 4 -57q-127 -172 -311 -172q-139 0 -237 106q-97 106 -97 264z" />
    <glyph glyph-name="Cdotaccent" unicode="&#x10a;" horiz-adv-x="1310" 
d="M1059 1757q-1 -55 -45 -99t-95 -44t-81 34t-31 88q0 54 43 98t95 44t83 -33t31 -88zM117 635q0 344 227 582t549 237q248 0 420 -190q25 -27 -6 -58l-84 -76q-31 -31 -64 3q-49 51 -124 85t-154 33q-209 0 -371 -187t-162 -429q0 -188 99 -313t259 -125t326 133
q33 29 58 -2l81 -95q7 -10 5 -27t-13 -28q-213 -198 -468 -198t-417 186t-161 469z" />
    <glyph glyph-name="cdotaccent" unicode="&#x10b;" horiz-adv-x="825" 
d="M438 1250q0 54 44 98t96 45q52 0 82 -34t30 -88q0 -55 -44 -99t-95 -44t-82 34t-31 88zM49 350q0 203 136 346t319 144q82 0 148 -40t102 -106q18 -33 -15 -57l-73 -51q-29 -18 -48 8q-53 68 -138 68q-86 0 -160 -90t-74 -196t42 -163t113 -57q39 0 76 20t51 36t41 50
q23 25 47 4l74 -57q31 -25 4 -57q-127 -172 -311 -172q-139 0 -237 106q-97 106 -97 264z" />
    <glyph glyph-name="Ccaron" unicode="&#x10c;" horiz-adv-x="1310" 
d="M895 1575l-201 201q-20 20 -4 43l37 45q23 25 47 4l158 -123l203 131q21 14 29 8t16 -18l28 -41q18 -31 -10 -49l-258 -201q-25 -16 -45 0zM117 635q0 344 227 582t549 237q248 0 420 -190q25 -27 -6 -58l-84 -76q-31 -31 -64 3q-49 51 -124 85t-154 33q-209 0 -371 -187
t-162 -429q0 -188 99 -313t259 -125t326 133q33 29 58 -2l81 -95q7 -10 5 -27t-13 -28q-213 -198 -468 -198t-417 186t-161 469z" />
    <glyph glyph-name="ccaron" unicode="&#x10d;" horiz-adv-x="825" 
d="M526 1098l-200 200q-20 20 -4 43l36 45q23 25 48 5l157 -123l203 131q20 14 29 8q8 -6 16 -18l29 -41q18 -31 -11 -50l-258 -200q-25 -16 -45 0zM49 350q0 203 136 346t319 144q82 0 148 -40t102 -106q18 -33 -15 -57l-73 -51q-29 -18 -48 8q-53 68 -138 68
q-86 0 -160 -90t-74 -196t42 -163t113 -57q39 0 76 20t51 36t41 50q23 25 47 4l74 -57q31 -25 4 -57q-127 -172 -311 -172q-139 0 -237 106q-97 106 -97 264z" />
    <glyph glyph-name="Dcaron" unicode="&#x10e;" horiz-adv-x="1406" 
d="M745 1575l-200 201q-20 20 -4 43l37 45q23 25 47 4l157 -123l203 131q22 14 29 8q8 -6 16 -18l29 -41q18 -31 -10 -49l-258 -201q-26 -16 -46 0zM578 195q218 0 372 175t154 431q0 190 -104 314t-275 124h-229l-148 -1044h230zM776 1434q238 0 396 -184t159 -441
q0 -337 -219 -573t-537 -236h-430q-14 0 -22 12t-4 27l190 1356q1 14 13 26t26 13h428z" />
    <glyph glyph-name="dcaron" unicode="&#x10f;" horiz-adv-x="1003" 
d="M1194 1200q-41 0 -71 33q-29 33 -29 84t43 94t96 43t89 -38t36 -120q0 -215 -219 -419q-27 -26 -45 -3l-23 31q-18 23 10 47l31 28q109 95 129 226q-6 -6 -47 -6zM397 156q45 0 99 36t86 91l43 331q-51 48 -147 48t-165 -88t-69 -192q0 -106 40 -166t113 -60zM351 -20
q-134 0 -218 106t-84 258q0 209 128 352t308 144q84 0 162 -47l84 602q6 39 49 39h117q13 0 23 -12t8 -27l-191 -1356q-8 -39 -41 -39h-61q-20 0 -27 29l-12 61q-111 -110 -245 -110z" />
    <glyph glyph-name="Dcroat" unicode="&#x110;" horiz-adv-x="1413" 
d="M586 195q218 0 372 175t154 431q0 190 -104 314t-275 124h-229l-68 -481h328q14 0 24 -12t7 -27l-4 -23q-8 -37 -41 -37h-328l-66 -464h230zM160 659q-14 -1 -22 11t-5 28l4 21q8 39 37 39h53l90 637q1 14 13 26t26 13h428q236 0 396 -186t159 -437q0 -335 -220 -573
t-535 -238h-430q-14 0 -23 11q-8 12 -4 28l86 620h-53z" />
    <glyph glyph-name="dcroat" unicode="&#x111;" 
d="M397 156q45 0 99 36t86 91l43 331q-51 48 -147 48t-165 -88t-69 -192q0 -106 40 -166t113 -60zM351 -20q-134 0 -218 106t-84 258q0 209 128 352t308 144q84 0 162 -47l41 301h-233q-16 0 -25 11q-8 11 -6 25l4 23q8 39 39 39h235l29 203q6 39 49 39h117q13 0 23 -12
t8 -27l-29 -203h62q36 0 23 -62q-7 -36 -38 -36h-61l-148 -1055q-8 -39 -41 -39h-61q-20 0 -27 29l-12 61q-111 -110 -245 -110z" />
    <glyph glyph-name="Emacron" unicode="&#x112;" horiz-adv-x="1118" 
d="M530 1667q-35 0 -30 37l8 57q6 39 41 39h471q35 0 31 -39l-9 -57q-4 -37 -41 -37h-471zM1092 1434q33 0 28 -39l-16 -115q-2 -16 -13 -28t-26 -11h-567l-60 -418h477q15 0 23 -11t6 -28l-16 -114q-6 -39 -39 -39h-477l-62 -441h568q14 0 22 -11t6 -27l-16 -113
q-2 -15 -14 -27t-27 -12h-742q-14 0 -23 12t-5 27l190 1356q1 14 13 26t26 13h744z" />
    <glyph glyph-name="emacron" unicode="&#x113;" horiz-adv-x="843" 
d="M315 1180q-35 0 -30 37l8 57q6 39 41 39h473q31 0 29 -39l-9 -57q-4 -37 -41 -37h-471zM596 596q0 38 -33 62t-78 24q-83 0 -141 -51t-76 -131q328 -29 328 96zM49 346q0 201 128 347t329 147q118 0 196 -62t78 -158t-54 -153t-136 -79q-198 -53 -352 -26q-8 -88 34 -149
t125 -61q82 0 166 57q35 23 49 2l56 -76q23 -29 -11 -53q-127 -102 -280 -102t-241 105q-87 105 -87 261z" />
    <glyph glyph-name="Ebreve" unicode="&#x114;" horiz-adv-x="1118" 
d="M766 1573q-98 0 -162 68q-63 69 -63 169q0 43 37 43h55q25 0 29 -30q4 -53 36 -87t78 -34q47 0 86 35q38 35 56 76t40 40h68q39 0 25 -43q-31 -104 -109 -170t-176 -67zM1092 1434q33 0 28 -39l-16 -115q-2 -16 -13 -28t-26 -11h-567l-60 -418h477q15 0 23 -11t6 -28
l-16 -114q-6 -39 -39 -39h-477l-62 -441h568q14 0 22 -11t6 -27l-16 -113q-2 -15 -14 -27t-27 -12h-742q-14 0 -23 12t-5 27l190 1356q1 14 13 26t26 13h744z" />
    <glyph glyph-name="ebreve" unicode="&#x115;" horiz-adv-x="843" 
d="M553 1083q-98 0 -162 69q-63 69 -63 169q0 43 37 43h55q25 0 29 -31q3 -53 35 -87t79 -34t86 35t57 76t39 41h68q39 0 25 -43q-31 -104 -109 -171t-176 -67zM596 596q0 38 -33 62t-78 24q-83 0 -141 -51t-76 -131q328 -29 328 96zM49 346q0 201 128 347t329 147
q118 0 196 -62t78 -158t-54 -153t-136 -79q-198 -53 -352 -26q-8 -88 34 -149t125 -61q82 0 166 57q35 23 49 2l56 -76q23 -29 -11 -53q-127 -102 -280 -102t-241 105q-87 105 -87 261z" />
    <glyph glyph-name="Edotaccent" unicode="&#x116;" horiz-adv-x="1118" 
d="M766 1614q-51 0 -82 34t-31 88t44 98q43 44 95 44t82 -33t31 -88q0 -55 -44 -99t-95 -44zM1092 1434q33 0 28 -39l-16 -115q-2 -16 -13 -28t-26 -11h-567l-60 -418h477q15 0 23 -11t6 -28l-16 -114q-6 -39 -39 -39h-477l-62 -441h568q14 0 22 -11t6 -27l-16 -113
q-2 -15 -14 -27t-27 -12h-742q-14 0 -23 12t-5 27l190 1356q1 14 13 26t26 13h744z" />
    <glyph glyph-name="edotaccent" unicode="&#x117;" horiz-adv-x="843" 
d="M438 1250q0 54 44 98t96 45q52 0 82 -34t30 -88q0 -55 -44 -99t-95 -44t-82 34t-31 88zM596 596q0 38 -33 62t-78 24q-83 0 -141 -51t-76 -131q328 -29 328 96zM49 346q0 201 128 347t329 147q118 0 196 -62t78 -158t-54 -153t-136 -79q-198 -53 -352 -26q-8 -88 34 -149
t125 -61q82 0 166 57q35 23 49 2l56 -76q23 -29 -11 -53q-127 -102 -280 -102t-241 105q-87 105 -87 261z" />
    <glyph glyph-name="Eogonek" unicode="&#x118;" horiz-adv-x="1116" 
d="M1092 1434q33 0 28 -39l-16 -115q-2 -16 -13 -28t-26 -11h-567l-60 -418h477q15 0 23 -11t6 -28l-16 -114q-6 -39 -39 -39h-477l-62 -441h568q14 0 22 -11t6 -27l-14 -97q-3 -28 -27 -45l-14 -10q-117 -104 -117 -219q0 -47 26 -76t68 -29t101 27q16 6 25 -3t5 -28
l-8 -59q-3 -20 -37 -41t-119 -21q-85 -1 -141 49t-55 134q0 152 137 266h-629q-14 0 -23 12t-5 27l190 1356q1 14 13 26t26 13h744z" />
    <glyph glyph-name="eogonek" unicode="&#x119;" horiz-adv-x="845" 
d="M598 596q0 38 -33 62t-78 24q-83 0 -141 -51t-76 -131q328 -29 328 96zM51 346q0 201 128 347t329 147q119 0 197 -62t77 -172q0 -82 -54 -139t-136 -79q-198 -53 -352 -26q-8 -88 34 -150t124 -62q81 0 167 59q35 23 49 2l56 -76q23 -29 -11 -53q-102 -82 -231 -98
q-98 -98 -98 -203q0 -47 26 -76t67 -29q42 0 101 27q16 6 24 -3t7 -28l-8 -59q-2 -20 -37 -41t-120 -21q-85 -1 -140 49t-55 134q-1 137 118 252q-121 20 -191 120t-71 240z" />
    <glyph glyph-name="Ecaron" unicode="&#x11a;" horiz-adv-x="1118" 
d="M737 1575l-200 201q-20 20 -5 43l37 45q23 25 47 4l158 -123l203 131q20 14 29 8q8 -6 16 -18l29 -41q18 -31 -11 -49l-258 -201q-25 -16 -45 0zM1092 1434q33 0 28 -39l-16 -115q-2 -16 -13 -28t-26 -11h-567l-60 -418h477q15 0 23 -11t6 -28l-16 -114q-6 -39 -39 -39
h-477l-62 -441h568q14 0 22 -11t6 -27l-16 -113q-2 -15 -14 -27t-27 -12h-742q-14 0 -23 12t-5 27l190 1356q1 14 13 26t26 13h744z" />
    <glyph glyph-name="ecaron" unicode="&#x11b;" horiz-adv-x="843" 
d="M524 1098l-200 200q-20 20 -5 43l37 45q23 25 47 5l158 -123l203 131q20 14 29 8q8 -6 16 -18l29 -41q18 -31 -11 -50l-258 -200q-25 -16 -45 0zM596 596q0 38 -33 62t-78 24q-83 0 -141 -51t-76 -131q328 -29 328 96zM49 346q0 201 128 347t329 147q118 0 196 -62
t78 -158t-54 -153t-136 -79q-198 -53 -352 -26q-8 -88 34 -149t125 -61q82 0 166 57q35 23 49 2l56 -76q23 -29 -11 -53q-127 -102 -280 -102t-241 105q-87 105 -87 261z" />
    <glyph glyph-name="Gcircumflex" unicode="&#x11c;" horiz-adv-x="1363" 
d="M754 1581q-22 -14 -29 -8q-8 6 -16 18l-29 41q-18 31 10 49l258 201q25 16 45 0l201 -201q20 -20 4 -43l-37 -45q-23 -25 -47 -4l-158 123zM117 616q0 358 225 598t551 240q248 0 420 -190q25 -27 -6 -58l-82 -78q-31 -31 -64 2q-49 50 -125 86t-155 35q-209 0 -370 -182
t-161 -424q0 -190 102 -322q102 -133 254 -133q154 0 279 68l33 229h-168q-14 1 -24 11t-5 26l17 119q4 39 41 39h342q29 0 28 -35l-67 -500q-4 -20 -24 -33t-62 -36t-165 -61q-124 -38 -243 -37q-248 0 -410 184t-161 452z" />
    <glyph glyph-name="gcircumflex" unicode="&#x11d;" horiz-adv-x="942" 
d="M344 1104q-21 -14 -29 -8t-16 18l-29 41q-18 31 11 49l258 201q25 16 45 0l200 -201q20 -20 4 -43l-36 -45q-23 -25 -47 -4l-158 123zM463 662q-96 0 -162 -88q-65 -88 -65 -191t46 -165t124 -62q79 0 139 43l18 14l49 342q-6 27 -46 67t-103 40zM352 -20
q-131 0 -218 112t-87 264q0 193 123 338t295 146q55 0 118 -28t99 -73l27 52q14 29 39 28h61q31 0 29 -39l-117 -858q-61 -455 -399 -454q-136 0 -222 74q-58 53 -79 89q-21 37 10 64l65 59q27 22 48 0q20 -22 28 -32q59 -74 145 -74t133 59q46 59 70 215l15 101
q-20 -11 -73 -27t-110 -16z" />
    <glyph glyph-name="Gbreve" unicode="&#x11e;" horiz-adv-x="1363" 
d="M932 1573q-98 0 -162 68q-63 69 -63 169q0 43 36 43h56q25 0 28 -30q4 -53 36 -87t79 -34t86 35t59 86q14 31 37 30h68q39 0 25 -43q-31 -104 -109 -170t-176 -67zM117 616q0 358 225 598t551 240q248 0 420 -190q25 -27 -6 -58l-82 -78q-31 -31 -64 2q-49 50 -125 86
t-155 35q-209 0 -370 -182t-161 -424q0 -190 102 -322q102 -133 254 -133q154 0 279 68l33 229h-168q-14 1 -24 11t-5 26l17 119q4 39 41 39h342q29 0 28 -35l-67 -500q-4 -20 -24 -33t-62 -36t-165 -61q-124 -38 -243 -37q-248 0 -410 184t-161 452z" />
    <glyph glyph-name="gbreve" unicode="&#x11f;" horiz-adv-x="942" 
d="M543 1083q-98 0 -162 69q-63 69 -64 169q0 43 37 43h56q24 0 28 -42t36 -76t79 -34t86 35t56 76t40 41h68q39 0 24 -43q-31 -104 -109 -171t-175 -67zM463 662q-96 0 -162 -88q-65 -88 -65 -191t46 -165t124 -62q79 0 139 43l18 14l49 342q-6 27 -46 67t-103 40zM352 -20
q-131 0 -218 112t-87 264q0 193 123 338t295 146q55 0 118 -28t99 -73l27 52q14 29 39 28h61q31 0 29 -39l-117 -858q-61 -455 -399 -454q-136 0 -222 74q-58 53 -79 89q-21 37 10 64l65 59q27 22 48 0q20 -22 28 -32q59 -74 145 -74t133 59q46 59 70 215l15 101
q-20 -11 -73 -27t-110 -16z" />
    <glyph glyph-name="Gdotaccent" unicode="&#x120;" horiz-adv-x="1363" 
d="M930 1614q-51 0 -82 34t-31 88t44 98q43 44 95 44t82 -33t31 -88q0 -55 -44 -99t-95 -44zM117 616q0 358 225 598t551 240q248 0 420 -190q25 -27 -6 -58l-82 -78q-31 -31 -64 2q-49 50 -125 86t-155 35q-209 0 -370 -182t-161 -424q0 -190 102 -322q102 -133 254 -133
q154 0 279 68l33 229h-168q-14 1 -24 11t-5 26l17 119q4 39 41 39h342q29 0 28 -35l-67 -500q-4 -20 -24 -33t-62 -36t-165 -61q-124 -38 -243 -37q-248 0 -410 184t-161 452z" />
    <glyph glyph-name="gdotaccent" unicode="&#x121;" horiz-adv-x="942" 
d="M534 1128q-52 0 -82 34t-30 88t44 98t95 45q51 0 82 -34t31 -88t-44 -99q-45 -44 -96 -44zM463 662q-96 0 -162 -88q-65 -88 -65 -191t46 -165t124 -62q79 0 139 43l18 14l49 342q-6 27 -46 67t-103 40zM352 -20q-131 0 -218 112t-87 264q0 193 123 338t295 146
q55 0 118 -28t99 -73l27 52q14 29 39 28h61q31 0 29 -39l-117 -858q-61 -455 -399 -454q-136 0 -222 74q-58 53 -79 89q-21 37 10 64l65 59q27 22 48 0q20 -22 28 -32q59 -74 145 -74t133 59q46 59 70 215l15 101q-20 -11 -73 -27t-110 -16z" />
    <glyph glyph-name="Gcommaaccent" unicode="&#x122;" horiz-adv-x="1363" 
d="M614 -442q-42 0 -70 32q-30 32 -30 84q0 50 42 94t96 44t90 -38t36 -120q0 -215 -219 -420q-27 -25 -45 -2l-22 31q-18 23 10 47q6 6 40 36t70 87q35 56 50 131q-6 -6 -48 -6zM117 616q0 358 225 598t551 240q248 0 420 -190q25 -27 -6 -58l-82 -78q-31 -31 -64 2
q-49 50 -125 86t-155 35q-209 0 -370 -182t-161 -424q0 -190 102 -322q102 -133 254 -133q154 0 279 68l33 229h-168q-14 1 -24 11t-5 26l17 119q4 39 41 39h342q29 0 28 -35l-67 -500q-4 -20 -24 -33t-62 -36t-165 -61q-124 -38 -243 -37q-248 0 -410 184t-161 452z" />
    <glyph glyph-name="gcommaaccent" unicode="&#x123;" horiz-adv-x="942" 
d="M463 662q-96 0 -162 -88q-65 -88 -65 -191t46 -165t124 -62q79 0 139 43l18 14l49 342q-6 27 -46 67t-103 40zM352 -20q-131 0 -218 112t-87 264q0 193 123 338t295 146q55 0 118 -28t99 -73l27 52q14 29 39 28h61q31 0 29 -39l-117 -858q-61 -455 -399 -454
q-136 0 -222 74q-58 53 -79 89q-21 37 10 64l65 59q27 22 48 0q20 -22 28 -32q59 -74 145 -74t133 59q46 59 70 215l15 101q-20 -11 -73 -27t-110 -16zM582 1337q40 -1 70 -33t30 -84t-42 -94t-96 -43q-54 0 -90 38t-36 120q0 215 219 420q27 25 45 2l23 -31q18 -23 -11 -47
q-6 -6 -40 -36t-71 -89q-37 -58 -48 -129q6 6 47 6z" />
    <glyph glyph-name="Hcircumflex" unicode="&#x124;" horiz-adv-x="1456" 
d="M684 1581q-20 -14 -29 -8q-8 6 -16 18l-29 41q-18 31 11 49l258 201q25 16 45 0l200 -201q20 -20 4 -43l-36 -45q-23 -25 -48 -4l-157 123zM350 1434h144q14 0 23 -12t7 -27l-82 -572h643l80 572q8 39 41 39h144q14 0 22 -12t6 -27l-190 -1356q-2 -15 -13 -27t-26 -12
h-143q-14 0 -24 11q-9 11 -7 28l84 592h-643l-84 -592q-2 -15 -14 -27t-25 -12h-143q-14 0 -24 11q-9 12 -7 28l190 1356q8 39 41 39z" />
    <glyph glyph-name="hcircumflex" unicode="&#x125;" horiz-adv-x="976" 
d="M176 1548q-21 -14 -29 -8t-16 19l-29 40q-18 31 11 50l258 200q25 16 45 0l200 -200q20 -20 5 -43l-37 -45q-23 -25 -47 -5l-158 123zM416 1434q14 0 22 -12t6 -27l-90 -643q113 88 224 88q154 0 220 -108t42 -281l-58 -412q-2 -15 -14 -27t-27 -12h-123q-33 0 -28 39
l57 412q14 100 -17 154q-32 54 -100 54t-124 -45t-82 -86l-70 -489q-6 -39 -43 -39h-125q-14 0 -23 11q-8 12 -6 28l191 1356q2 14 13 26t26 13h129z" />
    <glyph glyph-name="Hbar" unicode="&#x126;" horiz-adv-x="1456" 
d="M442 823h643l39 271h-643zM221 1094q-31 0 -26 49t41 49h47l26 203q8 39 41 39h144q14 0 23 -12t7 -27l-28 -203h641l28 203q8 39 41 39h144q14 0 22 -12t6 -27l-26 -203h43q33 0 28 -39l-2 -23q-4 -37 -41 -36h-43l-149 -1055q-2 -15 -13 -27t-26 -12h-143q-14 0 -24 11
q-9 11 -7 28l84 592h-643l-84 -592q-2 -15 -14 -27t-25 -12h-143q-14 0 -24 11q-9 12 -7 28l149 1055h-47z" />
    <glyph glyph-name="hbar" unicode="&#x127;" horiz-adv-x="976" 
d="M145 1094q-31 0 -26 49t41 49h59l29 203q2 14 13 26t26 13h129q14 0 22 -12t6 -27l-28 -203h237q15 0 23 -11t6 -28l-4 -23q-4 -37 -39 -36h-238l-47 -342q113 88 224 88q154 0 220 -108t42 -281l-58 -412q-2 -15 -14 -27t-27 -12h-123q-33 0 -28 39l57 412
q14 100 -17 154q-32 54 -100 54t-124 -45t-82 -86l-70 -489q-6 -39 -43 -39h-125q-14 0 -23 11q-8 12 -6 28l148 1055h-60z" />
    <glyph glyph-name="Itilde" unicode="&#x128;" horiz-adv-x="598" 
d="M370 1870q48 0 81 -33t55 -65t45 -33q41 0 86 82q20 39 51 18l39 -29q31 -25 4 -65q-84 -154 -190 -154q-57 0 -134 101q-26 33 -45 32q-39 0 -83 -84q-21 -36 -46 -20l-53 31q-20 16 -8 47q32 77 91 124q59 48 107 48zM492 1434q14 0 22 -12t6 -27l-190 -1356
q-2 -15 -14 -27t-25 -12h-144q-14 0 -22 12t-6 27l190 1356q1 14 13 26t26 13h144z" />
    <glyph glyph-name="itilde" unicode="&#x129;" horiz-adv-x="458" 
d="M201 819h125q14 0 23 -11t7 -28l-104 -741q-2 -15 -14 -27t-27 -12h-125q-14 0 -23 12q-8 13 -6 27l103 741q8 39 41 39zM236 1413q48 0 80 -33q32 -34 55 -66t44 -32t40 16q18 16 24 28t23 38q20 39 51 18l39 -28q31 -25 4 -66q-84 -154 -190 -153q-59 0 -135 99
q-26 34 -44 34q-39 0 -84 -84q-20 -37 -45 -21l-53 31q-20 16 -8 47q32 78 92 125q59 47 107 47z" />
    <glyph glyph-name="Imacron" unicode="&#x12a;" horiz-adv-x="598" 
d="M213 1667q-35 0 -31 37l8 57q6 39 41 39h471q35 0 31 -39l-8 -57q-4 -37 -41 -37h-471zM492 1434q14 0 22 -12t6 -27l-190 -1356q-2 -15 -14 -27t-25 -12h-144q-14 0 -22 12t-6 27l190 1356q1 14 13 26t26 13h144z" />
    <glyph glyph-name="imacron" unicode="&#x12b;" horiz-adv-x="458" 
d="M201 819h125q14 0 23 -11t7 -28l-104 -741q-2 -15 -14 -27t-27 -12h-125q-14 0 -23 12q-8 13 -6 27l103 741q8 39 41 39zM72 1180q-35 0 -31 37l8 57q6 39 41 39h473q15 0 23 -11t6 -28l-8 -57q-4 -37 -41 -37h-471z" />
    <glyph glyph-name="Ibreve" unicode="&#x12c;" horiz-adv-x="598" 
d="M446 1573q-98 1 -161 69t-64 168q0 43 37 43h55q25 0 29 -30q4 -53 36 -87t79 -34t86 35t59 86q14 31 37 30h68q39 0 24 -43q-31 -104 -108 -171q-79 -66 -177 -66zM492 1434q14 0 22 -12t6 -27l-190 -1356q-2 -15 -14 -27t-25 -12h-144q-14 0 -22 12t-6 27l190 1356
q1 14 13 26t26 13h144z" />
    <glyph glyph-name="ibreve" unicode="&#x12d;" horiz-adv-x="458" 
d="M201 819h125q14 0 23 -11t7 -28l-104 -741q-2 -15 -14 -27t-27 -12h-125q-14 0 -23 12q-8 13 -6 27l103 741q8 39 41 39zM315 1083q-98 0 -161 69t-64 169q0 43 37 43h55q25 0 29 -31q4 -53 36 -87t79 -34t86 35t56 76t40 41h67q39 0 25 -43q-31 -104 -109 -171t-176 -67
z" />
    <glyph glyph-name="Iogonek" unicode="&#x12e;" horiz-adv-x="598" 
d="M492 1434q14 0 22 -12t6 -27l-190 -1356q-2 -15 -14 -27t-25 -12h-31q-117 -104 -117 -219q0 -47 26 -76t68 -29t101 27q14 6 24 -3t7 -28l-9 -59q-2 -20 -36 -41t-120 -21q-84 -1 -140 49t-56 134q0 152 137 266q-14 0 -22 12t-4 27l190 1356q1 14 13 26t26 13h144z" />
    <glyph glyph-name="iogonek" unicode="&#x12f;" horiz-adv-x="458" 
d="M201 819h127q14 0 22 -11t6 -28l-104 -741q-2 -15 -14 -27t-27 -12h-31q-117 -104 -117 -219q0 -47 26 -76t68 -29t101 27q16 6 24 -3t7 -28l-8 -59q-2 -20 -37 -41t-120 -21q-85 -1 -140 49q-56 50 -56 137t45 158t99 109q-19 10 -15 35l103 741q2 14 14 26t27 13z
M313 1153q-49 0 -75 31q-26 32 -27 80q0 48 39 88t88 41q49 0 78 -31q28 -31 28 -81t-41 -89t-90 -39z" />
    <glyph glyph-name="Idotaccent" unicode="&#x130;" horiz-adv-x="598" 
d="M588 1757q0 -55 -44 -99t-96 -44t-82 34t-30 88t43 98t95 44t83 -33t31 -88zM492 1434q14 0 22 -12t6 -27l-190 -1356q-2 -15 -14 -27t-25 -12h-144q-14 0 -22 12t-6 27l190 1356q1 14 13 26t26 13h144z" />
    <glyph glyph-name="dotlessi" unicode="&#x131;" horiz-adv-x="458" 
d="M201 819h125q14 0 23 -11t7 -28l-104 -741q-2 -15 -14 -27t-27 -12h-125q-14 0 -23 12q-8 13 -6 27l103 741q8 39 41 39z" />
    <glyph glyph-name="IJ" unicode="&#x132;" horiz-adv-x="1398" 
d="M790 168q82 0 141 66q60 66 77 192l135 969q2 16 14 27t27 12h143q13 0 23 -12t6 -27l-135 -967q-61 -449 -428 -448q-104 0 -179 50q-140 96 -86 150l66 64q31 31 57 -4q57 -72 139 -72zM492 1434q14 0 22 -12t6 -27l-190 -1356q-2 -15 -14 -27t-25 -12h-144
q-14 0 -22 12t-6 27l190 1356q1 14 13 26t26 13h144z" />
    <glyph glyph-name="ij" unicode="&#x133;" horiz-adv-x="923" 
d="M666 819h127q14 0 23 -11t7 -28l-145 -1034q-25 -186 -124 -284q-98 -98 -240 -97q-142 0 -220 82q-20 20 0 47l51 76q23 33 52 10q47 -37 114 -37q137 0 168 203l146 1034q2 16 14 28t27 11zM780 1153q-49 0 -77 30q-27 29 -27 79t39 90t88 41q49 0 78 -31t29 -81
t-41 -89q-40 -39 -89 -39zM201 819h127q14 0 22 -11t6 -28l-104 -741q-2 -15 -14 -27t-27 -12h-125q-14 0 -23 11q-8 12 -6 28l103 741q2 14 14 26t27 13zM313 1153q-49 0 -75 31q-26 32 -27 80q0 48 39 88t88 41q49 0 78 -31q28 -31 28 -81t-41 -89t-90 -39z" />
    <glyph glyph-name="Jcircumflex" unicode="&#x134;" horiz-adv-x="804" 
d="M496 1581q-22 -14 -29 -8q-8 6 -16 18l-29 41q-18 31 10 49l258 201q25 16 45 0l201 -201q20 -20 4 -43l-37 -45q-23 -25 -47 -4l-158 123zM196 168q82 0 141 66q60 66 77 192l135 969q2 16 14 27t27 12h143q13 0 23 -12t6 -27l-135 -967q-61 -449 -428 -448
q-104 0 -179 50q-140 96 -86 150l66 64q31 31 57 -4q57 -72 139 -72z" />
    <glyph glyph-name="jcircumflex" unicode="&#x135;" horiz-adv-x="460" 
d="M125 1104q-22 -14 -29 -8q-8 6 -16 18l-29 41q-18 31 10 49l258 201q25 16 46 0l200 -201q20 -20 4 -43l-37 -45q-23 -25 -47 -4l-157 123zM203 819h127q14 0 23 -11t7 -28l-145 -1034q-25 -186 -124 -284t-241 -97q-142 0 -219 82q-20 20 0 47l52 76q23 33 51 10
q45 -37 114 -37q137 0 168 203l146 1034q2 16 14 28t27 11z" />
    <glyph glyph-name="Kcommaaccent" unicode="&#x136;" horiz-adv-x="1216" 
d="M485 -442q-41 0 -71 32t-29 84q0 50 43 94t96 44t89 -38t36 -120q0 -215 -219 -420q-27 -25 -45 -2l-23 31q-18 23 11 47l30 27q109 95 129 227q-6 -6 -47 -6zM489 1434q17 0 29 -14t10 -36l-79 -567l559 590q23 27 55 27h164q25 0 31 -25t-15 -47l-604 -623l451 -671
q14 -20 3 -44t-40 -24h-148q-33 0 -51 27l-424 659l-90 -637q-4 -21 -18 -35t-33 -14h-129q-18 0 -30 14q-11 15 -9 35l188 1335q8 49 51 50h129z" />
    <glyph glyph-name="kcommaaccent" unicode="&#x137;" horiz-adv-x="901" 
d="M246 -326q0 50 43 94t96 44t89 -38t36 -120q0 -215 -219 -420q-27 -25 -45 -2l-23 31q-19 25 23 57q10 10 18 17q109 95 129 227q-6 -6 -47 -6t-71 32q-29 33 -29 84zM416 1434q14 0 22 -12t6 -27l-122 -887l296 287q29 25 54 24h162q24 0 26 -20t-12 -35l-346 -324
l297 -387q12 -13 3 -33t-32 -20h-158q-18 0 -30 16l-277 381l-51 -358q-2 -15 -13 -27t-26 -12h-129q-14 0 -23 11q-8 12 -6 28l191 1356q2 14 13 26t26 13h129z" />
    <glyph glyph-name="kgreenlandic" unicode="&#x138;" horiz-adv-x="884" 
d="M201 819h127q14 0 22 -11t6 -28l-47 -334l318 349q25 25 51 24h153q23 1 25 -21t-12 -34l-363 -373l291 -338q12 -13 3 -33t-32 -20h-155q-16 0 -29 16l-266 320l-41 -297q-2 -15 -14 -27t-27 -12h-127q-14 0 -23 11q-8 12 -6 28l105 741q2 14 14 26t27 13z" />
    <glyph glyph-name="Lacute" unicode="&#x139;" horiz-adv-x="937" 
d="M317 1583q-37 -16 -45 12l-22 64q-8 25 16 39l320 186q8 8 26 6t25 -20l35 -90q14 -35 -19 -49zM494 1434q14 0 23 -12t7 -27l-170 -1205h486q14 0 23 -11t7 -27l-16 -113q-2 -15 -14 -27t-27 -12h-663q-14 0 -24 11q-9 12 -7 28l190 1356q3 16 15 27t26 12h144z" />
    <glyph glyph-name="lacute" unicode="&#x13a;" horiz-adv-x="456" 
d="M238 1556q-37 -16 -45 13l-23 63q-8 25 16 39l320 187q8 8 26 6t25 -21l35 -90q14 -35 -19 -49zM414 1434q14 0 22 -12t6 -27l-190 -1356q-2 -15 -13 -27t-26 -12h-127q-14 0 -23 11q-8 12 -6 28l191 1356q2 14 14 26t27 13h125z" />
    <glyph glyph-name="Lcommaaccent" unicode="&#x13b;" horiz-adv-x="937" 
d="M420 -442q-41 0 -71 32t-30 84q0 50 43 94q42 44 96 44t90 -38t36 -120q0 -215 -219 -420q-27 -25 -46 -2l-22 31q-18 23 10 47l31 27q109 95 129 227q-6 -6 -47 -6zM494 1434q14 0 23 -12t7 -27l-170 -1205h486q14 0 23 -11t7 -27l-16 -113q-2 -15 -14 -27t-27 -12h-663
q-14 0 -24 11q-9 12 -7 28l190 1356q3 16 15 27t26 12h144z" />
    <glyph glyph-name="lcommaaccent" unicode="&#x13c;" horiz-adv-x="456" 
d="M62 -442q-42 0 -72 32t-29 84q0 50 42 94t96 44t90 -38t36 -120q0 -215 -219 -420q-27 -25 -45 -2l-22 31q-18 23 10 47q13 14 26 24q55 45 103 131q19 39 31 99q-5 -6 -47 -6zM412 1434q14 0 22 -12t6 -27l-190 -1356q-2 -15 -13 -27t-26 -12h-127q-14 0 -23 11
q-8 12 -6 28l191 1356q2 14 14 26t27 13h125z" />
    <glyph glyph-name="Lcaron" unicode="&#x13d;" horiz-adv-x="937" 
d="M709 1320q0 52 43 94t96 42t89 -38t36 -120q0 -215 -219 -419q-27 -25 -45 -2l-23 30q-18 23 10 47l31 28q109 95 129 226q-6 -6 -47 -6t-71 33q-29 33 -29 85zM494 1434q14 0 23 -12t7 -27l-170 -1205h486q14 0 23 -11t7 -27l-16 -113q-2 -15 -14 -27t-27 -12h-663
q-14 0 -24 11q-9 12 -7 28l190 1356q3 16 15 27t26 12h144z" />
    <glyph glyph-name="lcaron" unicode="&#x13e;" horiz-adv-x="518" 
d="M711 1200q-41 0 -71 33t-30 84t43 94t97 43t89 -38q36 -38 35 -120q0 -215 -219 -419q-27 -26 -45 -3l-22 31q-18 23 10 48t33 29q100 85 127 224q-6 -6 -47 -6zM414 1434q14 0 22 -12t6 -27l-190 -1356q-2 -15 -13 -27t-26 -12h-127q-14 0 -23 11q-8 12 -6 28l191 1356
q2 14 14 26t27 13h125z" />
    <glyph glyph-name="Ldot" unicode="&#x13f;" horiz-adv-x="1071" 
d="M895 588q-51 0 -82 34t-31 89t43 98t95 43t84 -33q30 -33 30 -88t-44 -99t-95 -44zM494 1434q14 0 23 -12t7 -27l-170 -1205h486q14 0 23 -11t7 -27l-16 -113q-2 -15 -14 -27t-27 -12h-663q-14 0 -24 11q-9 12 -7 28l190 1356q3 16 15 27t26 12h144z" />
    <glyph glyph-name="ldot" unicode="&#x140;" horiz-adv-x="739" 
d="M635 868q51 0 82 -34t31 -87q0 -55 -44 -99t-96 -44q-51 0 -82 34q-30 34 -30 88t44 98t95 44zM414 1434q14 0 22 -12t6 -27l-190 -1356q-2 -15 -13 -27t-26 -12h-127q-14 0 -23 11q-8 12 -6 28l191 1356q2 14 14 26t27 13h125z" />
    <glyph glyph-name="Lslash" unicode="&#x141;" horiz-adv-x="952" 
d="M365 1434h143q14 0 23 -12t8 -27l-76 -527l190 117q33 18 45 -14l9 -19q14 -31 -21 -53l-237 -145l-80 -564h485q14 0 24 -11t7 -27l-17 -113q-8 -39 -41 -39h-663q-14 0 -24 11q-9 12 -7 28l84 592l-45 -25q-29 -18 -43 15q-23 52 10 71l94 51l91 652q8 39 41 39z" />
    <glyph glyph-name="lslash" unicode="&#x142;" horiz-adv-x="491" 
d="M438 1434q14 0 22 -12t7 -27l-72 -521l142 93q14 8 28 3t19 -18l8 -20q10 -31 -21 -51l-192 -119l-103 -723q-2 -15 -13 -27t-25 -12h-127q-14 0 -23 12q-8 13 -6 27l86 608l-80 -49q-31 -18 -45 14l-8 19q-14 35 18 53l129 76l90 635q2 14 14 26t27 13h125z" />
    <glyph glyph-name="Nacute" unicode="&#x143;" horiz-adv-x="1468" 
d="M743 1583q-37 -16 -45 12l-22 64q-8 25 16 39l320 186q8 8 26 6t25 -20l35 -90q14 -35 -19 -49zM1360 1434q14 0 23 -12t8 -27l-195 -1379q-2 -14 -14 -25t-27 -11h-57l-641 1038h-2l-127 -979q-2 -15 -14 -27t-27 -12h-137q-14 0 -24 11q-9 12 -7 28l194 1378
q3 13 15 25t26 12h52l641 -1022h4l129 963q2 16 13 27t26 12h141z" />
    <glyph glyph-name="nacute" unicode="&#x144;" horiz-adv-x="976" 
d="M459 1112q-37 -16 -45 12l-23 64q-8 25 17 39l319 186q9 8 27 6t24 -20l35 -90q14 -35 -18 -49zM201 819h61q23 0 27 -24l14 -70q127 115 282 115t216 -108t39 -281l-58 -412q-2 -15 -14 -27t-27 -12h-125q-33 0 -28 39l57 418q14 98 -15 151q-30 54 -100 54t-128 -42
t-80 -77l-72 -504q-6 -39 -51 -39h-113q-14 0 -23 12q-8 13 -6 27l103 741q4 39 41 39z" />
    <glyph glyph-name="Ncommaaccent" unicode="&#x145;" horiz-adv-x="1468" 
d="M586 -442q-41 0 -71 32t-30 84q0 50 42 94q43 44 97 44t90 -38t36 -120q0 -215 -220 -420q-27 -25 -45 -2l-22 31q-18 23 10 47q13 14 26 24q113 91 134 230q-6 -6 -47 -6zM1360 1434q14 0 23 -12t8 -27l-195 -1379q-2 -14 -14 -25t-27 -11h-57l-641 1038h-2l-127 -979
q-2 -15 -14 -27t-27 -12h-137q-14 0 -24 11q-9 12 -7 28l194 1378q3 13 15 25t26 12h52l641 -1022h4l129 963q2 16 13 27t26 12h141z" />
    <glyph glyph-name="ncommaaccent" unicode="&#x146;" horiz-adv-x="978" 
d="M350 -442q-40 0 -70 32t-30 84q0 50 43 94t96 44t89 -38t36 -120q0 -215 -219 -420q-27 -25 -45 -2l-23 31q-18 23 11 47l30 27q109 95 129 227q-6 -6 -47 -6zM201 819h61q23 0 27 -24l14 -70q127 115 282 115t216 -108t39 -281l-58 -412q-2 -15 -14 -27t-27 -12h-125
q-33 0 -28 39l57 418q14 98 -15 151q-30 54 -100 54t-128 -42t-80 -77l-72 -504q-6 -39 -51 -39h-113q-14 0 -23 12q-8 13 -6 27l103 741q4 39 41 39z" />
    <glyph glyph-name="Ncaron" unicode="&#x147;" horiz-adv-x="1468" 
d="M848 1575l-201 201q-20 20 -4 43l37 45q23 25 47 4l158 -123l202 131q22 14 29 8q8 -6 17 -18l28 -41q18 -31 -10 -49l-258 -201q-25 -16 -45 0zM1360 1434q14 0 23 -12t8 -27l-195 -1379q-2 -14 -14 -25t-27 -11h-57l-641 1038h-2l-127 -979q-2 -15 -14 -27t-27 -12
h-137q-14 0 -24 11q-9 12 -7 28l194 1378q3 13 15 25t26 12h52l641 -1022h4l129 963q2 16 13 27t26 12h141z" />
    <glyph glyph-name="ncaron" unicode="&#x148;" horiz-adv-x="976" 
d="M563 1098l-201 200q-20 20 -4 43l37 45q23 25 47 5l158 -123l203 131q20 14 29 8q8 -6 16 -18l29 -41q18 -31 -11 -50l-258 -200q-25 -16 -45 0zM201 819h61q23 0 27 -24l14 -70q127 115 282 115t216 -108t39 -281l-58 -412q-2 -15 -14 -27t-27 -12h-125q-33 0 -28 39
l57 418q14 98 -15 151q-30 54 -100 54t-128 -42t-80 -77l-72 -504q-6 -39 -51 -39h-113q-14 0 -23 12q-8 13 -6 27l103 741q4 39 41 39z" />
    <glyph glyph-name="napostrophe" unicode="&#x149;" horiz-adv-x="976" 
d="M-203 1317q0 51 42 94q43 43 97 43t90 -38t35 -120q0 -215 -219 -419q-27 -25 -45 -3l-22 31q-18 23 10 47q12 13 26 24q107 86 134 230q-6 -6 -47 -6t-71 33t-30 84zM199 819h61q23 0 27 -24l14 -70q127 115 281 115t216 -108t40 -281l-58 -412q-2 -15 -14 -27t-27 -12
h-125q-33 0 -28 39l57 418q14 98 -15 151q-30 54 -100 54t-128 -42t-81 -77l-71 -504q-6 -39 -51 -39h-113q-14 0 -23 12q-8 13 -6 27l103 741q4 39 41 39z" />
    <glyph glyph-name="Eng" unicode="&#x14a;" horiz-adv-x="1468" 
d="M354 1454h52l641 -1022h4l129 963q2 16 13 27t26 12h141q14 0 23 -12t8 -27l-234 -1649q-25 -186 -124 -284t-241 -97q-142 0 -219 82q-20 20 0 47l52 76q23 33 51 10q45 -37 115 -37q133 0 163 203l52 373l-549 899h-2l-127 -979q-2 -15 -14 -27t-27 -12h-137
q-14 0 -24 11q-9 12 -7 28l194 1378q3 13 15 25t26 12z" />
    <glyph glyph-name="eng" unicode="&#x14b;" horiz-adv-x="978" 
d="M201 819h61q23 0 27 -24l14 -70q127 115 282 115t216 -108t39 -281l-101 -705q-25 -186 -124 -284t-240 -97q-141 0 -219 82q-20 20 0 47l51 76q23 33 51 10q45 -37 113 -37q69 0 115 51t61 152l98 711q14 98 -15 151q-30 54 -100 54t-128 -42t-80 -77l-72 -504
q-6 -39 -51 -39h-113q-14 0 -23 12q-8 13 -6 27l103 741q4 39 41 39z" />
    <glyph glyph-name="Omacron" unicode="&#x14c;" horiz-adv-x="1529" 
d="M682 1667q-35 0 -31 37l8 57q6 39 41 39h471q35 0 31 -39l-8 -57q-4 -37 -41 -37h-471zM330 641q0 -190 107 -324q108 -133 274 -133q209 0 369 180t161 422q0 193 -107 328q-108 135 -274 135q-206 0 -368 -182t-162 -426zM115 614q0 354 224 597t548 243
q245 0 407 -188t162 -453q0 -352 -225 -593t-547 -240q-246 0 -408 187q-161 187 -161 447z" />
    <glyph glyph-name="omacron" unicode="&#x14d;" horiz-adv-x="903" 
d="M303 1180q-35 0 -31 37l9 57q6 39 41 39h473q14 0 22 -11t6 -28l-8 -57q-4 -37 -41 -37h-471zM233 385q0 -105 45 -167t126 -62t151 87t70 191t-44 166t-126 62t-152 -86t-70 -191zM49 354q0 199 128 342t312 144q135 0 227 -110t93 -261q0 -201 -128 -345t-312 -144
q-133 0 -227 110q-93 110 -93 264z" />
    <glyph glyph-name="Obreve" unicode="&#x14e;" horiz-adv-x="1529" 
d="M911 1573q-98 1 -161 69t-64 168q0 43 37 43h55q25 0 29 -30q4 -53 36 -87t79 -34t86 35t59 86q14 31 37 30h67q39 0 25 -43q-31 -104 -109 -170t-176 -67zM330 641q0 -190 107 -324q108 -133 274 -133q209 0 369 180t161 422q0 193 -107 328q-108 135 -274 135
q-206 0 -368 -182t-162 -426zM115 614q0 354 224 597t548 243q245 0 407 -188t162 -453q0 -352 -225 -593t-547 -240q-246 0 -408 187q-161 187 -161 447z" />
    <glyph glyph-name="obreve" unicode="&#x14f;" horiz-adv-x="903" 
d="M532 1083q-98 0 -161 69t-64 169q0 43 37 43h55q25 0 29 -31q4 -53 36 -87t79 -34t86 35t56 76t40 41h68q39 0 24 -43q-31 -104 -109 -171t-176 -67zM233 385q0 -105 45 -167t126 -62t151 87t70 191t-44 166t-126 62t-152 -86t-70 -191zM49 354q0 199 128 342t312 144
q135 0 227 -110t93 -261q0 -201 -128 -345t-312 -144q-133 0 -227 110q-93 110 -93 264z" />
    <glyph glyph-name="Ohungarumlaut" unicode="&#x150;" horiz-adv-x="1529" 
d="M717 1573q-18 0 -27 11q-8 11 -2 28l117 289q16 39 41 38h119q25 0 31 -15t-5 -36l-184 -284q-18 -31 -39 -31h-51zM1022 1573q-18 0 -27 11q-8 11 -2 28l117 289q16 39 41 38h119q25 0 32 -15t-6 -36l-184 -284q-18 -31 -39 -31h-51zM330 641q0 -190 107 -324
q108 -133 274 -133q209 0 369 180t161 422q0 193 -107 328q-108 135 -274 135q-206 0 -368 -182t-162 -426zM115 614q0 354 224 597t548 243q245 0 407 -188t162 -453q0 -352 -225 -593t-547 -240q-246 0 -408 187q-161 187 -161 447z" />
    <glyph glyph-name="ohungarumlaut" unicode="&#x151;" horiz-adv-x="903" 
d="M348 1067q-18 0 -26 11t-3 28l117 289q16 39 41 39h119q25 0 32 -16t-5 -36l-185 -284q-18 -31 -39 -31h-51zM653 1067q-18 0 -26 11t-2 28l116 289q16 39 41 39h119q25 0 32 -16t-5 -36l-185 -284q-18 -31 -38 -31h-52zM233 385q0 -105 45 -167t126 -62t151 87t70 191
t-44 166t-126 62t-152 -86t-70 -191zM49 354q0 199 128 342t312 144q135 0 227 -110t93 -261q0 -201 -128 -345t-312 -144q-133 0 -227 110q-93 110 -93 264z" />
    <glyph glyph-name="OE" unicode="&#x152;" horiz-adv-x="1828" 
d="M326 641q0 -190 109 -325q110 -134 276 -134q82 0 141 21l143 1024q-68 23 -135 22q-206 0 -370 -182t-164 -426zM115 614q0 348 224 594t550 246q92 0 151 -16l21 -4h741q33 0 29 -39l-14 -115q-3 -16 -15 -28t-26 -11h-568l-59 -418h477q14 0 22 -11t7 -28l-15 -114
q-2 -16 -14 -28t-27 -11h-477l-61 -441h567q33 0 29 -38l-17 -113q-2 -15 -13 -27t-25 -12h-744q-98 -20 -176 -20q-236 0 -402 185t-165 449z" />
    <glyph glyph-name="oe" unicode="&#x153;" horiz-adv-x="1398" 
d="M229 388q0 -104 46 -168t128 -64t152 89t70 193t-45 163q-45 61 -127 61t-153 -85t-71 -189zM1153 596q0 38 -33 62t-78 24q-82 0 -140 -51t-77 -131q328 -29 328 96zM49 356q0 197 131 340q131 144 298 144t257 -154q143 154 328 154q119 0 197 -62t77 -172
q0 -82 -54 -139t-136 -79q-198 -53 -352 -26q-7 -88 35 -149t124 -61t166 57q35 23 49 2l56 -76q23 -29 -11 -53q-126 -102 -294 -102t-256 147q-131 -147 -295 -147q-133 0 -227 110q-93 110 -93 266z" />
    <glyph glyph-name="Racute" unicode="&#x154;" horiz-adv-x="1265" 
d="M612 1583q-37 -16 -45 12l-22 64q-8 25 16 39l320 186q8 8 26 6t25 -20l35 -90q14 -35 -19 -49zM743 739q94 0 170 85q76 86 76 186t-51 162t-125 63h-313l-70 -496h313zM860 1434q146 0 246 -114t100 -274t-94 -291q-94 -132 -246 -175l183 -523q8 -21 -1 -39t-32 -18
h-154q-29 0 -39 29l-151 530h-271l-73 -520q-2 -15 -14 -27t-25 -12h-142q-14 0 -23 12t-5 27l190 1356q1 14 13 26t26 13h512z" />
    <glyph glyph-name="racute" unicode="&#x155;" horiz-adv-x="647" 
d="M279 1112q-37 -16 -46 12l-22 64q-8 25 16 39l320 186q8 8 26 6t25 -20l35 -90q14 -35 -19 -49zM199 819h61q23 0 29 -28l14 -70q20 20 34 36t72 49q59 34 130 34t103 -22t11 -52l-57 -100q-18 -27 -53 -18t-62 9q-74 0 -157 -98l-74 -520q-4 -39 -62 -39h-102
q-14 0 -23 11q-8 12 -6 28l103 741q4 39 39 39z" />
    <glyph glyph-name="Rcommaaccent" unicode="&#x156;" horiz-adv-x="1263" 
d="M500 -442q-41 0 -71 32t-30 84q0 50 42 94q43 44 97 44t90 -38t36 -120q0 -215 -220 -420q-27 -25 -45 -2l-22 31q-18 23 10 47q13 14 26 24q113 91 134 230q-6 -6 -47 -6zM743 739q94 0 170 85q76 86 76 186t-51 162t-125 63h-313l-70 -496h313zM860 1434
q146 0 246 -114t100 -274t-94 -291q-94 -132 -246 -175l183 -523q8 -21 -1 -39t-32 -18h-154q-29 0 -39 29l-151 530h-271l-73 -520q-2 -15 -14 -27t-25 -12h-142q-14 0 -23 12t-5 27l190 1356q1 14 13 26t26 13h512z" />
    <glyph glyph-name="rcommaaccent" unicode="&#x157;" horiz-adv-x="647" 
d="M78 -442q-41 0 -71 32t-30 84q0 50 42 94q43 44 97 44t90 -38t36 -120q0 -215 -219 -420q-27 -25 -46 -2l-22 31q-18 23 10 47q13 14 26 24q113 91 134 230q-6 -6 -47 -6zM197 819h61q20 0 29 -28l14 -70q20 20 34 36t72 49q59 34 130 34t103 -22t11 -52l-57 -100
q-18 -27 -53 -18t-62 9q-74 0 -157 -98l-74 -520q-4 -39 -62 -39h-102q-14 0 -23 11q-8 12 -6 28l103 741q4 39 39 39z" />
    <glyph glyph-name="Rcaron" unicode="&#x158;" horiz-adv-x="1265" 
d="M688 1575l-201 201q-20 20 -4 43l37 45q23 25 47 4l158 -123l203 131q20 14 28 8t17 -18l28 -41q18 -31 -10 -49l-258 -201q-25 -16 -45 0zM743 739q94 0 170 85q76 86 76 186t-51 162t-125 63h-313l-70 -496h313zM860 1434q146 0 246 -114t100 -274t-94 -291
q-94 -132 -246 -175l183 -523q8 -21 -1 -39t-32 -18h-154q-29 0 -39 29l-151 530h-271l-73 -520q-2 -15 -14 -27t-25 -12h-142q-14 0 -23 12t-5 27l190 1356q1 14 13 26t26 13h512z" />
    <glyph glyph-name="rcaron" unicode="&#x159;" horiz-adv-x="647" 
d="M362 1098l-200 200q-20 20 -4 43l37 45q23 25 47 5l157 -123l203 131q22 14 29 8q8 -6 16 -18l29 -41q18 -31 -10 -50l-258 -200q-26 -16 -46 0zM199 819h61q23 0 29 -28l14 -70q20 20 34 36t72 49q59 34 130 34t103 -22t11 -52l-57 -100q-18 -27 -53 -18t-62 9
q-74 0 -157 -98l-74 -520q-4 -39 -62 -39h-102q-14 0 -23 11q-8 12 -6 28l103 741q4 39 39 39z" />
    <glyph glyph-name="Sacute" unicode="&#x15a;" horiz-adv-x="1030" 
d="M541 1583q-37 -16 -45 12l-23 64q-8 25 16 39l320 186q9 8 27 6t24 -20l35 -90q14 -35 -18 -49zM453 166q95 0 163 63t68 147t-53 139q-53 56 -177 131t-200 169q-76 95 -76 241t122 272t326 126t347 -119q33 -29 2 -69l-55 -74q-35 -45 -79 -6q-23 22 -89 50t-149 28
t-149 -67t-65 -139q0 -72 47 -126q48 -53 176 -126t216 -168t87 -239q0 -186 -130 -303t-343 -116q-98 0 -188 36t-127 66t-65 61t-1 64l64 78q33 39 70 6q133 -125 258 -125z" />
    <glyph glyph-name="sacute" unicode="&#x15b;" horiz-adv-x="694" 
d="M307 1112q-37 -16 -45 12l-22 64q-8 25 16 39l319 186q9 8 27 6t25 -20l35 -90q14 -35 -19 -49zM380 670q-106 0 -106 -70q0 -30 23 -52t85 -58t98 -63q36 -26 68 -74t32 -107q0 -115 -83 -191t-229 -76t-239 84q-23 18 -4 43l47 78q20 27 45 11q78 -49 139 -49t91 21
t30 57t-25 62q-26 26 -100 70t-121 98q-47 56 -47 145t75 165t214 76t223 -64q33 -25 8 -59l-39 -70q-20 -33 -49 -16q-78 39 -136 39z" />
    <glyph glyph-name="Scircumflex" unicode="&#x15c;" horiz-adv-x="1030" 
d="M477 1581q-20 -14 -29 -8q-8 6 -16 18l-29 41q-18 31 11 49l258 201q25 16 45 0l201 -201q20 -20 4 -43l-37 -45q-23 -25 -47 -4l-158 123zM453 166q95 0 163 63t68 147t-53 139q-53 56 -177 131t-200 169q-76 95 -76 241t122 272t326 126t347 -119q33 -29 2 -69l-55 -74
q-35 -45 -79 -6q-23 22 -89 50t-149 28t-149 -67t-65 -139q0 -72 47 -126q48 -53 176 -126t216 -168t87 -239q0 -186 -130 -303t-343 -116q-98 0 -188 36t-127 66t-65 61t-1 64l64 78q33 39 70 6q133 -125 258 -125z" />
    <glyph glyph-name="scircumflex" unicode="&#x15d;" horiz-adv-x="694" 
d="M244 1104q-22 -14 -29 -8q-8 6 -16 18l-29 41q-18 31 10 49l258 201q25 16 45 0l201 -201q20 -20 4 -43l-37 -45q-23 -25 -47 -4l-158 123zM380 670q-106 0 -106 -70q0 -30 23 -52t85 -58t98 -63q36 -26 68 -74t32 -107q0 -115 -83 -191t-229 -76t-239 84q-23 18 -4 43
l47 78q20 27 45 11q78 -49 139 -49t91 21t30 57t-25 62q-26 26 -100 70t-121 98q-47 56 -47 145t75 165t214 76t223 -64q33 -25 8 -59l-39 -70q-20 -33 -49 -16q-78 39 -136 39z" />
    <glyph glyph-name="Scedilla" unicode="&#x15e;" horiz-adv-x="1032" 
d="M455 166q95 0 163 63t68 147t-53 139q-53 56 -177 131t-200 169q-76 95 -76 241t122 272t326 126t347 -119q33 -29 2 -69l-55 -74q-35 -45 -79 -6q-23 22 -89 50t-148 28t-149 -67q-66 -67 -66 -139t47 -126q48 -53 176 -126t216 -168t88 -239q0 -184 -127 -301
t-336 -118l-11 -93q156 -35 156 -188q0 -96 -61 -164t-158 -67q-39 0 -78 20t-57 50t4 52l33 31q20 17 45 -7q26 -24 60 -24t58 30t25 71q0 84 -125 100q-33 8 -27 39l23 160q-72 14 -154 57t-122 94q-29 33 -3 66l64 78q33 39 70 6q133 -125 258 -125z" />
    <glyph glyph-name="scedilla" unicode="&#x15f;" horiz-adv-x="696" 
d="M380 670q-106 0 -106 -70q0 -30 23 -52t85 -58t98 -63q36 -26 68 -74t32 -107q0 -115 -80 -190t-224 -76l-10 -93q156 -35 156 -188q0 -96 -62 -164t-157 -67q-39 0 -78 20t-57 50t4 52l32 31q18 17 44 -7t61 -24t59 30t25 71q0 84 -125 100q-33 8 -27 39l23 164
q-82 20 -135 69q-23 18 -4 43l47 78q20 27 45 11q78 -49 139 -49t91 21t30 57t-25 62q-26 26 -100 70t-121 98q-47 56 -47 145t75 165t214 76t223 -64q33 -25 8 -59l-39 -70q-20 -33 -49 -16q-78 39 -136 39z" />
    <glyph glyph-name="Scaron" unicode="&#x160;" horiz-adv-x="1030" 
d="M643 1575l-201 201q-20 20 -4 43l37 45q23 25 47 4l158 -123l203 131q21 14 29 8t16 -18l28 -41q18 -31 -10 -49l-258 -201q-25 -16 -45 0zM453 166q95 0 163 63t68 147t-53 139q-53 56 -177 131t-200 169q-76 95 -76 241t122 272t326 126t347 -119q33 -29 2 -69l-55 -74
q-35 -45 -79 -6q-23 22 -89 50t-149 28t-149 -67t-65 -139q0 -72 47 -126q48 -53 176 -126t216 -168t87 -239q0 -186 -130 -303t-343 -116q-98 0 -188 36t-127 66t-65 61t-1 64l64 78q33 39 70 6q133 -125 258 -125z" />
    <glyph glyph-name="scaron" unicode="&#x161;" horiz-adv-x="694" 
d="M410 1098l-201 200q-20 20 -4 43l37 45q23 25 47 5l157 -123l203 131q22 14 29 8q8 -6 16 -18l29 -41q18 -31 -10 -50l-258 -200q-25 -16 -45 0zM380 670q-106 0 -106 -70q0 -30 23 -52t85 -58t98 -63q36 -26 68 -74t32 -107q0 -115 -83 -191t-229 -76t-239 84
q-23 18 -4 43l47 78q20 27 45 11q78 -49 139 -49t91 21t30 57t-25 62q-26 26 -100 70t-121 98q-47 56 -47 145t75 165t214 76t223 -64q33 -25 8 -59l-39 -70q-20 -33 -49 -16q-78 39 -136 39z" />
    <glyph glyph-name="Tcommaaccent" unicode="&#x162;" horiz-adv-x="915" 
d="M199 -326q0 50 42 94t96 44t90 -38t36 -120q0 -215 -219 -420q-27 -25 -45 -2l-23 31q-18 23 10 47l31 27q109 95 129 227q-6 -6 -47 -6t-71 32q-29 33 -29 84zM150 1241q-33 0 -29 39l16 115q1 14 13 26t26 13h799q33 0 29 -39l-17 -115q-2 -16 -13 -28t-26 -11h-293
l-168 -1202q-2 -15 -14 -27t-27 -12h-143q-13 0 -23 12t-8 27l170 1202h-292z" />
    <glyph glyph-name="tcommaaccent" unicode="&#x163;" horiz-adv-x="671" 
d="M234 -442q-41 0 -71 32t-30 84q0 50 42 94t96 44t90 -38t36 -120q0 -215 -219 -420q-27 -25 -45 -2l-22 31q-18 23 10 47q13 13 26 24q55 45 103 131q19 39 31 99q-6 -6 -47 -6zM102 649q-14 0 -24 11t-6 28l14 92q6 39 39 39h92l31 228q2 14 14 26t27 12l125 2
q14 0 22 -11t6 -27l-32 -230h176q37 0 30 -39l-14 -92q-8 -39 -39 -39h-178l-55 -403q-12 -82 47 -82q39 0 106 37q31 16 39 -19l23 -92q8 -29 -20 -46q-29 -17 -101 -41t-129 -23q-197 -1 -162 243l60 426h-91z" />
    <glyph glyph-name="Tcaron" unicode="&#x164;" horiz-adv-x="915" 
d="M578 1575l-201 201q-20 20 -4 43l37 45q23 25 47 4l157 -123l203 131q22 14 29 8q8 -6 16 -18l29 -41q18 -31 -10 -49l-258 -201q-25 -16 -45 0zM150 1241q-33 0 -29 39l16 115q1 14 13 26t26 13h799q33 0 29 -39l-17 -115q-2 -16 -13 -28t-26 -11h-293l-168 -1202
q-2 -15 -14 -27t-27 -12h-143q-13 0 -23 12t-8 27l170 1202h-292z" />
    <glyph glyph-name="tcaron" unicode="&#x165;" horiz-adv-x="669" 
d="M875 1200q-41 0 -71 33t-30 84t43 94t97 43t88 -38q36 -38 36 -120q0 -215 -219 -419q-27 -26 -45 -3l-22 31q-18 23 10 48t34 29q100 85 126 224q-6 -6 -47 -6zM102 649q-14 0 -24 11t-6 28l14 92q6 39 39 39h92l31 228q2 14 14 26t27 12l125 2q14 0 22 -11t6 -27
l-32 -230h176q37 0 30 -39l-14 -92q-8 -39 -39 -39h-178l-55 -403q-12 -82 47 -82q39 0 106 37q31 16 39 -19l23 -92q8 -29 -20 -46q-29 -17 -101 -41t-129 -23q-197 -1 -162 243l60 426h-91z" />
    <glyph glyph-name="Tbar" unicode="&#x166;" horiz-adv-x="917" 
d="M170 600q-37 0 -24 62q7 36 38 36h183l77 543h-292q-33 0 -29 39l16 115q1 14 13 26t26 13h799q33 0 29 -39l-17 -115q-2 -16 -13 -28t-26 -11h-293l-75 -543h178q14 0 24 -11t7 -28l-5 -22q-8 -37 -41 -37h-178l-78 -561q-2 -15 -14 -27t-26 -12h-144q-13 0 -23 12
t-8 27l78 561h-182z" />
    <glyph glyph-name="tbar" unicode="&#x167;" horiz-adv-x="669" 
d="M88 350q-14 0 -22 12t-7 27l4 21q8 39 39 39h62l29 200h-91q-14 0 -24 11t-6 28l14 92q6 39 39 39h92l31 228q2 14 14 26t27 12l125 2q14 0 22 -11t6 -27l-32 -230h176q37 0 30 -39l-14 -92q-8 -39 -39 -39h-178l-29 -200h158q14 1 24 -11t7 -28l-4 -23q-8 -37 -39 -37
h-158l-14 -104q-12 -82 47 -82q39 0 106 37q31 16 39 -19l23 -92q8 -29 -20 -46q-29 -17 -101 -41t-129 -23q-197 -1 -162 243l17 127h-62z" />
    <glyph glyph-name="Utilde" unicode="&#x168;" horiz-adv-x="1370" 
d="M760 1870q47 0 80 -33q34 -33 56 -65t43 -33q21 0 40 16q19 15 25 27t22 39q20 39 51 18l39 -29q31 -25 4 -65q-84 -154 -190 -154q-57 0 -134 101q-26 33 -44 32q-39 0 -84 -84q-20 -36 -45 -20l-54 31q-30 24 26 109q22 34 70 72t95 38zM336 1434h147q13 0 23 -12
t6 -27l-119 -846q-23 -156 43 -259q66 -104 196 -104t224 102t117 257l121 850q2 14 13 26t26 13h147q14 0 22 -12t7 -27l-121 -860q-33 -240 -193 -398q-160 -157 -379 -157t-347 162t-95 393l121 860q8 39 41 39z" />
    <glyph glyph-name="utilde" unicode="&#x169;" horiz-adv-x="952" 
d="M483 1413q47 0 80 -33q33 -34 55 -66t46 -32q41 0 86 82q20 39 51 18l39 -28q31 -25 4 -66q-84 -154 -191 -153q-58 0 -134 99q-26 34 -44 34q-39 0 -84 -84q-20 -37 -45 -21l-53 31q-20 16 -8 47q33 80 92 126t106 46zM338 -20q-154 0 -210 106t-34 281l58 413
q8 39 41 39h124q13 0 23 -11t8 -28l-59 -418q-15 -98 17 -152t96 -54t122 50q57 50 68 79l67 495q4 39 48 39h112q13 0 23 -11t8 -28l-105 -741q-2 -15 -14 -27t-26 -12h-60q-20 0 -29 33l-12 59q-112 -112 -266 -112z" />
    <glyph glyph-name="Umacron" unicode="&#x16a;" horiz-adv-x="1370" 
d="M604 1667q-35 0 -31 37l9 57q6 39 41 39h471q35 0 30 -39l-8 -57q-4 -37 -41 -37h-471zM336 1434h147q13 0 23 -12t6 -27l-119 -846q-23 -156 43 -259q66 -104 196 -104t224 102t117 257l121 850q2 14 13 26t26 13h147q14 0 22 -12t7 -27l-121 -860q-33 -240 -193 -398
q-160 -157 -379 -157t-347 162t-95 393l121 860q8 39 41 39z" />
    <glyph glyph-name="umacron" unicode="&#x16b;" horiz-adv-x="952" 
d="M322 1180q-35 0 -31 37l8 57q6 39 41 39h473q15 0 23 -11t6 -28l-8 -57q-4 -37 -41 -37h-471zM338 -20q-154 0 -210 106t-34 281l58 413q8 39 41 39h124q13 0 23 -11t8 -28l-59 -418q-15 -98 17 -152t96 -54t122 50q57 50 68 79l67 495q4 39 48 39h112q13 0 23 -11t8 -28
l-105 -741q-2 -15 -14 -27t-26 -12h-60q-20 0 -29 33l-12 59q-112 -112 -266 -112z" />
    <glyph glyph-name="Ubreve" unicode="&#x16c;" horiz-adv-x="1370" 
d="M838 1573q-98 0 -162 68q-63 69 -64 169q0 43 37 43h56q25 0 28 -30q4 -53 36 -87t79 -34t86 35t59 86q14 31 37 30h68q39 0 24 -43q-31 -104 -108 -171q-78 -66 -176 -66zM336 1434h147q13 0 23 -12t6 -27l-119 -846q-23 -156 43 -259q66 -104 196 -104t224 102t117 257
l121 850q2 14 13 26t26 13h147q14 0 22 -12t7 -27l-121 -860q-33 -240 -193 -398q-160 -157 -379 -157t-347 162t-95 393l121 860q8 39 41 39z" />
    <glyph glyph-name="ubreve" unicode="&#x16d;" horiz-adv-x="952" 
d="M561 1083q-98 0 -162 69q-63 69 -63 169q0 43 37 43h55q25 0 29 -31q4 -53 36 -87q33 -34 79 -34t85 35t57 76t40 41h67q39 0 25 -43q-31 -104 -109 -171t-176 -67zM338 -20q-154 0 -210 106t-34 281l58 413q8 39 41 39h124q13 0 23 -11t8 -28l-59 -418q-15 -98 17 -152
t96 -54t122 50q57 50 68 79l67 495q4 39 48 39h112q13 0 23 -11t8 -28l-105 -741q-2 -15 -14 -27t-26 -12h-60q-20 0 -29 33l-12 59q-112 -112 -266 -112z" />
    <glyph glyph-name="Uring" unicode="&#x16e;" horiz-adv-x="1370" 
d="M758 1766q0 -44 24 -74t61 -31q37 0 71 40t34 84t-21 72q-22 27 -61 27q-40 0 -74 -37t-34 -81zM1065 1793q0 -97 -71 -171t-158 -74t-138 58t-51 152q0 96 70 170t156 75q86 0 139 -57t53 -153zM336 1434h147q13 0 23 -12t6 -27l-119 -846q-23 -156 43 -259
q66 -104 196 -104t224 102t117 257l121 850q2 14 13 26t26 13h147q14 0 22 -12t7 -27l-121 -860q-33 -240 -193 -398q-160 -157 -379 -157t-347 162t-95 393l121 860q8 39 41 39z" />
    <glyph glyph-name="uring" unicode="&#x16f;" horiz-adv-x="952" 
d="M467 1217q-1 -45 23 -75t62 -30t72 40t34 84t-22 72t-60 28t-74 -38q-35 -37 -35 -81zM774 1244q0 -96 -71 -170t-158 -75t-137 57t-52 154q0 96 70 170t156 74t139 -57t53 -153zM338 -20q-154 0 -210 106t-34 281l58 413q8 39 41 39h124q13 0 23 -11t8 -28l-59 -418
q-15 -98 17 -152t96 -54t122 50q57 50 68 79l67 495q4 39 48 39h112q13 0 23 -11t8 -28l-105 -741q-2 -15 -14 -27t-26 -12h-60q-20 0 -29 33l-12 59q-112 -112 -266 -112z" />
    <glyph glyph-name="Uhungarumlaut" unicode="&#x170;" horiz-adv-x="1370" 
d="M655 1573q-18 0 -26 11t-2 28l116 289q16 39 41 38h119q25 0 32 -15t-5 -36l-185 -284q-18 -31 -38 -31h-52zM961 1573q-18 0 -27 11q-8 11 -2 28l117 289q16 39 41 38h118q25 0 32 -15t-5 -36l-184 -284q-18 -31 -39 -31h-51zM336 1434h147q13 0 23 -12t6 -27l-119 -846
q-23 -156 43 -259q66 -104 196 -104t224 102t117 257l121 850q2 14 13 26t26 13h147q14 0 22 -12t7 -27l-121 -860q-33 -240 -193 -398q-160 -157 -379 -157t-347 162t-95 393l121 860q8 39 41 39z" />
    <glyph glyph-name="uhungarumlaut" unicode="&#x171;" horiz-adv-x="952" 
d="M377 1067q-18 0 -27 11q-8 11 -2 28l117 289q16 39 41 39h119q25 0 31 -16t-5 -36l-184 -284q-18 -31 -39 -31h-51zM682 1067q-18 0 -27 11q-8 11 -2 28l117 289q16 39 41 39h119q25 0 32 -16t-6 -36l-184 -284q-18 -31 -39 -31h-51zM338 -20q-154 0 -210 106t-34 281
l58 413q8 39 41 39h124q13 0 23 -11t8 -28l-59 -418q-15 -98 17 -152t96 -54t122 50q57 50 68 79l67 495q4 39 48 39h112q13 0 23 -11t8 -28l-105 -741q-2 -15 -14 -27t-26 -12h-60q-20 0 -29 33l-12 59q-112 -112 -266 -112z" />
    <glyph glyph-name="Uogonek" unicode="&#x172;" horiz-adv-x="1374" 
d="M412 -266q0 141 120 252q-178 28 -281 184t-75 365l121 860q8 39 41 39h147q13 0 23 -12t6 -27l-119 -846q-23 -156 43 -259q66 -104 196 -104t224 102t117 257l121 850q2 14 13 26t26 13h147q14 0 22 -12t7 -27l-121 -860q-31 -229 -179 -384t-368 -169
q-96 -96 -96 -201q-1 -47 25 -76t68 -29t101 27q17 6 25 -3t6 -28l-8 -59q-2 -20 -37 -41t-120 -21q-85 -1 -140 49t-55 134z" />
    <glyph glyph-name="uogonek" unicode="&#x173;" horiz-adv-x="950" 
d="M336 -20q-154 0 -210 106t-34 281l58 413q8 39 40 39h125q13 0 23 -11t8 -28l-59 -418q-15 -98 17 -152t96 -54t122 50q57 50 68 79l67 495q4 39 48 39h112q13 0 23 -11t8 -28l-105 -741q-2 -15 -14 -27t-27 -12h-4q-117 -104 -116 -219q0 -47 26 -76t67 -29q42 0 101 27
q16 6 26 -3t5 -28l-8 -59q-2 -20 -37 -41t-120 -21q-85 -1 -140 49q-56 50 -56 133t43 155t84 104l43 33l-14 67q-112 -112 -266 -112z" />
    <glyph glyph-name="Wcircumflex" unicode="&#x174;" horiz-adv-x="1683" 
d="M805 1581q-22 -14 -29 -8q-8 6 -16 18l-29 41q-18 31 10 49l258 201q25 16 45 0l201 -201q20 -20 4 -43l-37 -45q-23 -25 -47 -4l-157 123zM365 1434q27 0 30 -29l80 -899h8l432 926q10 23 35 22h33q25 0 29 -22l164 -926h8l334 899q12 29 36 29h148q20 0 28 -14t-1 -36
l-543 -1376q-10 -29 -37 -28h-29q-25 0 -30 26l-183 959h-8l-465 -963q-10 -23 -35 -22h-28q-27 -1 -31 28l-154 1376q-2 20 10 34t29 16h140z" />
    <glyph glyph-name="wcircumflex" unicode="&#x175;" horiz-adv-x="1159" 
d="M475 1104q-20 -14 -29 -8q-8 6 -16 18l-29 41q-18 31 11 49l258 201q25 16 45 0l200 -201q20 -20 5 -43l-37 -45q-23 -25 -47 -4l-158 123zM121 819h100q25 0 29 -24l61 -433h2l269 457q12 20 32 21h13q25 0 28 -21l125 -459h2l179 435q10 25 45 24h104q41 0 20 -49
l-327 -770q-10 -20 -37 -20h-8q-25 0 -29 18l-147 526h-2l-308 -526q-10 -18 -32 -18h-9q-24 0 -28 20l-119 772q-2 20 8 34t29 13z" />
    <glyph glyph-name="Ycircumflex" unicode="&#x176;" horiz-adv-x="1075" 
d="M479 1581q-21 -14 -29 -8t-16 18l-28 41q-18 31 10 49l258 201q25 16 45 0l201 -201q20 -20 4 -43l-37 -45q-23 -25 -47 -4l-158 123zM291 1434q25 0 35 -23l239 -520h4l394 520q18 23 41 23h161q23 0 28 -16t-9 -38l-529 -688l-92 -653q-2 -15 -14 -27t-27 -12h-141
q-14 0 -24 11q-9 12 -7 28l92 651l-331 690q-8 20 3 36t31 18h146z" />
    <glyph glyph-name="ycircumflex" unicode="&#x177;" horiz-adv-x="870" 
d="M315 1104q-21 -14 -29 -8t-16 18l-28 41q-18 31 10 49l258 201q25 16 45 0l201 -201q20 -20 4 -43l-37 -45q-23 -25 -47 -4l-158 123zM82 819h119q20 0 28 -22l150 -549h2l295 549q12 23 45 22h119q24 0 30 -16t-6 -37l-751 -1356q-12 -25 -35 -24h-129q-23 0 -29 14
t6 37l330 606l-209 727q-6 20 4 34t31 15z" />
    <glyph glyph-name="Ydieresis" unicode="&#x178;" horiz-adv-x="1075" 
d="M451 1602q-47 0 -73 30t-26 77q0 48 39 86t84 38t74 -30q29 -31 29 -77t-40 -86q-41 -38 -87 -38zM1014 1726q0 -46 -40 -85t-86 -39t-73 30t-27 77q0 48 39 86t84 38t74 -30q29 -31 29 -77zM291 1434q25 0 35 -23l239 -520h4l394 520q18 23 41 23h161q23 0 28 -16
t-9 -38l-529 -688l-92 -653q-2 -15 -14 -27t-27 -12h-141q-14 0 -24 11q-9 12 -7 28l92 651l-331 690q-8 20 3 36t31 18h146z" />
    <glyph glyph-name="Zacute" unicode="&#x179;" horiz-adv-x="1017" 
d="M539 1583q-37 -16 -45 12l-23 64q-8 25 16 39l320 186q9 8 27 6t24 -20l35 -90q14 -35 -19 -49zM18 0q-14 0 -22 11t-6 28l4 37l747 1155v6h-495q-14 0 -23 11q-8 11 -6 28l16 119q3 14 15 26t26 13h762q14 0 22 -12t7 -27l-4 -27l-742 -1167v-6h506q33 0 29 -39
l-16 -117q-2 -15 -14 -27t-27 -12h-779z" />
    <glyph glyph-name="zacute" unicode="&#x17a;" horiz-adv-x="692" 
d="M287 1112q-37 -16 -45 12l-23 64q-8 25 17 39l319 186q9 8 27 6t24 -20l35 -90q14 -35 -18 -49zM23 0q-33 0 -27 59l377 580v6h-244q-31 0 -27 39l13 96q2 16 13 28t26 11h477q23 0 31 -17t-7 -38l-379 -586v-6h232q33 0 29 -39l-13 -94q-2 -15 -14 -27t-27 -12h-460z
" />
    <glyph glyph-name="Zdotaccent" unicode="&#x17b;" horiz-adv-x="1017" 
d="M686 1614q-51 0 -82 34t-31 88t43 98q44 44 96 44t83 -33t31 -88t-45 -99q-44 -44 -95 -44zM18 0q-14 0 -22 11t-6 28l4 37l747 1155v6h-495q-14 0 -23 11q-8 11 -6 28l16 119q3 14 15 26t26 13h762q14 0 22 -12t7 -27l-4 -27l-742 -1167v-6h506q33 0 29 -39l-16 -117
q-2 -15 -14 -27t-27 -12h-779z" />
    <glyph glyph-name="zdotaccent" unicode="&#x17c;" horiz-adv-x="692" 
d="M432 1128q-51 0 -82 34t-31 88q1 54 45 98t95 45q51 0 82 -34t31 -88q0 -55 -45 -99q-44 -44 -95 -44zM23 0q-33 0 -27 59l377 580v6h-244q-31 0 -27 39l13 96q2 16 13 28t26 11h477q23 0 31 -17t-7 -38l-379 -586v-6h232q33 0 29 -39l-13 -94q-2 -15 -14 -27t-27 -12
h-460z" />
    <glyph glyph-name="Zcaron" unicode="&#x17d;" horiz-adv-x="1017" 
d="M643 1575l-201 201q-20 20 -4 43l37 45q23 25 47 4l158 -123l203 131q21 14 29 8t16 -18l28 -41q18 -31 -10 -49l-258 -201q-25 -16 -45 0zM18 0q-14 0 -22 11t-6 28l4 37l747 1155v6h-495q-14 0 -23 11q-8 11 -6 28l16 119q3 14 15 26t26 13h762q14 0 22 -12t7 -27
l-4 -27l-742 -1167v-6h506q33 0 29 -39l-16 -117q-2 -15 -14 -27t-27 -12h-779z" />
    <glyph glyph-name="zcaron" unicode="&#x17e;" horiz-adv-x="692" 
d="M397 1098l-200 200q-20 20 -4 43l36 45q23 25 47 5l158 -123l203 131q20 14 29 8q8 -6 16 -18l29 -41q18 -31 -11 -50l-258 -200q-25 -16 -45 0zM23 0q-33 0 -27 59l377 580v6h-244q-31 0 -27 39l13 96q2 16 13 28t26 11h477q23 0 31 -17t-7 -38l-379 -586v-6h232
q33 0 29 -39l-13 -94q-2 -15 -14 -27t-27 -12h-460z" />
    <glyph glyph-name="florin" unicode="&#x192;" horiz-adv-x="667" 
d="M82 651q-14 -1 -24 11t-7 28l12 90q6 39 41 39h132l36 254q27 185 127 283t260 98q119 0 195 -82q20 -20 0 -49l-61 -82q-23 -31 -57 1t-96 32t-108 -50t-59 -151l-37 -254h193q35 0 30 -39l-12 -90q-8 -39 -41 -39h-192l-127 -907q-27 -188 -127 -284t-262 -95
q-121 0 -193 82q-16 20 -2 47l64 82q23 31 55 -1t94 -32q63 0 110 50q46 51 60 153l127 905h-131z" />
    <glyph glyph-name="Aringacute" unicode="&#x1fa;" horiz-adv-x="1234" 
d="M399 487h430l-133 564h-8zM751 1460q37 0 71 40t34 84t-21 72q-22 28 -61 28t-74 -38q-34 -36 -34 -80t24 -75t61 -31zM-35 0q-20 0 -27 16t3 37l723 1309q-49 23 -79 72t-30 110q0 110 70 184t156 74t139 -57t53 -141t-47 -152t-123 -92l352 -1307q4 -21 -7 -37t-32 -16
h-123q-37 0 -43 31l-73 284h-564l-157 -284q-18 -31 -52 -31h-139zM616 1829l-22 63q-8 25 16 39l320 187q8 8 26 6t25 -21l35 -90q14 -35 -19 -49l-335 -147q-38 -17 -46 12z" />
    <glyph glyph-name="aringacute" unicode="&#x1fb;" 
d="M453 662q-97 0 -153 -88t-56 -196q0 -110 41 -166t99 -56t115 37t83 90l34 286q-6 9 -18 25t-55 42t-90 26zM696 0h-67q-25 0 -27 29l-6 61q-111 -110 -245 -110t-218 108t-84 285q0 176 122 321t290 146q55 0 118 -28t99 -73l27 52q14 29 38 28h62q15 1 23 -11t6 -28
l-97 -741q-2 -15 -14 -27t-27 -12zM438 1358q-37 -16 -45 12l-22 64q-8 25 16 39l320 186q8 8 26 6t25 -20l35 -91q14 -35 -19 -49zM430 1099q0 -44 24 -75t61 -31q38 0 72 40t34 84t-22 72q-23 28 -61 28t-73 -37t-35 -81zM509 881q-87 0 -138 57q-51 56 -51 152t69 171
q70 75 156 75t139 -58q53 -56 53 -152t-70 -171q-71 -74 -158 -74z" />
    <glyph glyph-name="AEacute" unicode="&#x1fc;" horiz-adv-x="1681" 
d="M1206 1585q-37 -16 -45 12l-22 64q-8 25 16 39l320 186q8 8 26 6t25 -20l35 -90q14 -35 -19 -49zM459 487h284l82 564zM-63 0q-20 0 -26 16q-5 16 9 37l926 1317q45 63 90 64h721q14 0 22 -12t7 -27l-17 -115q-2 -16 -14 -28t-27 -11h-571l-60 -418h484q14 0 22 -11
t6 -28l-16 -114q-2 -16 -14 -28t-27 -11h-481l-62 -441h572q14 0 23 -11t7 -27l-16 -113q-2 -15 -14 -27t-27 -12h-743q-14 0 -24 11q-9 11 -7 28l39 272h-387l-193 -284q-18 -27 -45 -27h-157z" />
    <glyph glyph-name="aeacute" unicode="&#x1fd;" horiz-adv-x="1249" 
d="M659 1112q-37 -16 -45 12l-22 64q-8 25 16 39l320 186q8 8 26 6t25 -20l35 -90q14 -35 -19 -49zM197 248q0 -118 103 -119q48 0 89 32t60 62l20 154q-47 14 -115 14q-68 1 -112 -41q-45 -42 -45 -102zM1004 596q0 38 -33 62t-78 24q-83 0 -141 -51t-76 -131
q328 -29 328 96zM244 -20q-100 0 -164 64t-64 182q0 120 89 206t235 86l147 -12q12 102 -2 138q-13 36 -81 36t-211 -41q-14 -4 -26 6q-11 10 -11 25l-2 86q0 29 34 41q137 43 267 43t184 -113q117 113 274 113q119 0 197 -62t78 -158t-54 -153t-136 -79q-199 -53 -353 -26
q-8 -88 35 -149t125 -61t166 57q35 23 49 2l55 -76q23 -29 -10 -53q-127 -102 -289 -102t-252 131q-109 -131 -280 -131z" />
    <glyph glyph-name="Oslashacute" unicode="&#x1fe;" horiz-adv-x="1529" 
d="M788 1583q-37 -16 -45 12l-22 64q-8 25 16 39l320 186q8 8 26 6t25 -20l35 -90q14 -35 -19 -49zM713 184q209 0 369 180t161 422q0 135 -57 250l-748 -719q111 -133 275 -133zM862 1249q-206 0 -368 -182t-162 -426q0 -137 57 -248l750 717q-109 139 -277 139zM889 1454
q244 0 407 -190l148 139q29 25 49 0l12 -14q18 -27 -8 -54l-147 -141q109 -170 108 -381q0 -352 -225 -593t-547 -240q-244 0 -407 186l-142 -137q-27 -25 -49 2l-12 14q-20 29 6 53l143 138q-109 166 -108 378q0 354 224 597t548 243z" />
    <glyph glyph-name="oslashacute" unicode="&#x1ff;" horiz-adv-x="903" 
d="M393 156q92 0 162 87t70 206q0 37 -11 77l-329 -317q43 -53 108 -53zM244 291l329 317q-43 54 -121 54t-149 -86q-70 -86 -70 -205q1 -49 11 -80zM49 354q0 199 128 342t312 144q129 0 222 -103l51 51q10 12 24 12t23 -12l14 -14q25 -25 -6 -53l-57 -55q49 -92 49 -197
q0 -201 -128 -345t-312 -144q-129 0 -219 100l-44 -43q-27 -28 -59 16q-25 25 4 53l47 46q-49 94 -49 202zM401 1112q-37 -16 -45 12l-22 64q-8 25 16 39l320 186q8 8 26 6t25 -20l35 -90q14 -35 -19 -49z" />
    <glyph glyph-name="Scommaaccent" unicode="&#x218;" horiz-adv-x="1032" 
d="M373 -442q-41 0 -71 32t-30 84q0 50 42 94t96 44t91 -38q36 -38 36 -120q0 -215 -220 -420q-27 -25 -45 -2l-22 31q-18 23 10 47q13 13 26 23q113 91 134 231q-6 -6 -47 -6zM455 166q95 0 163 63t68 147t-53 139q-53 56 -177 131t-200 169q-76 95 -76 241t122 272
t326 126t347 -119q33 -29 2 -69l-55 -74q-35 -45 -79 -6q-23 22 -89 50t-148 28t-149 -67q-66 -67 -66 -139t47 -126q48 -53 176 -126t216 -168t88 -239q0 -186 -130 -303t-344 -116q-98 0 -188 36t-126 66t-65 61q-28 31 -2 64l64 78q33 39 70 6q133 -125 258 -125z" />
    <glyph glyph-name="scommaaccent" unicode="&#x219;" horiz-adv-x="696" 
d="M205 -442q-41 0 -71 32t-30 84q0 50 42 94t96 44t91 -38q36 -38 36 -120q0 -215 -219 -420q-27 -25 -46 -2l-22 31q-18 23 10 47q13 13 26 24q113 91 134 230q-6 -6 -47 -6zM380 670q-106 0 -106 -70q0 -30 23 -52t85 -58t98 -63q36 -26 68 -74t32 -107q0 -115 -83 -191
t-229 -76t-239 84q-23 18 -4 43l47 78q20 27 45 11q78 -49 139 -49t91 21t30 57t-25 62q-26 26 -100 70t-121 98q-47 56 -47 145t75 165t214 76t223 -64q33 -25 8 -59l-39 -70q-20 -33 -49 -16q-78 39 -136 39z" />
    <glyph glyph-name="uni021A" unicode="&#x21a;" horiz-adv-x="915" 
d="M199 -326q0 50 42 94t96 44t90 -38t36 -120q0 -215 -219 -420q-27 -25 -45 -2l-23 31q-18 23 10 47l31 27q109 95 129 227q-6 -6 -47 -6t-71 32q-29 33 -29 84zM150 1241q-33 0 -29 39l16 115q1 14 13 26t26 13h799q33 0 29 -39l-17 -115q-2 -16 -13 -28t-26 -11h-293
l-168 -1202q-2 -15 -14 -27t-27 -12h-143q-13 0 -23 12t-8 27l170 1202h-292z" />
    <glyph glyph-name="uni021B" unicode="&#x21b;" horiz-adv-x="671" 
d="M234 -442q-41 0 -71 32t-30 84q0 50 42 94t96 44t90 -38t36 -120q0 -215 -219 -420q-27 -25 -45 -2l-22 31q-18 23 10 47q13 13 26 24q55 45 103 131q19 39 31 99q-6 -6 -47 -6zM102 649q-14 0 -24 11t-6 28l14 92q6 39 39 39h92l31 228q2 14 14 26t27 12l125 2
q14 0 22 -11t6 -27l-32 -230h176q37 0 30 -39l-14 -92q-8 -39 -39 -39h-178l-55 -403q-12 -82 47 -82q39 0 106 37q31 16 39 -19l23 -92q8 -29 -20 -46q-29 -17 -101 -41t-129 -23q-197 -1 -162 243l60 426h-91z" />
    <glyph glyph-name="dotlessj" unicode="&#x237;" horiz-adv-x="460" 
d="M203 819h127q14 0 23 -11t7 -28l-145 -1034q-25 -186 -124 -284t-241 -97q-142 0 -219 82q-20 20 0 47l52 76q23 33 51 10q45 -37 114 -37q137 0 168 203l146 1034q2 16 14 28t27 11z" />
    <glyph glyph-name="circumflex" unicode="&#x2c6;" horiz-adv-x="688" 
d="M195 1104q-22 -14 -29 -8q-8 6 -16 18l-29 41q-18 31 10 49l258 201q25 16 45 0l201 -201q20 -20 4 -43l-37 -45q-23 -25 -47 -4l-158 123z" />
    <glyph glyph-name="caron" unicode="&#x2c7;" horiz-adv-x="688" 
d="M348 1098l-201 200q-20 20 -4 43l37 45q23 25 47 5l158 -123l203 131q20 14 29 8q8 -6 16 -18l29 -41q18 -31 -11 -50l-258 -200q-25 -16 -45 0z" />
    <glyph glyph-name="uni02C9" unicode="&#x2c9;" horiz-adv-x="763" 
d="M188 1180q-35 0 -30 37l8 57q6 39 41 39h473q31 0 29 -39l-9 -57q-4 -37 -41 -37h-471z" />
    <glyph glyph-name="breve" unicode="&#x2d8;" horiz-adv-x="636" 
d="M350 1083q-98 0 -162 69q-63 69 -63 169q0 43 37 43h55q25 0 29 -31q4 -53 36 -87t78 -34t86 35q38 35 56 76t41 41h67q39 0 25 -43q-31 -104 -109 -171t-176 -67z" />
    <glyph glyph-name="dotaccent" unicode="&#x2d9;" horiz-adv-x="403" 
d="M381 1271q0 -55 -44 -99t-95 -44t-82 34t-31 88t44 98t95 45q51 0 82 -34t31 -88z" />
    <glyph glyph-name="ring" unicode="&#x2da;" horiz-adv-x="534" 
d="M219 1217q-1 -45 23 -75t62 -30t72 40t34 84t-22 72t-60 28t-74 -38q-35 -37 -35 -81zM526 1244q0 -96 -70 -170t-158 -75q-87 -1 -138 57t-51 154q-1 96 69 170t156 74t139 -57t53 -153z" />
    <glyph glyph-name="ogonek" unicode="&#x2db;" horiz-adv-x="509" 
d="M219 -212q0 -112 103 -112q33 0 92 27q16 6 24 -3t6 -28l-8 -59q-2 -20 -36 -41t-120 -21q-84 -1 -140 49t-56 118t22 129q22 62 88 127q26 26 44 38l16 13h113q-16 -13 -41 -33t-66 -85t-41 -119z" />
    <glyph glyph-name="tilde" unicode="&#x2dc;" horiz-adv-x="700" 
d="M317 1413q47 0 80 -33q33 -34 56 -66t44 -32t40 16q18 16 24 28t23 38q20 39 51 18l39 -28q31 -25 4 -66q-84 -154 -191 -153q-58 0 -134 99q-26 34 -44 34q-39 0 -84 -84q-20 -37 -45 -21l-53 31q-20 16 -8 47q32 78 92 125q59 47 106 47z" />
    <glyph glyph-name="hungarumlaut" unicode="&#x2dd;" horiz-adv-x="722" 
d="M141 1067q-18 0 -26 11t-2 28l116 289q16 39 41 39h119q25 0 32 -16t-5 -36l-185 -284q-18 -31 -38 -31h-52zM446 1067q-18 0 -26 11t-2 28l117 289q16 39 40 39h119q25 0 32 -16t-5 -36l-184 -284q-18 -31 -39 -31h-52z" />
    <glyph glyph-name="uni0394" unicode="&#x394;" horiz-adv-x="1421" 
d="M240 195l639 2l-197 837h-4zM-20 0q-72 0 -27 84l745 1356q10 18 31 18h10q18 0 25 -18l362 -1360q15 -80 -47 -80h-1099z" />
    <glyph glyph-name="uni03A9" unicode="&#x3a9;" horiz-adv-x="1599" 
d="M2 0q-25 0 -25 29v4l19 131q4 33 33 33h198q-84 67 -135 185t-51 251q0 337 232 579t542 242q246 0 412 -184t166 -443q1 -178 -93 -363t-221 -267h176q25 0 25 -29v-4l-18 -131q-2 -13 -12 -23t-21 -10h-488q-31 0 -26 33l8 84q4 45 49 61q178 76 292 251t114 369
t-108 322q-108 129 -279 129q-217 0 -378 -189t-161 -435q0 -150 68 -271t188 -176q33 -18 29 -47l-13 -98q-2 -13 -12 -23t-23 -10h-487z" />
    <glyph glyph-name="uni03BC" unicode="&#x3bc;" horiz-adv-x="980" 
d="M125 -614h-121q-14 0 -22 12t-7 27l185 1355q8 39 41 39h125q14 0 23 -11t7 -28l-59 -418q-15 -98 17 -152t96 -54t122 50q57 50 68 79l68 495q4 39 47 39h112q13 0 23 -11t8 -28l-104 -741q-2 -15 -14 -27t-27 -12h-60q-20 0 -28 33l-13 59q-113 -113 -260 -112
q-59 0 -108 16l-78 -571q-2 -15 -14 -27t-27 -12z" />
    <glyph glyph-name="pi" unicode="&#x3c0;" horiz-adv-x="1341" 
d="M168 649q-29 0 -25 33l15 104q4 33 35 33h1046q27 0 23 -33l-15 -104q-4 -33 -33 -33h-163l-86 -616q-8 -33 -37 -33h-140q-27 0 -22 33l86 616h-326l-86 -616q-8 -33 -39 -33h-137q-12 0 -19 10t-5 23l86 616h-158z" />
    <glyph glyph-name="Wgrave" unicode="&#x1e80;" horiz-adv-x="1683" 
d="M1120 1591l-286 144q-35 16 -13 53l53 84q18 27 50 6l268 -186q23 -12 6 -39l-31 -54q-14 -24 -47 -8zM365 1434q27 0 30 -29l80 -899h8l432 926q10 23 35 22h33q25 0 29 -22l164 -926h8l334 899q12 29 36 29h148q20 0 28 -14t-1 -36l-543 -1376q-10 -29 -37 -28h-29
q-25 0 -30 26l-183 959h-8l-465 -963q-10 -23 -35 -22h-28q-27 -1 -31 28l-154 1376q-2 20 10 34t29 16h140z" />
    <glyph glyph-name="wgrave" unicode="&#x1e81;" horiz-adv-x="1159" 
d="M795 1118l-287 144q-35 16 -12 53l53 84q18 27 49 6l268 -186q23 -12 6 -39l-30 -54q-14 -24 -47 -8zM121 819h100q25 0 29 -24l61 -433h2l269 457q12 20 32 21h13q25 0 28 -21l125 -459h2l179 435q10 25 45 24h104q41 0 20 -49l-327 -770q-10 -20 -37 -20h-8
q-25 0 -29 18l-147 526h-2l-308 -526q-10 -18 -32 -18h-9q-24 0 -28 20l-119 772q-2 20 8 34t29 13z" />
    <glyph glyph-name="Wacute" unicode="&#x1e82;" horiz-adv-x="1683" 
d="M866 1583q-37 -16 -45 12l-22 64q-8 25 16 39l320 186q8 8 26 6t25 -20l35 -90q14 -35 -19 -49zM365 1434q27 0 30 -29l80 -899h8l432 926q10 23 35 22h33q25 0 29 -22l164 -926h8l334 899q12 29 36 29h148q20 0 28 -14t-1 -36l-543 -1376q-10 -29 -37 -28h-29
q-25 0 -30 26l-183 959h-8l-465 -963q-10 -23 -35 -22h-28q-27 -1 -31 28l-154 1376q-2 20 10 34t29 16h140z" />
    <glyph glyph-name="wacute" unicode="&#x1e83;" horiz-adv-x="1159" 
d="M539 1112q-37 -16 -45 12l-23 64q-8 25 16 39l320 186q9 8 27 6t24 -20l35 -90q14 -35 -19 -49zM121 819h100q25 0 29 -24l61 -433h2l269 457q12 20 32 21h13q25 0 28 -21l125 -459h2l179 435q10 25 45 24h104q41 0 20 -49l-327 -770q-10 -20 -37 -20h-8q-25 0 -29 18
l-147 526h-2l-308 -526q-10 -18 -32 -18h-9q-24 0 -28 20l-119 772q-2 20 8 34t29 13z" />
    <glyph glyph-name="Wdieresis" unicode="&#x1e84;" horiz-adv-x="1683" 
d="M801 1833q45 0 73 -30q28 -31 29 -77q0 -46 -40 -85t-86 -39q-47 0 -73 30t-26 77q0 48 39 86t84 38zM1213 1602q-47 0 -73 30t-26 77q0 48 39 86t84 38t74 -30q29 -31 29 -77t-41 -85q-40 -39 -86 -39zM365 1434q27 0 30 -29l80 -899h8l432 926q10 23 35 22h33
q25 0 29 -22l164 -926h8l334 899q12 29 36 29h148q20 0 28 -14t-1 -36l-543 -1376q-10 -29 -37 -28h-29q-25 0 -30 26l-183 959h-8l-465 -963q-10 -23 -35 -22h-28q-27 -1 -31 28l-154 1376q-2 20 10 34t29 16h140z" />
    <glyph glyph-name="wdieresis" unicode="&#x1e85;" horiz-adv-x="1159" 
d="M488 1161q-46 0 -74 30t-27 78q0 48 39 86t85 38t74 -30q27 -30 27 -78t-39 -86t-85 -38zM854 1161q-47 0 -74 29q-26 29 -26 77t39 87t85 39t74 -30t27 -78q0 -48 -39 -86t-86 -38zM121 819h100q25 0 29 -24l61 -433h2l269 457q12 20 32 21h13q25 0 28 -21l125 -459h2
l179 435q10 25 45 24h104q41 0 20 -49l-327 -770q-10 -20 -37 -20h-8q-25 0 -29 18l-147 526h-2l-308 -526q-10 -18 -32 -18h-9q-24 0 -28 20l-119 772q-2 20 8 34t29 13z" />
    <glyph glyph-name="Ygrave" unicode="&#x1ef2;" horiz-adv-x="1075" 
d="M797 1591l-287 144q-35 16 -12 53l53 84q18 27 49 6l268 -186q23 -12 6 -39l-30 -54q-14 -24 -47 -8zM291 1434q25 0 35 -23l239 -520h4l394 520q18 23 41 23h161q23 0 28 -16t-9 -38l-529 -688l-92 -653q-2 -15 -14 -27t-27 -12h-141q-14 0 -24 11q-9 12 -7 28l92 651
l-331 690q-8 20 3 36t31 18h146z" />
    <glyph glyph-name="ygrave" unicode="&#x1ef3;" horiz-adv-x="870" 
d="M633 1118l-287 144q-35 16 -12 53l53 84q18 27 49 6l269 -186q23 -12 6 -39l-31 -54q-14 -24 -47 -8zM82 819h119q20 0 28 -22l150 -549h2l295 549q12 23 45 22h119q24 0 30 -16t-6 -37l-751 -1356q-12 -25 -35 -24h-129q-23 0 -29 14t6 37l330 606l-209 727q-6 20 4 34
t31 15z" />
    <glyph glyph-name="endash" unicode="&#x2013;" horiz-adv-x="1054" 
d="M166 442q-16 0 -24 12t-7 25l8 49q6 39 39 39h715q37 0 31 -39l-8 -49q-8 -37 -39 -37h-715z" />
    <glyph glyph-name="emdash" unicode="&#x2014;" horiz-adv-x="1460" 
d="M166 442q-16 0 -24 12t-7 25l8 49q6 39 39 39h1121q37 0 30 -39l-8 -49q-8 -37 -39 -37h-1120z" />
    <glyph glyph-name="quoteleft" unicode="&#x2018;" horiz-adv-x="397" 
d="M254 860q-53 0 -89 38t-36 120q0 215 219 420q27 25 45 2l23 -31q19 -25 -23 -57l-18 -18q-109 -95 -129 -226q6 6 47 6t71 -33t30 -83t-44 -94q-43 -44 -96 -44z" />
    <glyph glyph-name="quoteright" unicode="&#x2019;" horiz-adv-x="393" 
d="M266 1200q-40 0 -70 33t-30 84t42 94t96 43t90 -38t36 -120q0 -215 -219 -419q-27 -26 -45 -3l-23 31q-18 23 11 47q8 9 23 22q116 102 136 232q-6 -6 -47 -6z" />
    <glyph glyph-name="quotesinglbase" unicode="&#x201a;" horiz-adv-x="454" 
d="M31 96q0 51 42 94t96 43q54 1 90 -37t36 -120q0 -215 -219 -420q-27 -25 -45 -2l-23 31q-18 23 10 47l31 27q110 96 129 227q-6 -6 -47 -6t-71 32q-29 33 -29 84z" />
    <glyph glyph-name="quotedblleft" unicode="&#x201c;" horiz-adv-x="747" 
d="M254 860q-53 0 -89 38t-36 120q0 215 219 420q27 25 45 2l23 -31q19 -25 -23 -57l-18 -18q-109 -95 -129 -226q6 6 47 6t71 -33t30 -83t-44 -94q-43 -44 -96 -44zM605 860q-54 0 -90 38t-36 120q0 215 219 420q27 25 45 2l23 -31q18 -23 -10 -47l-31 -28
q-109 -95 -129 -226q6 6 47 6t71 -33t30 -83t-43 -94q-42 -44 -96 -44z" />
    <glyph glyph-name="quotedblright" unicode="&#x201d;" horiz-adv-x="741" 
d="M266 1200q-40 0 -70 33t-30 84t42 94t96 43t90 -38t36 -120q0 -215 -219 -419q-27 -26 -45 -3l-23 31q-18 23 11 47q8 9 23 22q116 102 136 232q-6 -6 -47 -6zM616 1200q-42 0 -70 33q-30 33 -30 84t43 94t96 43t89 -38t36 -120q0 -215 -219 -419q-27 -26 -45 -3l-22 31
q-18 23 10 48t34 29q100 85 126 224q-6 -6 -48 -6z" />
    <glyph glyph-name="quotedblbase" unicode="&#x201e;" horiz-adv-x="800" 
d="M31 96q0 51 42 94t96 43q54 1 90 -37t36 -120q0 -215 -219 -420q-27 -25 -45 -2l-23 31q-18 23 10 47l31 27q110 96 129 227q-6 -6 -47 -6t-71 32q-29 33 -29 84zM477 -20q-41 0 -71 32t-29 84q0 51 43 94t96 43q53 1 89 -37t36 -120q0 -215 -219 -420q-27 -25 -45 -2
l-23 31q-18 23 11 47l30 27q110 96 129 227q-6 -6 -47 -6z" />
    <glyph glyph-name="dagger" unicode="&#x2020;" horiz-adv-x="1138" 
d="M137 635q-14 0 -23 12t-8 27l17 106q8 39 39 39h325l82 576q1 14 13 26t26 13h154q14 0 22 -12t7 -27l-80 -576h338q14 0 22 -12t6 -27l-16 -106q-8 -39 -37 -39h-348l-223 -1217q-3 -12 -15 -22t-26 -10h-29q-12 0 -23 10q-10 10 -8 22l121 1217h-336z" />
    <glyph glyph-name="daggerdbl" unicode="&#x2021;" horiz-adv-x="1138" 
d="M129 184h293l65 631v2h-325q-14 0 -23 11q-8 11 -6 28l14 107q3 14 15 26t26 12h326l55 394q1 14 13 26t26 13h154q14 0 22 -12t7 -27l-56 -394h340q31 0 27 -38l-15 -107q-2 -16 -13 -28t-25 -11h-338l-115 -633h309q31 0 27 -39l-14 -106q-2 -15 -14 -27t-25 -12h-320
l-106 -582q-3 -12 -15 -22t-26 -10h-29q-12 0 -23 10q-10 10 -8 22l56 582h-306q-14 0 -22 12t-6 27l14 106q2 15 14 27t27 12z" />
    <glyph glyph-name="bullet" unicode="&#x2022;" horiz-adv-x="698" 
d="M374 707q93 1 150 -63q58 -64 58 -164t-82 -180t-177 -81q-94 -1 -149 61t-55 162t81 182q81 83 174 83z" />
    <glyph glyph-name="ellipsis" unicode="&#x2026;" horiz-adv-x="1208" 
d="M27 101q0 55 44 99t95 44t82 -34t31 -88q-1 -54 -45 -98t-95 -44t-82 33q-30 34 -30 88zM414 101q0 55 44 99t95 44t82 -34t31 -88t-44 -98t-96 -44t-82 33q-30 34 -30 88zM799 101q0 55 44 99t96 44t82 -33t30 -88t-43 -99q-44 -44 -96 -44t-83 33q-30 34 -30 88z" />
    <glyph glyph-name="perthousand" unicode="&#x2030;" horiz-adv-x="1816" 
d="M782 242q0 -53 24 -85t66 -32t78 44q37 44 37 97t-23 85q-24 32 -66 32t-79 -44t-37 -97zM1461 383q-43 0 -79 -44t-36 -97t24 -85t65 -32q43 0 79 44t36 97t-23 85q-24 32 -66 32zM633 234q0 114 84 206q83 92 189 92t168 -70t62 -184q0 -116 -83 -207t-189 -91t-169 69
q-62 71 -62 185zM1196 234q0 114 84 206t190 92t167 -70q63 -70 63 -184q0 -116 -84 -207t-190 -91t-168 69q-62 71 -62 185zM313 1164q-1 -54 23 -86t66 -31q42 0 79 44t37 97t-23 85q-24 32 -66 32t-79 -44q-37 -43 -37 -97zM1102 1434q20 0 27 -18t-5 -38l-827 -1358
q-10 -20 -33 -20h-80q-20 0 -27 18t5 37l823 1358q14 20 33 21h84zM394 901q-106 0 -168 70q-62 71 -62 185t84 206t190 92t167 -70q63 -70 63 -186t-84 -206q-84 -91 -190 -91z" />
    <glyph glyph-name="guilsinglleft" unicode="&#x2039;" horiz-adv-x="514" 
d="M424 774q23 0 28 -19t-10 -44l-174 -301l74 -285q13 -60 -37 -62h-84q-16 1 -24 17l-148 317q-12 25 6 49l238 304q20 25 41 24h90z" />
    <glyph glyph-name="guilsinglright" unicode="&#x203a;" horiz-adv-x="516" 
d="M49 63q-23 -1 -27 19t9 45l174 301l-74 285q-14 61 37 61h84q16 0 24 -16l148 -318q12 -25 -6 -49l-238 -303q-20 -25 -41 -25h-90z" />
    <glyph glyph-name="fraction" unicode="&#x2044;" horiz-adv-x="219" 
d="M-172 0h-80q-20 0 -28 17q-7 17 6 38l823 1358q14 20 33 21h84q20 0 27 -18t-5 -38l-827 -1358q-10 -20 -33 -20z" />
    <glyph glyph-name="zerosuperior" unicode="&#x2070;" horiz-adv-x="651" 
d="M483 1137q57 1 92 71t35 197t-71 127q-55 0 -89 -74t-34 -198t67 -123zM467 1012q-92 0 -143 66t-52 184q0 180 76 288t209 107q90 0 142 -68t53 -182q0 -183 -76 -289t-209 -106z" />
    <glyph glyph-name="foursuperior" unicode="&#x2074;" horiz-adv-x="677" 
d="M408 1255h137l28 191zM528 1032q-16 0 -16 19l14 100h-258q-18 0 -14 16l12 82l359 383q6 6 14 6h66q16 0 16 -18l-51 -365h71q18 0 15 -16l-11 -70q-4 -18 -18 -18h-74l-12 -100q-4 -18 -23 -19h-90z" />
    <glyph glyph-name="fivesuperior" unicode="&#x2075;" horiz-adv-x="598" 
d="M420 1012q-60 0 -104 24t-64 54q-8 18 2 30l47 47q14 14 27 2q43 -43 98 -43t89 34t34 74t-23 62t-63 21h-139q-29 0 -25 33l39 270q4 18 18 18h293q18 0 15 -18l-11 -74q-4 -16 -18 -16h-199l-14 -103h74q86 0 135 -48t49 -141q0 -94 -70 -160t-190 -66z" />
    <glyph glyph-name="sixsuperior" unicode="&#x2076;" horiz-adv-x="610" 
d="M466 1130q40 0 70 33t30 73t-21 64q-20 24 -51 25t-62 -21t-41 -44q-5 -46 15 -88t60 -42zM459 1012q-92 0 -143 60q-50 60 -50 146t31 162q31 74 73 122q106 121 255 169q25 10 28 -14l17 -62q4 -23 -21 -30q-53 -17 -124 -63t-97 -109q11 11 46 20q36 10 63 10
q63 0 109 -45t46 -134t-70 -161q-71 -71 -163 -71z" />
    <glyph glyph-name="sevensuperior" unicode="&#x2077;" horiz-adv-x="591" 
d="M272 1032q-8 0 -13 3t-1 26l287 465h-217q-18 0 -15 18l11 76q4 18 18 18h369q18 0 14 -18l-4 -27l-324 -542q-12 -18 -30 -19h-95z" />
    <glyph glyph-name="eightsuperior" unicode="&#x2078;" horiz-adv-x="618" 
d="M399 1188q-1 -30 19 -48t51 -18t57 24t25 60q0 63 -64 76q-37 -6 -63 -35t-25 -59zM520 1548q-28 0 -50 -24t-21 -58q0 -53 55 -65q35 6 55 30q21 25 21 53t-16 46t-44 18zM458 1012q-100 0 -151 44t-51 110t47 114q47 47 84 63v3q-29 14 -51 48t-23 76q0 84 65 136
t153 53q88 0 139 -42q51 -43 51 -105t-37 -104t-80 -62v-3q33 -14 61 -51t27 -86q0 -84 -66 -139q-68 -55 -168 -55z" />
    <glyph glyph-name="ninesuperior" unicode="&#x2079;" horiz-adv-x="612" 
d="M485 1346q31 0 62 22t41 43q4 47 -16 88t-59 41q-40 0 -70 -33q-29 -33 -29 -73t20 -64t51 -24zM442 1247q-63 0 -109 45t-46 134t70 161q71 72 163 72q92 -1 142 -61t51 -146q0 -86 -31 -161t-73 -123q-106 -121 -255 -169q-25 -10 -28 15l-17 61q-4 23 21 31
q53 16 124 62t97 110q-10 -10 -46 -20q-36 -11 -63 -11z" />
    <glyph glyph-name="zeroinferior" unicode="&#x2080;" horiz-adv-x="651" 
d="M211 -79q0 -124 68 -124q57 0 92 71q35 72 35 198t-72 127q-55 0 -89 -74t-34 -198zM68 -78q0 180 75 288q76 108 209 107q90 0 143 -67q52 -68 52 -182q0 -182 -76 -288t-209 -108q-92 0 -143 66t-51 184z" />
    <glyph glyph-name="oneinferior" unicode="&#x2081;" horiz-adv-x="430" 
d="M96 121v55q0 14 15 23l149 100h84q18 0 14 -18l-82 -570q0 -18 -18 -18h-100q-20 0 -17 18l58 412l-88 -14q-15 -2 -15 12z" />
    <glyph glyph-name="twoinferior" unicode="&#x2082;" horiz-adv-x="579" 
d="M489 160q0 -98 -102 -207l-133 -150h168q18 0 14 -20l-10 -72q-4 -18 -18 -18h-359q-18 0 -16 18l4 31l248 266q68 68 67 119q0 31 -19 53t-61 21q-42 0 -90 -51q-14 -14 -26 2l-37 61q-8 18 10 37q70 70 163 70t145 -48q52 -47 52 -112z" />
    <glyph glyph-name="threeinferior" unicode="&#x2083;" horiz-adv-x="585" 
d="M242 51q46 0 74 25q28 24 28 58t-20 52q-53 48 -140 -22q-14 -12 -26 2l-39 57q-14 18 6 31q90 66 169 66t133 -45q54 -44 54 -111q0 -109 -116 -158v-4q33 -16 61 -51t29 -84q0 -88 -66 -141q-66 -54 -170 -54t-172 76q-12 14 2 29l39 49q14 14 29 0q41 -41 91 -41
t79 25q29 26 29 60t-24 56t-67 21h-53q-24 -1 -22 22l6 58q4 25 30 24h56z" />
    <glyph glyph-name="fourinferior" unicode="&#x2084;" horiz-adv-x="677" 
d="M203 -84h137l29 190zM434 299h66q16 0 16 -18l-51 -365h72q18 0 14 -16l-10 -70q-4 -18 -19 -18h-73l-13 -101q-4 -18 -22 -18h-90q-16 0 -17 18l15 101h-259q-18 0 -14 16l12 82l359 383q6 6 14 6z" />
    <glyph glyph-name="fiveinferior" unicode="&#x2085;" horiz-adv-x="598" 
d="M152 299h292q18 0 15 -18l-10 -74q-4 -16 -19 -17h-199l-14 -102h74q86 0 135 -48t49 -141t-71 -160t-189 -67q-59 0 -103 25t-65 53q-8 18 2 31l47 47q14 14 27 2q43 -43 98 -43t89 34t34 74q0 39 -22 61t-64 21h-139q-29 0 -25 33l39 271q4 18 19 18z" />
    <glyph glyph-name="sixinferior" unicode="&#x2086;" horiz-adv-x="610" 
d="M261 -209q40 0 70 33q29 33 29 73q0 41 -20 65t-51 24t-62 -22t-41 -44q-4 -47 16 -88t59 -41zM61 -121q0 86 31 161q53 127 169 209q76 54 159 83q25 10 29 -15l16 -61q4 -23 -21 -31q-54 -16 -124 -62t-97 -110q9 9 46 20t63 11q63 0 109 -45t46 -134q-1 -89 -71 -161
t-162 -72t-142 60t-51 147z" />
    <glyph glyph-name="seveninferior" unicode="&#x2087;" horiz-adv-x="591" 
d="M123 186q-18 0 -14 19l10 76q4 18 18 18h369q18 0 14 -18l-4 -27l-323 -543q-12 -18 -31 -18h-94q-8 0 -13 3t-2 25l287 465h-217z" />
    <glyph glyph-name="eightinferior" unicode="&#x2088;" horiz-adv-x="618" 
d="M195 -152q0 -31 19 -48t50 -17q31 -1 57 23t25 61q0 63 -63 76q-37 -6 -63 -35t-25 -60zM244 127q0 -53 55 -66q35 6 55 30q20 25 20 53t-16 46t-43 18t-49 -24t-22 -57zM109 131q0 84 64 136q65 52 153 52q88 1 139 -41t51 -104t-37 -105q-37 -42 -80 -63v-2
q33 -14 61 -51t27 -86q-1 -84 -67 -139q-66 -56 -166 -56t-152 44q-51 44 -51 111t47 114t84 63v2q-29 14 -51 48t-22 77z" />
    <glyph glyph-name="nineinferior" unicode="&#x2089;" horiz-adv-x="612" 
d="M308 201q-40 0 -70 -33t-29 -73q0 -41 20 -65q19 -24 51 -24t62 22t41 44q4 47 -15 88q-20 41 -60 41zM82 87q0 89 71 161t163 72t142 -61q50 -60 50 -146t-31 -161q-84 -203 -327 -292q-25 -10 -29 14l-17 62q-4 23 21 31q53 16 124 62t97 110q-12 -12 -47 -22
q-35 -9 -61 -9q-63 0 -110 45q-46 45 -46 134z" />
    <glyph glyph-name="Euro" unicode="&#x20ac;" horiz-adv-x="1376" 
d="M94 514q-34 0 -24 49t39 49h73q-6 88 15 148h-68q-35 0 -25 49t39 49h78q74 260 277 428q204 168 456 168t424 -190q27 -31 -6 -58l-96 -82q-31 -29 -53 0q-109 127 -275 127q-166 1 -298 -111t-195 -282h454q15 0 25 -11t6 -28l-4 -22q-8 -37 -41 -37h-469
q-23 -78 -12 -148h387q14 0 24 -11t6 -28l-4 -22q-8 -37 -41 -37h-360q29 -143 126 -234t234 -92q84 0 156 36t160 106q27 23 43 2l92 -99q20 -25 -10 -55q-211 -199 -475 -198q-227 0 -382 150t-182 384h-94z" />
    <glyph glyph-name="afii61289" unicode="&#x2113;" horiz-adv-x="1034" 
d="M295 608q182 82 302 226t148 346q23 156 -63 155q-88 -1 -170 -151t-176 -451zM307 -20q-125 0 -178 96t-33 233q4 25 29 131q-49 -16 -84 -22t-35 18l2 60q4 37 31 41q66 12 129 34q6 21 26 83t29 100q115 360 222 530q108 170 253 170q100 0 142 -79t26 -195
q-37 -252 -206 -434t-404 -273q-31 -90 -41 -160q-33 -213 109 -213q147 0 290 90q35 23 45 -6l15 -39q8 -16 7 -26q-2 -20 -59 -51q-57 -32 -144 -60t-171 -28z" />
    <glyph glyph-name="trademark" unicode="&#x2122;" horiz-adv-x="1329" 
d="M305 801q-14 0 -23 11t-6 28l66 467h-121q-14 0 -23 11t-8 28l9 49q8 39 39 39h370q14 0 24 -12t7 -27l-8 -49q-6 -39 -39 -39h-123l-66 -467q-2 -16 -13 -28t-25 -11h-60zM653 801q-18 0 -26 14t-2 33l174 565q12 31 41 31h6q25 0 28 -23l101 -407l219 407q14 23 35 23
h6q31 0 31 -31l18 -567q0 -18 -12 -32t-29 -13h-59q-31 0 -31 35l-4 297l-168 -320q-10 -18 -33 -18h-10q-25 0 -29 20l-71 318l-93 -299q-8 -33 -40 -33h-52z" />
    <glyph glyph-name="Omega" unicode="&#x2126;" horiz-adv-x="1599" 
d="M2 0q-25 0 -25 29v4l19 131q4 33 33 33h198q-84 67 -135 185t-51 251q0 337 232 579t542 242q246 0 412 -184t166 -443q1 -178 -93 -363t-221 -267h176q25 0 25 -29v-4l-18 -131q-2 -13 -12 -23t-21 -10h-488q-31 0 -26 33l8 84q4 45 49 61q178 76 292 251t114 369
t-108 322q-108 129 -279 129q-217 0 -378 -189t-161 -435q0 -150 68 -271t188 -176q33 -18 29 -47l-13 -98q-2 -13 -12 -23t-23 -10h-487z" />
    <glyph glyph-name="estimated" unicode="&#x212e;" horiz-adv-x="1685" 
d="M809 1337q-287 0 -475 -237l-47 -332h884l48 328q-61 115 -167 178t-243 63zM824 1454q280 0 444 -215t123 -526q-8 -55 -50 -56h-1071l-45 -325q55 -111 165 -174t245 -64q205 0 405 172q33 29 50 2l22 -37q12 -25 -14 -51q-223 -200 -492 -200q-270 0 -434 213
t-120 523t268 524t504 214z" />
    <glyph glyph-name="onethird" unicode="&#x2153;" horiz-adv-x="1230" 
d="M859 92q50 0 79 25t29 59t-24 56t-66 22h-54q-25 0 -22 22l6 58q4 25 31 24h55q45 0 72 25t27 59t-20 52q-19 18 -52 18t-84 -41q-14 -12 -27 2l-39 57q-14 18 6 31q55 66 174 66q76 0 129 -41q53 -42 53 -104t-35 -106q-36 -44 -81 -63v-4q34 -16 62 -51t28 -84
q0 -88 -66 -141t-170 -53t-172 75q-12 14 2 29l39 49q14 14 29 0q41 -41 91 -41zM254 827q-20 0 -16 19l57 411l-88 -14q-14 -2 -14 12v56q0 14 14 22l149 101h84q18 0 15 -19l-82 -569q0 -18 -19 -19h-100zM1073 1434q19 0 27 -18t-4 -38l-828 -1358q-10 -20 -32 -20h-80
q-20 0 -28 17q-7 18 5 38l823 1358q14 20 33 21h84z" />
    <glyph glyph-name="twothirds" unicode="&#x2154;" horiz-adv-x="1230" 
d="M859 92q50 0 79 25t29 59t-24 56t-66 22h-54q-25 0 -22 22l6 58q4 25 31 24h55q45 0 74 25t29 59t-21 52q-20 18 -54 18t-85 -41q-14 -12 -27 2l-39 57q-14 18 6 31q90 66 169 66t133 -44t55 -112q0 -109 -117 -158v-4q34 -16 62 -51t28 -84q0 -88 -66 -141t-170 -53
t-172 75q-12 14 2 29l39 49q14 14 29 0q41 -41 91 -41zM1073 1434q19 0 27 -18t-4 -38l-828 -1358q-10 -20 -32 -20h-80q-20 0 -28 17q-7 18 5 38l823 1358q14 20 33 21h84zM29 827q-18 0 -17 19l4 31l248 266q68 68 68 109q0 85 -74 83q-49 0 -96 -51q-14 -14 -27 2l-37 62
q-8 18 11 36q70 70 163 70t145 -47t52 -113q0 -98 -102 -207l-134 -149h168q18 0 15 -20l-10 -72q-4 -18 -19 -19h-358z" />
    <glyph glyph-name="oneeighth" unicode="&#x215b;" horiz-adv-x="1230" 
d="M868 156q0 -31 20 -48q20 -18 50 -18t56 24t26 60q0 63 -64 76q-36 -6 -62 -34t-26 -60zM918 434q0 -53 55 -65q35 5 55 29t20 53t-16 47t-43 18t-49 -24t-22 -58zM928 -20q-100 0 -152 44q-51 44 -51 110q0 67 47 114t84 63v2q-30 14 -52 48t-22 77q0 84 65 136t153 52
t139 -41q51 -43 51 -105t-37 -104t-80 -63v-2q33 -14 61 -51t27 -86q-1 -84 -67 -139t-166 -55zM254 827q-20 0 -16 19l57 411l-88 -14q-14 -2 -14 12v56q0 14 14 22l149 101h84q18 0 15 -19l-82 -569q0 -18 -19 -19h-100zM1073 1434q19 0 27 -18t-4 -38l-828 -1358
q-10 -20 -32 -20h-80q-20 0 -28 17q-7 18 5 38l823 1358q14 20 33 21h84z" />
    <glyph glyph-name="threeeighths" unicode="&#x215c;" horiz-adv-x="1230" 
d="M868 156q0 -31 20 -48q20 -18 50 -18t56 24t26 60q0 63 -64 76q-36 -6 -62 -34t-26 -60zM918 434q0 -53 55 -65q35 5 55 29t20 53t-16 47t-43 18t-49 -24t-22 -58zM928 -20q-100 0 -152 44q-51 44 -51 110q0 67 47 114t84 63v2q-30 14 -52 48t-22 77q0 84 65 136t153 52
t139 -41q51 -43 51 -105t-37 -104t-80 -63v-2q33 -14 61 -51t27 -86q-1 -84 -67 -139t-166 -55zM1073 1434q19 0 27 -18t-4 -38l-828 -1358q-10 -20 -32 -20h-80q-20 0 -28 17q-7 18 5 38l823 1358q14 20 33 21h84zM344 1269q0 70 -74 70q-34 0 -86 -41q-14 -12 -26 2
l-39 58q-12 18 6 31q90 65 169 65t133 -44t54 -112q0 -109 -116 -157v-4q33 -15 61 -51t29 -85q1 -88 -65 -141t-170 -53t-173 76q-12 14 2 28l39 50q14 14 29 0q41 -41 91 -41t79 24t29 60q0 34 -24 56t-67 21h-53q-25 0 -22 23l6 57q4 25 30 25h56q46 0 74 24t28 59z" />
    <glyph glyph-name="fiveeighths" unicode="&#x215d;" horiz-adv-x="1230" 
d="M868 156q0 -31 20 -48q20 -18 50 -18t56 24t26 60q0 63 -64 76q-36 -6 -62 -34t-26 -60zM918 434q0 -53 55 -65q35 5 55 29t20 53t-16 47t-43 18t-49 -24t-22 -58zM928 -20q-100 0 -152 44q-51 44 -51 110q0 67 47 114t84 63v2q-30 14 -52 48t-22 77q0 84 65 136t153 52
t139 -41q51 -43 51 -105t-37 -104t-80 -63v-2q33 -14 61 -51t27 -86q-1 -84 -67 -139t-166 -55zM203 807q-59 1 -103 25t-65 53q-8 18 2 30l47 48q14 14 27 2q43 -43 98 -43t89 34t34 73q0 40 -23 62t-63 21h-140q-29 0 -24 33l39 270q4 18 18 19h293q18 0 14 -19l-10 -74
q-4 -16 -18 -16h-199l-14 -102h74q86 0 135 -48t49 -141q-1 -93 -71 -160t-189 -67zM1073 1434q19 0 27 -18t-4 -38l-828 -1358q-10 -20 -32 -20h-80q-20 0 -28 17q-7 18 5 38l823 1358q14 20 33 21h84z" />
    <glyph glyph-name="seveneighths" unicode="&#x215e;" horiz-adv-x="1230" 
d="M868 156q0 -31 20 -48q20 -18 50 -18t56 24t26 60q0 63 -64 76q-36 -6 -62 -34t-26 -60zM918 434q0 -53 55 -65q35 5 55 29t20 53t-16 47t-43 18t-49 -24t-22 -58zM928 -20q-100 0 -152 44q-51 44 -51 110q0 67 47 114t84 63v2q-30 14 -52 48t-22 77q0 84 65 136t153 52
t139 -41q51 -43 51 -105t-37 -104t-80 -63v-2q33 -14 61 -51t27 -86q-1 -84 -67 -139t-166 -55zM127 827q-8 0 -13 3t-1 26l286 465h-217q-18 0 -14 18l10 76q4 18 19 19h368q18 0 15 -19l-5 -26l-323 -543q-12 -18 -31 -19h-94zM1073 1434q19 0 27 -18t-4 -38l-828 -1358
q-10 -20 -32 -20h-80q-20 0 -28 17q-7 18 5 38l823 1358q14 20 33 21h84z" />
    <glyph glyph-name="partialdiff" unicode="&#x2202;" horiz-adv-x="1167" 
d="M566 725q-104 1 -180 -99t-77 -216q0 -116 49 -182q48 -64 140 -64t158 68q118 120 130 337q-10 47 -63 101t-157 55zM117 377q0 233 137 375t315 141q117 0 224 -76q-19 164 -145 292t-218 161q-33 10 -33 37q0 10 6 22l46 84q16 27 29 27t43 -14q92 -41 188 -124
q96 -84 150 -160t93 -195q39 -117 39 -231q0 -363 -167 -570q-58 -74 -150 -120t-207 -46q-150 0 -250 114t-100 283z" />
    <glyph glyph-name="Delta" unicode="&#x2206;" horiz-adv-x="1421" 
d="M240 195l639 2l-197 837h-4zM-20 0q-72 0 -27 84l745 1356q10 18 31 18h10q18 0 25 -18l362 -1360q15 -80 -47 -80h-1099z" />
    <glyph glyph-name="product" unicode="&#x220f;" horiz-adv-x="1374" 
d="M289 1434h997q12 0 20 -10t3 -23l-191 -1368q-8 -33 -35 -33h-153q-14 0 -22 10q-7 10 -3 23l168 1202h-631l-168 -1202q-8 -33 -34 -33h-154q-10 0 -18 10t-5 23l191 1368q8 33 35 33z" />
    <glyph glyph-name="summation" unicode="&#x2211;" horiz-adv-x="1101" 
d="M274 1434h754q12 0 20 -10t3 -23l-19 -133q-4 -33 -33 -33h-454l307 -397q25 -31 20 -64l-10 -74q-2 -25 -41 -69l-426 -432h459q29 0 25 -35l-19 -131q-8 -33 -35 -33h-753q-12 0 -20 10q-7 11 -3 23l8 61l631 649l-455 605l7 53q8 33 34 33z" />
    <glyph glyph-name="minus" unicode="&#x2212;" horiz-adv-x="972" 
d="M135 629q-31 0 -29 39l13 86q2 16 13 27t26 12h719q14 1 22 -11t6 -28l-12 -86q-2 -16 -13 -28t-26 -11h-719z" />
    <glyph glyph-name="uni2215" unicode="&#x2215;" horiz-adv-x="1138" 
d="M31 0q-20 0 -28 17q-7 17 5 38l823 1358q14 20 33 21h84q20 0 28 -18t-5 -38l-828 -1358q-10 -20 -32 -20h-80z" />
    <glyph glyph-name="uni2219" unicode="&#x2219;" horiz-adv-x="696" 
d="M424 379q-62 0 -97 39q-36 40 -36 102t51 112q50 50 112 50t99 -39t37 -101t-52 -113q-52 -50 -114 -50z" />
    <glyph glyph-name="radical" unicode="&#x221a;" horiz-adv-x="1386" 
d="M201 819h141q25 0 25 -18l92 -418h6l547 1030q12 20 28 21h334q31 0 27 -33l-15 -111q-2 -12 -12 -22t-24 -11h-209l-695 -1257q-12 -20 -28 -20h-15q-18 0 -22 20l-207 778q-4 16 3 28t24 13z" />
    <glyph glyph-name="infinity" unicode="&#x221e;" horiz-adv-x="1228" 
d="M394 467q52 0 94 41t51 98q8 56 -23 98t-83 42t-95 -42q-43 -40 -51 -98q-9 -58 23 -98q32 -41 84 -41zM793 467q53 0 94 41t49 98q8 56 -22 98t-82 42t-94 -41q-42 -40 -51 -98t22 -99t84 -41zM369 322q-100 0 -166 84q-67 84 -51 202t100 202q84 83 197 83
q59 0 108 -37t72 -90q37 57 98 92t131 35q98 0 165 -85t51 -204t-99 -201q-82 -82 -197 -81q-59 0 -109 36t-73 88q-92 -124 -227 -124z" />
    <glyph glyph-name="integral" unicode="&#x222b;" horiz-adv-x="724" 
d="M768 1454q119 0 195 -82q20 -20 0 -49l-62 -82q-23 -31 -57 1t-96 32t-107 -50t-59 -151l-187 -1329q-27 -188 -127 -284t-262 -95q-121 0 -192 82q-16 20 -2 47l63 82q23 31 55 -1t94 -32q64 1 110 51t61 152l186 1327q27 185 127 283t260 98z" />
    <glyph glyph-name="approxequal" unicode="&#x2248;" horiz-adv-x="839" 
d="M195 440q90 88 173 88t161 -91q31 -34 65 -36q63 0 121 86q23 31 49 11l53 -45q18 -16 -4 -43l-2 -4q-4 -4 -15 -24t-42 -50q-86 -86 -172 -86q-56 0 -120 63t-106 64q-66 0 -127 -90q-22 -33 -45 -13l-57 45q-23 18 0 45q12 27 68 80zM608 637q-50 0 -114 63
q-63 63 -105 64q-66 0 -127 -90q-22 -32 -45 -12l-57 45q-23 18 0 45q12 27 67 79q182 178 335 -3q31 -35 65 -35q63 0 121 86q23 31 49 10l53 -45q18 -16 -4 -43l-2 -4q-4 -5 -10 -15q-44 -77 -134 -124q-42 -21 -92 -21z" />
    <glyph glyph-name="notequal" unicode="&#x2260;" horiz-adv-x="839" 
d="M166 272q-14 0 -24 12t-7 27l15 90q8 39 38 39h203l141 265h-307q-14 0 -22 11t-6 27l12 88q2 15 14 27t27 12h381l86 156q18 37 49 18l16 -10q29 -18 11 -49l-64 -115h107q33 0 28 -39l-12 -88q-2 -16 -14 -27t-27 -11h-180l-139 -265h282q14 0 24 -11t7 -28l-14 -90
q-1 -16 -13 -27t-26 -12h-359l-86 -153q-8 -13 -23 -19t-26 0l-18 11q-29 16 -11 49l64 112h-127z" />
    <glyph glyph-name="lessequal" unicode="&#x2264;" horiz-adv-x="927" 
d="M27 106q-15 0 -23 12t-6 27l10 86q2 15 14 27t27 12h715q31 0 27 -39l-13 -86q-5 -37 -37 -39h-714zM104 784q-16 10 -14 35l2 21q2 16 25 28l780 389q16 10 27 3q10 -8 8 -29l-17 -129q-4 -20 -20 -31l-545 -252l475 -248q14 -10 11 -30l-17 -109q-2 -20 -16 -28t-27 2z
" />
    <glyph glyph-name="greaterequal" unicode="&#x2265;" horiz-adv-x="927" 
d="M25 106q-31 0 -27 39l10 86q2 15 14 27t25 12h715q31 0 29 -39l-13 -86q-2 -16 -13 -27t-26 -12h-714zM72 406q-16 -10 -27 -3q-10 8 -8 29l16 129q4 25 19 31l544 248l-475 252q-12 6 -8 30l17 109q8 47 43 26l669 -389q14 -8 12 -28l-2 -21q-2 -27 -22 -35z" />
    <glyph glyph-name="lozenge" unicode="&#x25ca;" horiz-adv-x="1421" 
d="M637 291h4l360 438l-231 440h-4l-360 -440zM807 1458h12q12 0 23 -18l336 -609q30 -55 22 -102t-53 -104l-504 -607q-14 -18 -31 -18h-12q-12 0 -22 18l-340 615q-52 97 32 196l506 611q14 18 31 18z" />
    <glyph glyph-name="uniF8FF" unicode="&#xf8ff;" horiz-adv-x="1226" 
d="M502 319q0 -41 30 -69t69 -29q40 0 70 29q29 30 29 70t-29 69q-30 29 -70 29q-39 0 -69 -29t-30 -70zM537 643q0 -25 28 -25h74q31 0 31 27v53q0 57 107 124q40 26 74 75t34 109q0 98 -73 162t-193 65q-120 0 -213 -80q-22 -18 -41 -44t-3 -38l46 -45q24 -18 70 33
q45 51 120 51q74 0 108 -31t34 -75t-32 -80q-32 -37 -70 -62q-38 -24 -70 -66t-31 -94v-59zM102 61v1311q0 61 62 62h899q61 0 61 -62v-1311q0 -61 -61 -61h-899q-62 0 -62 61z" />
    <glyph glyph-name="CR" horiz-adv-x="0" 
 />
    <glyph glyph-name="grave.cap" horiz-adv-x="557" 
d="M473 1591l-287 144q-35 16 -12 53l53 84q18 27 49 6l269 -186q23 -12 6 -39l-31 -54q-14 -24 -47 -8z" />
    <glyph glyph-name="acute.cap" horiz-adv-x="557" 
d="M219 1583q-37 -16 -45 12l-22 64q-8 25 16 39l319 186q9 8 27 6t25 -20l34 -90q14 -35 -18 -49z" />
    <glyph glyph-name="circumflex.cap" horiz-adv-x="688" 
d="M215 1581q-21 -14 -29 -8t-16 18l-29 41q-18 31 11 49l258 201q25 16 45 0l200 -201q20 -20 4 -43l-36 -45q-23 -25 -48 -4l-157 123z" />
    <glyph glyph-name="caron.cap" horiz-adv-x="688" 
d="M377 1575l-201 201q-20 20 -4 43l37 45q23 25 47 4l158 -123l202 131q22 14 29 8q8 -6 17 -18l28 -41q18 -31 -10 -49l-258 -201q-25 -16 -45 0z" />
    <glyph glyph-name="caron.alt" horiz-adv-x="688" 
d="M356 1202q-40 0 -70 33t-30 85t42 94t96 42t90 -38t36 -120q0 -215 -219 -419q-27 -25 -45 -2l-23 30q-18 23 11 47q8 9 42 38q97 85 117 216q-6 -6 -47 -6z" />
    <glyph glyph-name="tilde.cap" horiz-adv-x="700" 
d="M336 1870q47 0 80 -33q34 -33 56 -65t44 -33q41 0 86 82q20 39 51 18l39 -29q31 -25 4 -65q-84 -154 -190 -154q-57 0 -134 101q-26 33 -44 32q-39 0 -84 -84q-20 -36 -45 -20l-54 31q-30 24 26 109q22 34 70 72t95 38z" />
    <glyph glyph-name="dieresis.cap" horiz-adv-x="874" 
d="M410 1726q0 -46 -40 -85t-86 -39t-73 30t-27 77q0 48 39 86t84 38t74 -30q29 -31 29 -77zM744 1833q46 0 74 -30q28 -31 28 -77t-40 -85t-86 -39t-73 30t-27 77q0 48 39 86t85 38z" />
    <glyph glyph-name="macron.cap" horiz-adv-x="763" 
d="M217 1667q-35 0 -31 37l9 57q6 39 41 39h471q35 0 30 -39l-8 -57q-4 -37 -41 -37h-471z" />
    <glyph glyph-name="breve.cap" horiz-adv-x="636" 
d="M379 1573q-98 0 -162 68q-63 69 -63 169q0 43 36 43h56q25 0 28 -30q4 -53 36 -87t79 -34t86 35t57 76t39 40h68q39 0 25 -43q-31 -104 -109 -170t-176 -67z" />
    <glyph glyph-name="ring.cap" horiz-adv-x="534" 
d="M250 1766q0 -44 24 -74t61 -31q38 0 72 40q33 40 33 84t-21 72q-22 27 -61 27q-40 0 -74 -37t-34 -81zM557 1793q0 -97 -71 -171t-158 -74t-138 58t-51 152q0 96 70 170t156 75q86 0 139 -57t53 -153z" />
    <glyph glyph-name="hungarumlaut.cap" horiz-adv-x="722" 
d="M164 1573q-18 0 -27 11q-8 11 -2 28l117 289q16 39 41 38h119q26 0 32 -15t-6 -36l-184 -284q-18 -31 -39 -31h-51zM469 1573q-18 0 -27 11q-8 11 -2 28l117 289q16 39 41 38h119q25 0 32 -15t-6 -36l-184 -284q-18 -31 -39 -31h-51z" />
    <glyph glyph-name="dotaccent.cap" horiz-adv-x="403" 
d="M408 1757q0 -55 -44 -99t-96 -44q-51 0 -82 34q-30 34 -30 88t43 98t95 44t83 -33t31 -88z" />
    <glyph glyph-name="cedilla.cap" horiz-adv-x="456" 
d="M410 -301q0 -96 -62 -164t-158 -67q-40 0 -78 20t-56 50t3 52l33 31q18 17 44 -7t61 -24t59 30t25 71q0 84 -125 100q-33 8 -27 39l25 170h114l-14 -113q156 -35 156 -188z" />
    <glyph glyph-name="ogonek.cap" horiz-adv-x="509" 
d="M219 -212q0 -112 103 -112q33 0 92 27q16 6 24 -3t6 -28l-8 -59q-2 -20 -36 -41t-120 -21q-84 -1 -140 49t-56 118t22 129q22 62 88 127q26 26 44 38l16 13h113q-16 -13 -41 -33t-66 -85t-41 -119z" />
    <glyph glyph-name="commaaccent" horiz-adv-x="536" 
d="M326 -442q-41 0 -71 32t-30 84q0 50 43 94q42 44 96 44t90 -38t35 -120q0 -215 -219 -420q-27 -25 -45 -2l-22 31q-18 23 10 47l31 27q103 90 129 227q-6 -6 -47 -6z" />
    <glyph glyph-name="commaaccent.alt" horiz-adv-x="536" 
d="M326 -442q-41 0 -71 32t-30 84q0 50 43 94q42 44 96 44t90 -38t35 -120q0 -215 -219 -420q-27 -25 -45 -2l-22 31q-18 23 10 47l31 27q103 90 129 227q-6 -6 -47 -6z" />
    <glyph glyph-name="commaaccent.cap" horiz-adv-x="536" 
d="M326 -442q-41 0 -71 32t-30 84q0 50 43 94q42 44 96 44t90 -38t35 -120q0 -215 -219 -420q-27 -25 -45 -2l-22 31q-18 23 10 47l31 27q103 90 129 227q-6 -6 -47 -6z" />
    <glyph glyph-name="brokenbar.case" horiz-adv-x="681" 
d="M315 385h23q33 0 27 -39l-95 -678q-8 -37 -41 -37h-18q-13 -1 -23 11t-8 26l96 678q2 16 14 28t25 11zM410 1049q-14 0 -24 11q-9 11 -7 25l96 678q2 15 14 27t27 12h21q33 0 26 -39l-94 -678q-8 -37 -41 -36h-18z" />
    <glyph glyph-name="zero.tf" horiz-adv-x="1236" 
d="M567 168q154 0 246 194t92 504q0 168 -49 264t-139 97q-158 0 -250 -194t-92 -505q0 -168 50 -264t142 -96zM541 -20q-178 0 -277 151q-98 152 -98 391q0 408 152 650t425 243q176 0 275 -149q98 -150 98 -392q0 -408 -154 -651t-421 -243z" />
    <glyph glyph-name="one.tf" horiz-adv-x="1236" 
d="M197 0q-35 0 -31 37l12 88q6 39 41 39h262l131 913l-186 -96q-33 -14 -37 14l-6 82q-4 29 12 41l320 275h108q15 1 23 -11t6 -28l-170 -1190h227q37 0 31 -39l-12 -88q-4 -37 -41 -37h-690z" />
    <glyph glyph-name="two.tf" horiz-adv-x="1236" 
d="M879 1034q0 78 -45 134t-123 56t-145 -45q-67 -46 -109 -96q-25 -31 -56 0l-65 74q-27 29 -2 57q108 130 261 179q62 20 126 20q166 0 262 -100q96 -101 96 -239t-50 -238t-161 -224l-389 -436h439q14 0 22 -11t6 -28l-12 -98q-2 -15 -14 -27t-27 -12h-719q-33 0 -29 39
l7 53l563 619q164 178 164 323z" />
    <glyph glyph-name="three.tf" horiz-adv-x="1236" 
d="M544 158q90 0 162 68t72 166t-63 160t-180 62h-103q-35 0 -29 43l13 88q6 43 41 43h104q131 0 206 74t75 170t-47 144t-133 49q-86 0 -207 -115q-29 -29 -52 -2l-65 78q-22 28 0 56q60 76 168 123q108 48 196 48q150 0 250 -91q100 -90 100 -228t-74 -236
q-75 -98 -165 -141v-6q66 -33 122 -115t56 -186q0 -182 -128 -306t-335 -124q-139 0 -236 60t-134 122q-16 27 10 49l84 68q26 25 52 -9t88 -74q62 -38 152 -38z" />
    <glyph glyph-name="four.tf" horiz-adv-x="1236" 
d="M340 475h410l81 567h-4zM131 305q-14 0 -23 11t-6 28l17 123l807 936q12 12 28 12h82q14 0 22 -11t7 -28l-127 -905h149q13 0 23 -10t6 -27l-12 -86q-2 -16 -13 -27t-26 -12h-150l-34 -270q-8 -39 -41 -39h-129q-14 0 -23 12q-8 12 -6 27l37 266h-588z" />
    <glyph glyph-name="five.tf" horiz-adv-x="1236" 
d="M559 162q123 0 201 98t78 210t-54 176q-54 62 -155 63h-275q-31 -1 -45 21t-10 50l82 574q2 16 13 27t26 12h575q13 1 23 -11t8 -28l-14 -101q-2 -16 -14 -27t-27 -12h-426l-45 -325h174q168 -1 268 -107t100 -284q0 -217 -138 -368t-353 -150q-164 0 -252 65t-119 117
q-16 27 10 49l84 68q27 25 52 -9q26 -34 90 -70q64 -38 143 -38z" />
    <glyph glyph-name="six.tf" horiz-adv-x="1236" 
d="M595 156q120 0 197 94q76 94 76 214t-54 190t-149 69q-95 0 -166 -50t-96 -95q-35 -150 19 -286t173 -136zM203 434q0 188 58 349t142 267t193 192q172 134 358 196q35 12 45 -25l25 -90q10 -39 -39 -57q-67 -29 -151 -75t-197 -145t-158 -206q98 53 238 53
q141 0 241 -101t101 -282q0 -225 -134 -378t-337 -152q-174 0 -280 132q-106 134 -105 322z" />
    <glyph glyph-name="seven.tf" horiz-adv-x="1236" 
d="M315 1212q-14 0 -22 12t-6 27l14 103q2 14 14 26t27 13h758q14 1 23 -11t7 -28l-4 -33l-737 -1284q-20 -37 -53 -37h-123q-14 0 -25 9q-10 10 -8 22l4 32l670 1149h-539z" />
    <glyph glyph-name="eight.tf" horiz-adv-x="1236" 
d="M385 344q0 -90 54 -143t144 -53t167 68q76 69 75 179q0 75 -50 139t-136 80q-113 -18 -183 -99t-71 -171zM718 1239q-81 0 -150 -67t-68 -160q0 -168 166 -201q104 23 165 91t61 154q0 85 -46 134q-47 49 -128 49zM170 322q0 98 57 189t113 135t106 71v6q-57 37 -103 110
t-46 166q0 182 128 298t320 116q152 0 253 -91q102 -90 102 -226t-74 -232t-164 -143l-2 -8q66 -35 122 -117t56 -184q0 -184 -131 -308t-356 -124q-165 0 -273 98t-108 244z" />
    <glyph glyph-name="nine.tf" horiz-adv-x="1236" 
d="M615 682q95 0 166 50t96 95q35 150 -19 286t-173 136q-120 0 -197 -94q-76 -94 -76 -214q0 -119 54 -189t149 -70zM563 512q-141 0 -241 101t-101 282q0 225 134 378t337 152q174 0 280 -133t105 -321q0 -188 -58 -349q-58 -162 -142 -268t-193 -191q-172 -134 -358 -196
q-35 -12 -45 25l-25 90q-10 39 39 57q67 29 151 75t197 145t158 206q-98 -53 -238 -53z" />
    <glyph glyph-name="zero.denom" horiz-adv-x="651" 
d="M340 104q57 0 92 71t35 197t-72 128q-55 0 -89 -74t-34 -198t68 -124zM129 229q0 180 76 288t209 108q90 0 142 -68t52 -182q0 -183 -76 -289t-208 -106q-92 0 -144 66q-51 66 -51 183z" />
    <glyph glyph-name="one.denom" horiz-adv-x="430" 
d="M158 428v55q0 14 14 23l150 100h84q18 0 14 -18l-82 -570q0 -18 -19 -18h-100q-20 0 -16 18l57 412l-88 -14q-14 -2 -14 12z" />
    <glyph glyph-name="two.denom" horiz-adv-x="579" 
d="M414 424q0 84 -74 84q-49 0 -96 -51q-14 -14 -27 2l-37 61q-8 18 10 37q70 70 164 70t145 -47q52 -47 52 -113q0 -98 -102 -207l-134 -149h168q18 0 15 -21l-11 -72q-4 -18 -18 -18h-358q-19 0 -17 18l4 31l248 266q68 68 68 109z" />
    <glyph glyph-name="three.denom" horiz-adv-x="585" 
d="M270 92q50 0 78 25t29 59q0 34 -24 56t-66 22h-54q-25 0 -22 22l6 58q4 25 31 24h55q45 0 74 25t29 59t-20 52t-55 18q-34 0 -85 -41q-14 -12 -27 2l-39 57q-14 18 6 31q90 66 169 66t133 -44t55 -112q0 -109 -117 -158v-4q34 -16 62 -51t28 -84q0 -88 -66 -141t-169 -53
q-104 0 -172 75q-12 14 2 29l39 49q14 14 28 0q42 -41 92 -41z" />
    <glyph glyph-name="four.denom" horiz-adv-x="677" 
d="M264 223h137l29 191zM125 119q-18 0 -14 16l12 82l358 383q6 6 15 6h65q16 0 17 -18l-52 -365h72q18 0 14 -16l-10 -70q-4 -18 -18 -18h-74l-12 -101q-4 -18 -23 -18h-90q-16 0 -16 18l14 101h-258z" />
    <glyph glyph-name="five.denom" horiz-adv-x="598" 
d="M282 94q56 0 90 34t34 74t-23 62t-64 21h-139q-29 0 -24 32l39 271q4 18 18 18h293q18 0 14 -18l-10 -74q-4 -16 -18 -16h-199l-14 -103h73q86 0 135 -48t49 -141t-70 -160q-71 -67 -190 -66q-59 0 -103 24t-64 53q-8 18 2 31l47 47q14 14 26 2q42 -43 98 -43z" />
    <glyph glyph-name="six.denom" horiz-adv-x="610" 
d="M322 98q40 0 70 33t30 73t-20 64t-52 25t-62 -21t-40 -45q-4 -47 15 -88t59 -41zM123 186q0 86 31 161t72 123q97 111 255 169q25 10 29 -14l16 -62q4 -23 -20 -31q-53 -16 -124 -62t-97 -110q12 12 47 22q35 9 61 9q63 0 109 -45t47 -134q0 -89 -71 -161
q-71 -71 -163 -71t-142 60t-50 146z" />
    <glyph glyph-name="seven.denom" horiz-adv-x="591" 
d="M184 494q-18 0 -14 18l10 76q4 18 19 18h368q18 0 15 -18l-4 -27l-324 -543q-12 -18 -31 -18h-94q-8 0 -13 3t-1 26l286 465h-217z" />
    <glyph glyph-name="eight.denom" horiz-adv-x="618" 
d="M256 156q0 -31 19 -48q19 -18 51 -18t56 24q26 24 26 60q0 63 -64 76q-36 -6 -62 -34t-26 -60zM436 451q0 29 -16 47t-43 18t-49 -24t-23 -58q0 -53 55 -65q35 6 56 29q20 24 20 53zM315 -20q-100 0 -151 44t-51 110q0 67 47 114t84 63v2q-30 14 -52 48t-22 77
q0 84 64 136q65 52 153 52t139 -41q52 -43 52 -105t-37 -104t-80 -63v-2q33 -14 61 -51t27 -86q0 -84 -67 -139t-167 -55z" />
    <glyph glyph-name="nine.denom" horiz-adv-x="612" 
d="M342 313q32 0 62 22t40 44q4 47 -15 88t-59 41t-70 -33t-30 -73t20 -64t52 -25zM299 215q-63 0 -110 45q-46 45 -46 134t71 161t163 72q92 -1 142 -61t50 -146q-1 -86 -31 -161q-52 -127 -168 -209q-76 -54 -159 -83q-25 -10 -29 15l-16 61q-4 23 20 31q53 16 124 62
t98 110q-9 -9 -46 -20t-63 -11z" />
    <glyph glyph-name="zero.num" horiz-adv-x="651" 
d="M442 932q57 0 93 70q35 71 35 198t-72 127q-55 0 -89 -74q-35 -73 -35 -197t68 -124zM426 807q-92 1 -143 67t-52 183q0 180 76 288t209 107q90 0 142 -68t53 -182q0 -182 -76 -288t-209 -107z" />
    <glyph glyph-name="one.num" horiz-adv-x="430" 
d="M322 827q-20 0 -17 19l57 411l-88 -14q-14 -2 -14 12v56q0 14 14 22l150 101h84q18 0 14 -19l-82 -569q0 -18 -18 -19h-100z" />
    <glyph glyph-name="two.num" horiz-adv-x="579" 
d="M213 827q-18 0 -16 19l4 31l248 266q68 68 67 119q0 30 -19 52t-61 22t-90 -52q-14 -14 -27 2l-36 62q-8 18 10 36q70 70 163 70t145 -47t52 -113q0 -98 -102 -207l-133 -149h168q18 0 14 -20l-10 -72q-4 -18 -19 -19h-358z" />
    <glyph glyph-name="three.num" horiz-adv-x="585" 
d="M384 807q-104 0 -173 76q-12 14 2 28l39 50q14 14 29 0q41 -41 91 -41t79 24t29 60q0 34 -24 56t-67 21h-53q-25 0 -23 23l6 57q4 25 31 25h56q46 0 74 24t28 59q0 34 -20 52t-55 18q-34 0 -85 -41q-14 -12 -26 2l-39 58q-12 18 6 31q90 65 169 65t133 -44t54 -112
q0 -109 -117 -157v-4q33 -15 62 -51t28 -85q0 -88 -65 -141t-169 -53z" />
    <glyph glyph-name="four.num" horiz-adv-x="677" 
d="M367 1051h137l28 190zM487 827q-16 0 -16 19l14 100h-258q-18 0 -14 17l12 81l359 383q6 6 14 7h66q16 0 16 -19l-51 -364h71q18 0 15 -17l-10 -69q-4 -18 -19 -19h-74l-12 -100q-4 -18 -22 -19h-91z" />
    <glyph glyph-name="five.num" horiz-adv-x="598" 
d="M379 807q-59 1 -103 25t-65 53q-8 18 2 30l47 48q14 14 27 2q43 -43 98 -43t89 34t34 73q0 40 -23 62t-63 21h-139q-29 0 -25 33l39 270q4 18 18 19h293q18 0 15 -19l-11 -74q-4 -16 -18 -16h-199l-14 -102h74q86 0 135 -48t49 -141q-1 -93 -71 -160t-189 -67z" />
    <glyph glyph-name="six.num" horiz-adv-x="610" 
d="M425 926q40 0 70 32q29 32 29 73q0 40 -20 65q-20 24 -51 24t-62 -22t-41 -43q-4 -47 16 -88t59 -41zM651 1040q-1 -89 -71 -161t-162 -72t-143 60q-50 61 -50 147t31 161t73 123q107 121 255 168q25 10 28 -14l17 -61q4 -23 -21 -31q-53 -16 -124 -62t-97 -110
q11 11 46 20q36 10 63 11q63 0 109 -45t46 -134z" />
    <glyph glyph-name="seven.num" horiz-adv-x="591" 
d="M231 827q-8 0 -13 3t-1 26l287 465h-217q-18 0 -15 18l11 76q4 18 18 19h369q18 0 14 -19l-4 -26l-324 -543q-12 -18 -30 -19h-95z" />
    <glyph glyph-name="eight.num" horiz-adv-x="618" 
d="M358 982q0 -30 20 -47t50 -17t56 24t26 59q0 63 -64 76q-36 -6 -62 -35q-26 -30 -26 -60zM479 1343q-27 -1 -49 -25t-22 -56q0 -54 55 -66q35 6 55 30t20 52t-16 47q-16 18 -43 18zM418 807q-100 0 -152 44q-51 44 -51 111q0 68 47 114t84 63v2q-30 14 -52 48t-22 77
q0 84 65 136t153 52t139 -42t51 -104t-37 -104t-80 -63v-2q33 -13 61 -51t27 -87q0 -84 -66 -139q-67 -55 -167 -55z" />
    <glyph glyph-name="nine.num" horiz-adv-x="612" 
d="M444 1141q31 -1 62 21t41 44q5 47 -15 88t-60 41q-40 -1 -70 -33t-30 -72t21 -64q20 -24 51 -25zM246 1221q0 89 70 161q71 72 163 72q93 0 143 -60t50 -146t-31 -162q-31 -74 -73 -122q-107 -121 -255 -169q-25 -10 -28 14l-17 61q-4 23 21 31q53 17 124 63t97 109
q-11 -11 -46 -20q-36 -10 -63 -11q-63 0 -109 45t-46 134z" />
    <glyph glyph-name="parenleft.case" horiz-adv-x="663" 
d="M147 458q0 667 264 914q141 136 320 144q17 2 25 -6t6 -21l-8 -96q-2 -33 -27 -37q-381 -88 -381 -873q0 -367 199 -428q23 -8 16 -37l-18 -90q-6 -31 -39 -26q-137 6 -247 154t-110 402z" />
    <glyph glyph-name="parenright.case" horiz-adv-x="665" 
d="M424 922q0 381 -201 436q-23 4 -16 37l20 94q6 29 37 27q144 -10 250 -150t107 -438q0 -228 -35 -408q-65 -333 -224 -482q-144 -138 -325 -136q-31 0 -29 32l6 91q4 28 27 34q383 94 383 863z" />
    <glyph glyph-name="hyphen.case" horiz-adv-x="751" 
d="M193 606q-35 0 -31 37l12 88q6 39 41 39h403q37 0 31 -39l-12 -88q-4 -37 -41 -37h-403z" />
    <glyph glyph-name="bracketleft.case" horiz-adv-x="653" 
d="M473 -203q13 0 23 -11t8 -26l-12 -90q-2 -14 -14 -26t-27 -13h-396q-14 -1 -23 11t-7 28l278 1970q2 14 13 26t26 13h397q15 0 23 -11t6 -28l-12 -90q-2 -16 -14 -27t-27 -12h-244l-242 -1714h244z" />
    <glyph glyph-name="bracketright.case" horiz-adv-x="655" 
d="M-23 -203h242l242 1714h-242q-14 -1 -22 11t-7 28l13 90q2 14 13 26t26 13h397q15 0 23 -11t6 -28l-277 -1970q-8 -39 -41 -39h-395q-13 1 -23 13t-8 26l15 90q7 37 38 37z" />
    <glyph glyph-name="braceleft.case" horiz-adv-x="739" 
d="M143 135l41 291q8 61 -27 100q-36 39 -79 49q-27 6 -23 37l13 82q4 25 26 32q22 6 50 22t63 52t41 77l41 294q49 343 278 464q110 58 250 65q35 0 33 -35l-8 -84q-2 -33 -29 -37q-125 -25 -214 -121t-112 -252l-34 -243q-27 -186 -189 -273l-2 -8q141 -74 115 -266
l-35 -246q-22 -154 40 -249t181 -119q27 -4 21 -37l-19 -84q-6 -35 -41 -35q-155 4 -280 125q-61 58 -90 162t-11 237z" />
    <glyph glyph-name="bar.case" horiz-adv-x="374" 
d="M358 1802h21q33 0 27 -39l-293 -2095q-3 -14 -15 -25t-26 -12h-19q-14 -1 -23 11t-7 26l294 2095q3 15 15 27t26 12z" />
    <glyph glyph-name="braceright.case" horiz-adv-x="739" 
d="M289 135l35 246q29 195 186 268l2 10q-70 47 -98 111t-15 158l35 243q24 156 -40 252t-183 121q-27 6 -18 37l18 84q8 35 41 35q155 -4 282 -123q62 -59 91 -165t8 -241l-43 -294q-8 -57 34 -97t76 -53q23 -10 21 -33l-12 -82q-4 -29 -41 -38t-84 -48t-56 -100l-41 -291
q-68 -485 -528 -524q-14 -2 -25 7q-10 9 -8 28l6 84q2 33 31 37q125 27 214 121t112 247z" />
    <glyph glyph-name="guilsinglleft.case" horiz-adv-x="514" 
d="M375 1020h90q23 0 28 -20t-10 -44l-174 -301l74 -284q13 -60 -37 -62h-84q-16 1 -24 17l-148 317q-12 25 6 49l238 303q20 25 41 25z" />
    <glyph glyph-name="guilsinglright.case" horiz-adv-x="516" 
d="M90 309q-23 -1 -28 19t10 45l174 301l-74 284q-13 60 37 62h84q16 0 24 -16l148 -318q12 -25 -6 -49l-238 -303q-20 -25 -41 -25h-90z" />
    <glyph glyph-name="guillemotleft.case" horiz-adv-x="862" 
d="M375 1020h90q23 0 28 -20t-10 -44l-174 -301l74 -284q13 -60 -37 -62h-84q-16 1 -24 17l-148 317q-12 25 6 49l238 303q20 25 41 25zM723 1020h90q23 0 28 -20t-10 -44l-174 -301l74 -284q13 -60 -37 -62h-84q-16 1 -24 17l-148 317q-12 25 6 49l238 303q20 25 41 25z
" />
    <glyph glyph-name="guillemotright.case" horiz-adv-x="864" 
d="M90 309q-23 -1 -28 19t10 45l174 301l-74 284q-13 60 37 62h84q16 0 24 -16l148 -318q12 -25 -6 -49l-238 -303q-20 -25 -41 -25h-90zM641 1020q16 0 25 -16l147 -318q12 -25 -6 -49l-238 -303q-20 -25 -41 -25h-90q-24 -1 -28 19t10 45l174 301l-74 284q-13 60 37 62h84
z" />
    <glyph glyph-name="endash.case" horiz-adv-x="1054" 
d="M207 627q-16 0 -25 11q-8 11 -6 26l8 49q6 39 39 39h715q37 0 31 -39l-8 -49q-8 -37 -39 -37h-715z" />
    <glyph glyph-name="emdash.case" horiz-adv-x="1460" 
d="M207 627q-16 0 -25 11q-8 11 -6 26l8 49q6 39 39 39h1120q37 0 31 -39l-8 -49q-8 -37 -39 -37h-1120z" />
    <glyph glyph-name="bullet.case" horiz-adv-x="698" 
d="M415 891q93 1 150 -63t57 -164t-82 -180q-82 -81 -176 -81q-94 -1 -149 61t-55 162t81 182q81 83 174 83z" />
    <glyph glyph-name="periodcentered.case" horiz-adv-x="481" 
d="M274 563q-62 0 -97 39q-36 40 -36 102q-1 62 51 112t113 50t98 -39t37 -101t-52 -113q-52 -50 -114 -50z" />
    </font>
</defs>
</svg>
